STARTFONT 2.1
COMMENT
COMMENT Converted from OpenType font "TimesNewRomanPS-BoldMT.otf" by "otf2bdf 3.0".
COMMENT
FONT -FreeType-Times New Roman-Bold-R-Normal--21-150-100-100-P-105-ISO10646-1
SIZE 15 100 100
FONTBOUNDINGBOX 35 27 -12 -6
STARTPROPERTIES 19
FOUNDRY "FreeType"
FAMILY_NAME "Times New Roman"
WEIGHT_NAME "Bold"
SLANT "R"
SETWIDTH_NAME "Normal"
ADD_STYLE_NAME ""
PIXEL_SIZE 21
POINT_SIZE 150
RESOLUTION_X 100
RESOLUTION_Y 100
SPACING "P"
AVERAGE_WIDTH 105
CHARSET_REGISTRY "ISO10646"
CHARSET_ENCODING "1"
FONT_ASCENT 18
FONT_DESCENT 4
COPYRIGHT "© 2006 The Monotype Corporation. All Rights Reserved."
_OTF_FONTFILE "TimesNewRomanPS-BoldMT.otf"
_OTF_PSNAME "TimesNewRomanPS-BoldMT"
ENDPROPERTIES
CHARS 1425
STARTCHAR 0020
ENCODING 32
SWIDTH 240 0
DWIDTH 5 0
BBX 0 0 0 0
BITMAP
ENDCHAR
STARTCHAR 0021
ENCODING 33
SWIDTH 336 0
DWIDTH 7 0
BBX 3 14 2 0
BITMAP
E0
E0
E0
E0
E0
C0
40
40
40
40
00
E0
E0
E0
ENDCHAR
STARTCHAR 0022
ENCODING 34
SWIDTH 576 0
DWIDTH 12 0
BBX 8 7 2 7
BITMAP
E6
E7
E7
C6
C6
42
40
ENDCHAR
STARTCHAR 0023
ENCODING 35
SWIDTH 480 0
DWIDTH 10 0
BBX 10 14 0 0
BITMAP
0880
1880
1880
1180
FFC0
FFC0
3100
3100
2300
FFC0
2200
6200
6200
4600
ENDCHAR
STARTCHAR 0024
ENCODING 36
SWIDTH 480 0
DWIDTH 10 0
BBX 9 15 1 -1
BITMAP
1C00
6B00
C900
C900
E800
F800
7C00
3F00
0F00
0F80
8B80
8B80
8B00
FE00
0800
ENDCHAR
STARTCHAR 0025
ENCODING 37
SWIDTH 1008 0
DWIDTH 21 0
BBX 18 15 1 -1
BITMAP
3C0600
660400
660800
E61800
661000
662000
2C6000
104700
008CC0
018CC0
010CC0
020CC0
060CC0
040480
080300
ENDCHAR
STARTCHAR 0026
ENCODING 38
SWIDTH 816 0
DWIDTH 17 0
BBX 15 14 1 0
BITMAP
07C0
0CE0
0C60
0C40
0EC0
0F00
1F1E
2708
6788
E3D0
E1E0
F0F0
F9FE
7E3C
ENDCHAR
STARTCHAR 0027
ENCODING 39
SWIDTH 288 0
DWIDTH 6 0
BBX 3 6 1 7
BITMAP
60
E0
60
60
60
40
ENDCHAR
STARTCHAR 0028
ENCODING 40
SWIDTH 336 0
DWIDTH 7 0
BBX 5 18 1 -4
BITMAP
08
10
30
60
60
E0
E0
E0
E0
E0
E0
E0
E0
60
60
30
10
08
ENDCHAR
STARTCHAR 0029
ENCODING 41
SWIDTH 336 0
DWIDTH 7 0
BBX 6 18 0 -4
BITMAP
C0
20
30
18
18
1C
1C
1C
1C
1C
1C
1C
1C
18
18
30
20
40
ENDCHAR
STARTCHAR 002A
ENCODING 42
SWIDTH 480 0
DWIDTH 10 0
BBX 8 8 1 6
BITMAP
18
18
CB
F7
08
34
76
26
ENDCHAR
STARTCHAR 002B
ENCODING 43
SWIDTH 576 0
DWIDTH 12 0
BBX 12 11 0 1
BITMAP
0600
0600
0600
0600
FFF0
FFF0
0600
0600
0600
0600
0600
ENDCHAR
STARTCHAR 002C
ENCODING 44
SWIDTH 240 0
DWIDTH 5 0
BBX 4 6 1 -4
BITMAP
E0
E0
F0
20
20
40
ENDCHAR
STARTCHAR 002D
ENCODING 45
SWIDTH 336 0
DWIDTH 7 0
BBX 5 2 1 4
BITMAP
F8
F8
ENDCHAR
STARTCHAR 002E
ENCODING 46
SWIDTH 240 0
DWIDTH 5 0
BBX 3 3 1 0
BITMAP
E0
E0
E0
ENDCHAR
STARTCHAR 002F
ENCODING 47
SWIDTH 288 0
DWIDTH 6 0
BBX 6 14 0 0
BITMAP
0C
08
08
18
10
10
30
20
20
20
60
40
40
C0
ENDCHAR
STARTCHAR 0030
ENCODING 48
SWIDTH 480 0
DWIDTH 10 0
BBX 9 14 1 0
BITMAP
3C00
6600
6700
E700
E300
E380
E380
E380
E380
E700
E700
6700
6600
3C00
ENDCHAR
STARTCHAR 0031
ENCODING 49
SWIDTH 480 0
DWIDTH 10 0
BBX 7 14 1 0
BITMAP
0C
3C
FC
1C
1C
1C
1C
1C
1C
1C
1C
1C
1C
3E
ENDCHAR
STARTCHAR 0032
ENCODING 50
SWIDTH 480 0
DWIDTH 10 0
BBX 8 14 1 0
BITMAP
3C
7E
DF
07
07
06
06
0C
08
10
20
7F
7F
FF
ENDCHAR
STARTCHAR 0033
ENCODING 51
SWIDTH 480 0
DWIDTH 10 0
BBX 9 14 0 0
BITMAP
1E00
3F00
4780
0300
0300
0600
0F00
0F80
0380
0380
0180
0180
E100
7E00
ENDCHAR
STARTCHAR 0034
ENCODING 52
SWIDTH 480 0
DWIDTH 10 0
BBX 9 14 1 0
BITMAP
0200
0600
0E00
1600
1600
2600
4600
8600
8600
FF80
FF80
0600
0600
0600
ENDCHAR
STARTCHAR 0035
ENCODING 53
SWIDTH 480 0
DWIDTH 10 0
BBX 9 14 1 0
BITMAP
3F80
3F00
7F00
4000
7000
FC00
FF00
1F00
0780
0380
0100
0100
E200
FC00
ENDCHAR
STARTCHAR 0036
ENCODING 54
SWIDTH 480 0
DWIDTH 10 0
BBX 9 14 1 0
BITMAP
0700
1C00
3800
7000
6000
EE00
F700
E700
E380
E380
E380
E300
6300
3E00
ENDCHAR
STARTCHAR 0037
ENCODING 55
SWIDTH 480 0
DWIDTH 10 0
BBX 9 14 1 0
BITMAP
7F80
FF00
FF00
8300
0300
0200
0600
0600
0400
0C00
0C00
0800
1800
1800
ENDCHAR
STARTCHAR 0038
ENCODING 56
SWIDTH 480 0
DWIDTH 10 0
BBX 9 14 1 0
BITMAP
3E00
6300
E300
E300
F300
7E00
7C00
3F00
6F00
C780
C380
C380
E300
7E00
ENDCHAR
STARTCHAR 0039
ENCODING 57
SWIDTH 480 0
DWIDTH 10 0
BBX 9 14 1 0
BITMAP
3C00
6600
E700
E700
E380
E380
E380
E700
7F00
0700
0600
0C00
1800
6000
ENDCHAR
STARTCHAR 003A
ENCODING 58
SWIDTH 336 0
DWIDTH 7 0
BBX 3 10 2 0
BITMAP
40
E0
E0
40
00
00
00
E0
E0
E0
ENDCHAR
STARTCHAR 003B
ENCODING 59
SWIDTH 336 0
DWIDTH 7 0
BBX 3 14 2 -4
BITMAP
40
E0
E0
40
00
00
00
E0
E0
E0
20
20
40
80
ENDCHAR
STARTCHAR 003C
ENCODING 60
SWIDTH 576 0
DWIDTH 12 0
BBX 12 10 0 2
BITMAP
0010
00F0
0380
1E00
7800
F000
1C00
0780
00E0
0030
ENDCHAR
STARTCHAR 003D
ENCODING 61
SWIDTH 576 0
DWIDTH 12 0
BBX 12 4 0 5
BITMAP
FFF0
0000
0000
FFF0
ENDCHAR
STARTCHAR 003E
ENCODING 62
SWIDTH 576 0
DWIDTH 12 0
BBX 12 10 0 2
BITMAP
8000
F000
1C00
0780
01E0
00F0
0380
1E00
7000
C000
ENDCHAR
STARTCHAR 003F
ENCODING 63
SWIDTH 480 0
DWIDTH 10 0
BBX 8 14 1 0
BITMAP
3E
47
E7
E7
07
06
0C
08
10
00
00
18
38
38
ENDCHAR
STARTCHAR 0040
ENCODING 64
SWIDTH 912 0
DWIDTH 19 0
BBX 18 18 1 -4
BITMAP
03F800
0C0600
100100
200100
60C080
41B880
C33880
873880
863080
8E7080
8E7100
8EE100
8F6240
4E7C80
400080
200100
100200
0FFC00
ENDCHAR
STARTCHAR 0041
ENCODING 65
SWIDTH 720 0
DWIDTH 15 0
BBX 13 14 1 0
BITMAP
0200
0200
0700
0700
0F80
0B80
13C0
11C0
11C0
3FE0
20E0
40F0
4070
E0F8
ENDCHAR
STARTCHAR 0042
ENCODING 66
SWIDTH 672 0
DWIDTH 14 0
BBX 13 14 0 0
BITMAP
FFC0
3CF0
3C70
3C78
3C70
3C70
3FC0
3CF0
3C78
3C78
3C38
3C78
3C70
7FE0
ENDCHAR
STARTCHAR 0043
ENCODING 67
SWIDTH 720 0
DWIDTH 15 0
BBX 13 14 1 0
BITMAP
0FC8
1C38
3808
7008
F008
F000
E000
E000
F000
F000
7000
7008
3810
0FE0
ENDCHAR
STARTCHAR 0044
ENCODING 68
SWIDTH 720 0
DWIDTH 15 0
BBX 14 14 0 0
BITMAP
FF80
3CF0
3C78
3C38
3C3C
3C3C
3C3C
3C3C
3C3C
3C3C
3C38
3C38
3C70
7FC0
ENDCHAR
STARTCHAR 0045
ENCODING 69
SWIDTH 672 0
DWIDTH 14 0
BBX 13 14 0 0
BITMAP
FFF0
3C30
3C10
3C10
3C80
3C80
3D80
3F80
3C80
3C80
3C08
3C08
3C18
7FF0
ENDCHAR
STARTCHAR 0046
ENCODING 70
SWIDTH 624 0
DWIDTH 13 0
BBX 12 14 0 0
BITMAP
FFF0
3C30
3C10
3C10
3C00
3C80
3D80
3F80
3C80
3C80
3C00
3C00
3C00
7E00
ENDCHAR
STARTCHAR 0047
ENCODING 71
SWIDTH 768 0
DWIDTH 16 0
BBX 15 14 1 0
BITMAP
0FE8
1818
3808
7008
F000
F000
F000
F000
F0FE
F038
7038
7038
3838
0FF0
ENDCHAR
STARTCHAR 0048
ENCODING 72
SWIDTH 768 0
DWIDTH 16 0
BBX 16 14 0 0
BITMAP
FF7F
3C1C
3C1C
3C1C
3C1C
3C1C
3FFC
3C1C
3C1C
3C1C
3C1C
3C1C
3C1C
7E3E
ENDCHAR
STARTCHAR 0049
ENCODING 73
SWIDTH 384 0
DWIDTH 8 0
BBX 8 14 0 0
BITMAP
FF
3C
3C
3C
3C
3C
3C
3C
3C
3C
3C
3C
3C
7E
ENDCHAR
STARTCHAR 004A
ENCODING 74
SWIDTH 480 0
DWIDTH 10 0
BBX 10 14 0 0
BITMAP
1FC0
0700
0700
0700
0700
0700
0700
0700
0700
0700
E700
E700
6700
7E00
ENDCHAR
STARTCHAR 004B
ENCODING 75
SWIDTH 768 0
DWIDTH 16 0
BBX 16 14 0 0
BITMAP
FE3F
3C0C
3C10
3C20
3C40
3D80
3F80
3FC0
3DE0
3CF0
3C78
3C78
3C3C
7C3F
ENDCHAR
STARTCHAR 004C
ENCODING 76
SWIDTH 672 0
DWIDTH 14 0
BBX 13 14 0 0
BITMAP
FF00
3C00
3C00
3C00
3C00
3C00
3C00
3C00
3C00
3C00
3C08
3C08
3C18
7FF8
ENDCHAR
STARTCHAR 004D
ENCODING 77
SWIDTH 960 0
DWIDTH 20 0
BBX 19 14 0 0
BITMAP
FC03E0
3E0780
2E0780
2E0B80
2F0B80
271380
279380
23A380
23E380
21E380
21C380
21C380
208380
7087C0
ENDCHAR
STARTCHAR 004E
ENCODING 78
SWIDTH 720 0
DWIDTH 15 0
BBX 15 14 0 0
BITMAP
F83E
3C08
3E08
2F08
2F88
2788
23C8
21E8
20F8
20F8
2078
2038
2018
7008
ENDCHAR
STARTCHAR 004F
ENCODING 79
SWIDTH 768 0
DWIDTH 16 0
BBX 14 14 1 0
BITMAP
0FC0
3870
7038
703C
F01C
F01C
E01C
E01C
F01C
F01C
703C
7038
3870
1FE0
ENDCHAR
STARTCHAR 0050
ENCODING 80
SWIDTH 624 0
DWIDTH 13 0
BBX 11 14 1 0
BITMAP
FF00
79C0
78E0
78E0
78E0
79E0
79C0
7F00
7800
7800
7800
7800
7800
7C00
ENDCHAR
STARTCHAR 0051
ENCODING 81
SWIDTH 768 0
DWIDTH 16 0
BBX 14 18 1 -4
BITMAP
0FC0
3870
7038
703C
F01C
F01C
E01C
E01C
F01C
F01C
703C
7038
3870
0CE0
0380
03C0
01E0
0078
ENDCHAR
STARTCHAR 0052
ENCODING 82
SWIDTH 720 0
DWIDTH 15 0
BBX 15 14 0 0
BITMAP
FFC0
3C70
3C78
3C38
3C38
3C78
3C70
3FC0
3DE0
3CE0
3CF0
3C78
3C3C
7C1E
ENDCHAR
STARTCHAR 0053
ENCODING 83
SWIDTH 576 0
DWIDTH 12 0
BBX 10 14 1 0
BITMAP
3E80
6180
C080
E080
F000
FC00
7F00
3F80
0F80
83C0
81C0
81C0
C180
FF00
ENDCHAR
STARTCHAR 0054
ENCODING 84
SWIDTH 672 0
DWIDTH 14 0
BBX 12 14 1 0
BITMAP
FFF0
8F30
8F10
0F00
0F00
0F00
0F00
0F00
0F00
0F00
0F00
0F00
0F00
1F80
ENDCHAR
STARTCHAR 0055
ENCODING 85
SWIDTH 720 0
DWIDTH 15 0
BBX 15 14 0 0
BITMAP
FF3E
3C08
3C08
3C08
3C08
3C08
3C08
3C08
3C08
3C08
3C08
1C10
1C10
0FE0
ENDCHAR
STARTCHAR 0056
ENCODING 86
SWIDTH 720 0
DWIDTH 15 0
BBX 15 14 0 0
BITMAP
FE3E
3808
3808
3C10
1C10
1E20
0E20
0F20
0740
0740
0780
0380
0300
0100
ENDCHAR
STARTCHAR 0057
ENCODING 87
SWIDTH 1008 0
DWIDTH 21 0
BBX 21 14 0 0
BITMAP
FDFC78
787820
383820
3C3820
1C3C40
1C3C40
1E5E40
0E4E80
0F8E80
078F00
078700
070700
030600
020200
ENDCHAR
STARTCHAR 0058
ENCODING 88
SWIDTH 720 0
DWIDTH 15 0
BBX 14 14 0 0
BITMAP
FE7C
3C10
1E10
1E20
0F40
0780
0780
03C0
03E0
05E0
08F0
1078
3078
707C
ENDCHAR
STARTCHAR 0059
ENCODING 89
SWIDTH 720 0
DWIDTH 15 0
BBX 15 14 0 0
BITMAP
FE1E
3C08
3C08
1E10
1E20
0F20
0740
07C0
0380
0380
0380
0380
0380
07C0
ENDCHAR
STARTCHAR 005A
ENCODING 90
SWIDTH 672 0
DWIDTH 14 0
BBX 12 14 1 0
BITMAP
7FF0
61E0
43C0
83C0
0780
0700
0F00
1E00
1E00
3C00
3810
7810
F030
FFF0
ENDCHAR
STARTCHAR 005B
ENCODING 91
SWIDTH 336 0
DWIDTH 7 0
BBX 4 18 2 -4
BITMAP
F0
C0
C0
C0
C0
C0
C0
C0
C0
C0
C0
C0
C0
C0
C0
C0
C0
F0
ENDCHAR
STARTCHAR 005C
ENCODING 92
SWIDTH 288 0
DWIDTH 6 0
BBX 6 14 0 0
BITMAP
80
40
40
40
60
20
20
30
10
10
18
08
08
0C
ENDCHAR
STARTCHAR 005D
ENCODING 93
SWIDTH 336 0
DWIDTH 7 0
BBX 4 18 1 -4
BITMAP
F0
70
70
70
70
70
70
70
70
70
70
70
70
70
70
70
70
F0
ENDCHAR
STARTCHAR 005E
ENCODING 94
SWIDTH 576 0
DWIDTH 12 0
BBX 8 7 2 7
BITMAP
18
18
3C
26
66
C3
81
ENDCHAR
STARTCHAR 005F
ENCODING 95
SWIDTH 480 0
DWIDTH 10 0
BBX 11 1 0 -4
BITMAP
FFE0
ENDCHAR
STARTCHAR 0060
ENCODING 96
SWIDTH 336 0
DWIDTH 7 0
BBX 3 3 1 11
BITMAP
E0
60
20
ENDCHAR
STARTCHAR 0061
ENCODING 97
SWIDTH 480 0
DWIDTH 10 0
BBX 9 10 1 0
BITMAP
1C00
6600
E700
E700
0F00
3700
6700
E700
FF00
F780
ENDCHAR
STARTCHAR 0062
ENCODING 98
SWIDTH 576 0
DWIDTH 12 0
BBX 11 14 0 0
BITMAP
F000
3000
3000
3000
3300
3DC0
31C0
30E0
30E0
30E0
30C0
30C0
31C0
2F80
ENDCHAR
STARTCHAR 0063
ENCODING 99
SWIDTH 432 0
DWIDTH 9 0
BBX 7 10 1 0
BITMAP
1C
66
66
E6
E0
E0
E0
E0
7A
3C
ENDCHAR
STARTCHAR 0064
ENCODING 100
SWIDTH 576 0
DWIDTH 12 0
BBX 10 14 1 0
BITMAP
0780
0380
0380
0380
3B80
7780
E380
E380
E380
E380
E380
E380
6380
7FC0
ENDCHAR
STARTCHAR 0065
ENCODING 101
SWIDTH 432 0
DWIDTH 9 0
BBX 8 10 1 0
BITMAP
18
66
E6
C7
FF
E0
E0
E1
72
7C
ENDCHAR
STARTCHAR 0066
ENCODING 102
SWIDTH 336 0
DWIDTH 7 0
BBX 7 14 1 0
BITMAP
1E
36
70
70
F8
70
70
70
70
70
70
70
70
70
ENDCHAR
STARTCHAR 0067
ENCODING 103
SWIDTH 480 0
DWIDTH 10 0
BBX 9 14 1 -4
BITMAP
3C00
6780
E700
E700
E700
E700
3C00
4000
C000
FF00
7F80
4380
8180
FF00
ENDCHAR
STARTCHAR 0068
ENCODING 104
SWIDTH 576 0
DWIDTH 12 0
BBX 9 14 1 0
BITMAP
F000
7000
7000
7000
7700
7F80
7380
7380
7380
7380
7380
7380
7380
F380
ENDCHAR
STARTCHAR 0069
ENCODING 105
SWIDTH 288 0
DWIDTH 6 0
BBX 5 14 0 0
BITMAP
30
78
30
00
F0
70
30
30
30
30
30
30
30
78
ENDCHAR
STARTCHAR 006A
ENCODING 106
SWIDTH 336 0
DWIDTH 7 0
BBX 6 18 -1 -4
BITMAP
1C
1C
1C
00
3C
1C
1C
1C
1C
1C
1C
1C
1C
1C
1C
1C
DC
78
ENDCHAR
STARTCHAR 006B
ENCODING 107
SWIDTH 576 0
DWIDTH 12 0
BBX 10 14 1 0
BITMAP
F000
7000
7000
7000
73C0
7100
7200
7400
7E00
7E00
7700
7780
7380
F3C0
ENDCHAR
STARTCHAR 006C
ENCODING 108
SWIDTH 288 0
DWIDTH 6 0
BBX 5 14 0 0
BITMAP
F0
30
30
30
30
30
30
30
30
30
30
30
30
78
ENDCHAR
STARTCHAR 006D
ENCODING 109
SWIDTH 816 0
DWIDTH 17 0
BBX 15 10 1 0
BITMAP
F71C
7FFC
738E
738E
738E
738E
738E
738E
738E
F3DE
ENDCHAR
STARTCHAR 006E
ENCODING 110
SWIDTH 576 0
DWIDTH 12 0
BBX 9 10 1 0
BITMAP
F700
7F80
7380
7380
7380
7380
7380
7380
7380
F380
ENDCHAR
STARTCHAR 006F
ENCODING 111
SWIDTH 480 0
DWIDTH 10 0
BBX 9 10 1 0
BITMAP
1C00
6600
E300
E300
E380
E380
E380
E300
6700
3E00
ENDCHAR
STARTCHAR 0070
ENCODING 112
SWIDTH 576 0
DWIDTH 12 0
BBX 11 14 0 -4
BITMAP
F300
77C0
39C0
30C0
30E0
30E0
30E0
30C0
39C0
3780
3000
3000
3000
7800
ENDCHAR
STARTCHAR 0071
ENCODING 113
SWIDTH 576 0
DWIDTH 12 0
BBX 9 14 1 -4
BITMAP
1C80
6380
6380
E380
E380
E380
E380
E380
E380
7F80
0380
0380
0380
0380
ENDCHAR
STARTCHAR 0072
ENCODING 114
SWIDTH 432 0
DWIDTH 9 0
BBX 8 10 1 0
BITMAP
F3
7F
7B
70
70
70
70
70
70
F0
ENDCHAR
STARTCHAR 0073
ENCODING 115
SWIDTH 384 0
DWIDTH 8 0
BBX 6 10 1 0
BITMAP
74
CC
C4
E0
F8
7C
3C
8C
8C
F8
ENDCHAR
STARTCHAR 0074
ENCODING 116
SWIDTH 336 0
DWIDTH 7 0
BBX 7 12 0 1
BITMAP
10
30
7E
BE
30
30
30
30
30
30
3A
3C
ENDCHAR
STARTCHAR 0075
ENCODING 117
SWIDTH 576 0
DWIDTH 12 0
BBX 9 10 1 0
BITMAP
F780
7380
7380
7380
7380
7380
7380
7380
7780
7B80
ENDCHAR
STARTCHAR 0076
ENCODING 118
SWIDTH 480 0
DWIDTH 10 0
BBX 10 10 0 0
BITMAP
F9C0
7080
3880
3900
3900
1D00
1E00
0E00
0C00
0400
ENDCHAR
STARTCHAR 0077
ENCODING 119
SWIDTH 720 0
DWIDTH 15 0
BBX 15 10 0 0
BITMAP
FBEE
71C4
31C8
3AE8
3AE8
1EF0
1C70
1C70
0C60
0820
ENDCHAR
STARTCHAR 0078
ENCODING 120
SWIDTH 480 0
DWIDTH 10 0
BBX 10 10 0 0
BITMAP
FFC0
3900
3A00
1E00
1C00
0E00
0F00
1700
2780
6380
ENDCHAR
STARTCHAR 0079
ENCODING 121
SWIDTH 480 0
DWIDTH 10 0
BBX 10 14 0 -4
BITMAP
F9C0
7080
3880
3900
3900
1D00
1E00
0E00
0C00
0400
0400
0800
6800
7000
ENDCHAR
STARTCHAR 007A
ENCODING 122
SWIDTH 432 0
DWIDTH 9 0
BBX 9 10 0 0
BITMAP
7F80
4700
8700
0E00
1E00
1C00
3800
3880
7080
FF80
ENDCHAR
STARTCHAR 007B
ENCODING 123
SWIDTH 384 0
DWIDTH 8 0
BBX 5 18 2 -4
BITMAP
18
30
60
60
70
30
30
60
C0
C0
60
30
30
70
60
60
20
18
ENDCHAR
STARTCHAR 007C
ENCODING 124
SWIDTH 240 0
DWIDTH 5 0
BBX 1 18 2 -4
BITMAP
80
80
80
80
80
80
80
80
80
80
80
80
80
80
80
80
80
80
ENDCHAR
STARTCHAR 007D
ENCODING 125
SWIDTH 384 0
DWIDTH 8 0
BBX 5 18 1 -4
BITMAP
C0
30
30
30
30
70
30
30
18
18
30
30
70
30
30
30
30
E0
ENDCHAR
STARTCHAR 007E
ENCODING 126
SWIDTH 528 0
DWIDTH 11 0
BBX 11 3 0 4
BITMAP
7820
CF20
83C0
ENDCHAR
STARTCHAR 00A0
ENCODING 160
SWIDTH 240 0
DWIDTH 5 0
BBX 0 0 0 0
BITMAP
ENDCHAR
STARTCHAR 00A1
ENCODING 161
SWIDTH 336 0
DWIDTH 7 0
BBX 3 14 2 -4
BITMAP
E0
E0
E0
00
00
40
40
40
40
E0
E0
E0
E0
E0
ENDCHAR
STARTCHAR 00A2
ENCODING 162
SWIDTH 480 0
DWIDTH 10 0
BBX 8 17 1 -4
BITMAP
01
02
02
02
1C
37
67
6B
E8
F0
F0
70
79
3E
40
40
40
ENDCHAR
STARTCHAR 00A3
ENCODING 163
SWIDTH 480 0
DWIDTH 10 0
BBX 10 14 0 0
BITMAP
0F00
1B80
3B80
3980
3800
3800
FF00
FF00
1C00
1C00
1800
7CC0
9FC0
7780
ENDCHAR
STARTCHAR 00A4
ENCODING 164
SWIDTH 480 0
DWIDTH 10 0
BBX 9 10 1 2
BITMAP
0080
BF80
4300
8100
8180
8180
8100
C300
FF00
9880
ENDCHAR
STARTCHAR 00A5
ENCODING 165
SWIDTH 480 0
DWIDTH 10 0
BBX 10 14 0 0
BITMAP
F9C0
7080
7080
3880
3900
1D00
1D00
1E00
EFC0
0E00
FFC0
0E00
0E00
1F00
ENDCHAR
STARTCHAR 00A6
ENCODING 166
SWIDTH 240 0
DWIDTH 5 0
BBX 1 18 2 -4
BITMAP
80
80
80
80
80
80
80
00
00
00
00
80
80
80
80
80
80
80
ENDCHAR
STARTCHAR 00A7
ENCODING 167
SWIDTH 480 0
DWIDTH 10 0
BBX 8 18 1 -4
BITMAP
3E
62
67
62
70
3C
5E
CF
C3
C1
F1
7B
3C
1E
07
63
63
7E
ENDCHAR
STARTCHAR 00A8
ENCODING 168
SWIDTH 336 0
DWIDTH 7 0
BBX 7 3 0 11
BITMAP
6C
EE
44
ENDCHAR
STARTCHAR 00A9
ENCODING 169
SWIDTH 768 0
DWIDTH 16 0
BBX 14 14 1 0
BITMAP
0FC0
3020
4010
4FC8
9844
9804
B804
B804
9804
9804
8C88
4318
3030
1FC0
ENDCHAR
STARTCHAR 00AA
ENCODING 170
SWIDTH 288 0
DWIDTH 6 0
BBX 6 6 0 8
BITMAP
78
4C
1C
6C
CC
7C
ENDCHAR
STARTCHAR 00AB
ENCODING 171
SWIDTH 480 0
DWIDTH 10 0
BBX 9 9 1 0
BITMAP
1180
2100
6300
C600
CE00
6600
6300
3100
1080
ENDCHAR
STARTCHAR 00AC
ENCODING 172
SWIDTH 576 0
DWIDTH 12 0
BBX 12 4 0 5
BITMAP
FFF0
0030
0030
0030
ENDCHAR
STARTCHAR 00AD
ENCODING 173
SWIDTH 336 0
DWIDTH 7 0
BBX 5 2 1 4
BITMAP
F8
F8
ENDCHAR
STARTCHAR 00AE
ENCODING 174
SWIDTH 768 0
DWIDTH 16 0
BBX 14 14 1 0
BITMAP
0FC0
3020
4010
4F88
8CC4
8CC4
8CC4
8F84
8D84
8CC4
8CC8
4018
3030
1FC0
ENDCHAR
STARTCHAR 00AF
ENCODING 175
SWIDTH 480 0
DWIDTH 10 0
BBX 11 1 0 15
BITMAP
FFE0
ENDCHAR
STARTCHAR 00B0
ENCODING 176
SWIDTH 384 0
DWIDTH 8 0
BBX 7 7 1 7
BITMAP
78
CC
86
86
84
CC
78
ENDCHAR
STARTCHAR 00B1
ENCODING 177
SWIDTH 528 0
DWIDTH 11 0
BBX 11 11 0 1
BITMAP
0400
0400
0400
0400
FFE0
FFE0
0400
0400
0400
FFE0
FFE0
ENDCHAR
STARTCHAR 00B2
ENCODING 178
SWIDTH 288 0
DWIDTH 6 0
BBX 6 7 0 7
BITMAP
78
98
18
18
10
24
78
ENDCHAR
STARTCHAR 00B3
ENCODING 179
SWIDTH 288 0
DWIDTH 6 0
BBX 6 7 0 7
BITMAP
78
18
18
38
1C
08
F8
ENDCHAR
STARTCHAR 00B4
ENCODING 180
SWIDTH 336 0
DWIDTH 7 0
BBX 3 3 3 11
BITMAP
E0
C0
80
ENDCHAR
STARTCHAR 00B5
ENCODING 181
SWIDTH 576 0
DWIDTH 12 0
BBX 11 14 1 -4
BITMAP
6380
6380
6380
6380
6380
6380
6380
63A0
77C0
FBC0
C000
C000
C000
C000
ENDCHAR
STARTCHAR 00B6
ENCODING 182
SWIDTH 528 0
DWIDTH 11 0
BBX 11 18 0 -4
BITMAP
1FE0
7E80
7E80
FE80
FE80
FE80
FE80
7E80
3E80
0E80
0680
0680
0680
0680
0680
0680
0680
0680
ENDCHAR
STARTCHAR 00B7
ENCODING 183
SWIDTH 240 0
DWIDTH 5 0
BBX 3 4 1 5
BITMAP
40
E0
E0
60
ENDCHAR
STARTCHAR 00B8
ENCODING 184
SWIDTH 336 0
DWIDTH 7 0
BBX 4 4 1 -4
BITMAP
20
70
30
E0
ENDCHAR
STARTCHAR 00B9
ENCODING 185
SWIDTH 288 0
DWIDTH 6 0
BBX 2 7 2 7
BITMAP
C0
C0
C0
C0
C0
C0
C0
ENDCHAR
STARTCHAR 00BA
ENCODING 186
SWIDTH 336 0
DWIDTH 7 0
BBX 5 6 1 8
BITMAP
70
D8
D8
D8
D8
70
ENDCHAR
STARTCHAR 00BB
ENCODING 187
SWIDTH 480 0
DWIDTH 10 0
BBX 9 9 1 0
BITMAP
8C00
C600
6600
7300
3380
6300
4600
8400
8800
ENDCHAR
STARTCHAR 00BC
ENCODING 188
SWIDTH 768 0
DWIDTH 16 0
BBX 13 15 2 -1
BITMAP
C020
C060
C040
C080
C180
C100
C200
0610
0430
0850
1850
1090
20F8
6010
4000
ENDCHAR
STARTCHAR 00BD
ENCODING 189
SWIDTH 768 0
DWIDTH 16 0
BBX 13 15 2 -1
BITMAP
C020
C040
C0C0
C080
C100
C300
C200
0470
0CF8
0818
1010
3020
2040
40F8
C000
ENDCHAR
STARTCHAR 00BE
ENCODING 190
SWIDTH 768 0
DWIDTH 16 0
BBX 15 15 0 -1
BITMAP
7808
1818
1810
3820
1C60
0840
C880
3184
010C
0214
0614
0424
083E
1804
1000
ENDCHAR
STARTCHAR 00BF
ENCODING 191
SWIDTH 480 0
DWIDTH 10 0
BBX 8 14 1 -4
BITMAP
0C
1C
1C
00
00
08
08
10
30
60
E3
E3
E3
7E
ENDCHAR
STARTCHAR 00C0
ENCODING 192
SWIDTH 720 0
DWIDTH 15 0
BBX 13 19 1 0
BITMAP
1C00
0E00
0600
0200
0000
0200
0200
0700
0700
0F80
0B80
13C0
11C0
11C0
3FE0
20E0
40F0
4070
E0F8
ENDCHAR
STARTCHAR 00C1
ENCODING 193
SWIDTH 720 0
DWIDTH 15 0
BBX 13 19 1 0
BITMAP
03C0
0380
0300
0200
0000
0200
0200
0700
0700
0F80
0B80
13C0
11C0
11C0
3FE0
20E0
40F0
4070
E0F8
ENDCHAR
STARTCHAR 00C2
ENCODING 194
SWIDTH 720 0
DWIDTH 15 0
BBX 13 19 1 0
BITMAP
0700
0700
0D80
0880
0000
0200
0200
0700
0700
0F80
0B80
13C0
11C0
11C0
3FE0
20E0
40F0
4070
E0F8
ENDCHAR
STARTCHAR 00C3
ENCODING 195
SWIDTH 720 0
DWIDTH 15 0
BBX 13 18 1 0
BITMAP
0E40
1FC0
1380
0000
0200
0200
0700
0700
0F80
0B80
13C0
11C0
11C0
3FE0
20E0
40F0
4070
E0F8
ENDCHAR
STARTCHAR 00C4
ENCODING 196
SWIDTH 720 0
DWIDTH 15 0
BBX 13 18 1 0
BITMAP
0D80
1DC0
0C80
0000
0200
0200
0700
0700
0F80
0B80
13C0
11C0
11C0
3FE0
20E0
40F0
4070
E0F8
ENDCHAR
STARTCHAR 00C5
ENCODING 197
SWIDTH 720 0
DWIDTH 15 0
BBX 13 18 1 0
BITMAP
0200
0500
0880
0480
0300
0200
0700
0700
0F80
0B80
13C0
11C0
11C0
3FE0
20E0
40F0
4070
E0F8
ENDCHAR
STARTCHAR 00C6
ENCODING 198
SWIDTH 1008 0
DWIDTH 21 0
BBX 20 14 0 0
BITMAP
03FFE0
00B860
00B820
013820
023900
023900
043B00
07FF00
083900
103900
103810
203810
603820
E0FFE0
ENDCHAR
STARTCHAR 00C7
ENCODING 199
SWIDTH 720 0
DWIDTH 15 0
BBX 13 18 1 -4
BITMAP
0FC8
1C38
3808
7008
F008
F000
E000
E000
F000
F000
7000
7008
3810
0FE0
0200
0300
0180
0700
ENDCHAR
STARTCHAR 00C8
ENCODING 200
SWIDTH 672 0
DWIDTH 14 0
BBX 13 19 0 0
BITMAP
0E00
0600
0300
0100
0000
FFF0
3C30
3C10
3C10
3C80
3C80
3D80
3F80
3C80
3C80
3C08
3C08
3C18
7FF0
ENDCHAR
STARTCHAR 00C9
ENCODING 201
SWIDTH 672 0
DWIDTH 14 0
BBX 13 19 0 0
BITMAP
01C0
0180
0300
0200
0000
FFF0
3C30
3C10
3C10
3C80
3C80
3D80
3F80
3C80
3C80
3C08
3C08
3C18
7FF0
ENDCHAR
STARTCHAR 00CA
ENCODING 202
SWIDTH 672 0
DWIDTH 14 0
BBX 13 19 0 0
BITMAP
0300
0780
0780
08C0
0000
FFF0
3C30
3C10
3C10
3C80
3C80
3D80
3F80
3C80
3C80
3C08
3C08
3C18
7FF0
ENDCHAR
STARTCHAR 00CB
ENCODING 203
SWIDTH 672 0
DWIDTH 14 0
BBX 13 18 0 0
BITMAP
0CC0
0CC0
0CC0
0000
FFF0
3C30
3C10
3C10
3C80
3C80
3D80
3F80
3C80
3C80
3C08
3C08
3C18
7FF0
ENDCHAR
STARTCHAR 00CC
ENCODING 204
SWIDTH 384 0
DWIDTH 8 0
BBX 8 19 0 0
BITMAP
70
30
18
08
00
FF
3C
3C
3C
3C
3C
3C
3C
3C
3C
3C
3C
3C
7E
ENDCHAR
STARTCHAR 00CD
ENCODING 205
SWIDTH 384 0
DWIDTH 8 0
BBX 8 19 0 0
BITMAP
0E
0C
18
10
00
FF
3C
3C
3C
3C
3C
3C
3C
3C
3C
3C
3C
3C
7E
ENDCHAR
STARTCHAR 00CE
ENCODING 206
SWIDTH 384 0
DWIDTH 8 0
BBX 8 19 0 0
BITMAP
18
3C
3C
66
00
FF
3C
3C
3C
3C
3C
3C
3C
3C
3C
3C
3C
3C
7E
ENDCHAR
STARTCHAR 00CF
ENCODING 207
SWIDTH 384 0
DWIDTH 8 0
BBX 8 18 0 0
BITMAP
66
66
66
00
FF
3C
3C
3C
3C
3C
3C
3C
3C
3C
3C
3C
3C
7E
ENDCHAR
STARTCHAR 00D0
ENCODING 208
SWIDTH 720 0
DWIDTH 15 0
BBX 14 14 0 0
BITMAP
FF80
3CF0
3C78
3C38
3C3C
3C3C
FF9C
3C1C
3C1C
3C3C
3C38
3C38
3C70
7FC0
ENDCHAR
STARTCHAR 00D1
ENCODING 209
SWIDTH 720 0
DWIDTH 15 0
BBX 15 18 0 0
BITMAP
0720
0FE0
09C0
0000
F83E
3C08
3E08
2F08
2F88
2788
23C8
21E8
20F8
20F8
2078
2038
2018
7008
ENDCHAR
STARTCHAR 00D2
ENCODING 210
SWIDTH 768 0
DWIDTH 16 0
BBX 14 19 1 0
BITMAP
0E00
0600
0300
0100
0000
0FC0
3870
7038
703C
F01C
F01C
E01C
E01C
F01C
F01C
703C
7038
3870
1FE0
ENDCHAR
STARTCHAR 00D3
ENCODING 211
SWIDTH 768 0
DWIDTH 16 0
BBX 14 19 1 0
BITMAP
01C0
0180
0300
0200
0000
0FC0
3870
7038
703C
F01C
F01C
E01C
E01C
F01C
F01C
703C
7038
3870
1FE0
ENDCHAR
STARTCHAR 00D4
ENCODING 212
SWIDTH 768 0
DWIDTH 16 0
BBX 14 19 1 0
BITMAP
0300
0780
0780
0C40
0000
0FC0
3870
7038
703C
F01C
F01C
E01C
E01C
F01C
F01C
703C
7038
3870
1FE0
ENDCHAR
STARTCHAR 00D5
ENCODING 213
SWIDTH 768 0
DWIDTH 16 0
BBX 14 18 1 0
BITMAP
0600
0FC0
09C0
0000
0FC0
3870
7038
703C
F01C
F01C
E01C
E01C
F01C
F01C
703C
7038
3870
1FE0
ENDCHAR
STARTCHAR 00D6
ENCODING 214
SWIDTH 768 0
DWIDTH 16 0
BBX 14 18 1 0
BITMAP
0CC0
0EC0
0CC0
0000
0FC0
3870
7038
703C
F01C
F01C
E01C
E01C
F01C
F01C
703C
7038
3870
1FE0
ENDCHAR
STARTCHAR 00D7
ENCODING 215
SWIDTH 576 0
DWIDTH 12 0
BBX 8 8 2 3
BITMAP
81
C3
66
3C
18
3C
66
C3
ENDCHAR
STARTCHAR 00D8
ENCODING 216
SWIDTH 768 0
DWIDTH 16 0
BBX 14 15 1 -1
BITMAP
0FC8
3878
7038
703C
F05C
F09C
E11C
E21C
F21C
F41C
783C
7038
3870
4CE0
0300
ENDCHAR
STARTCHAR 00D9
ENCODING 217
SWIDTH 720 0
DWIDTH 15 0
BBX 15 19 0 0
BITMAP
0700
0300
0100
0080
0000
FF3E
3C08
3C08
3C08
3C08
3C08
3C08
3C08
3C08
3C08
3C08
1C10
1C10
0FE0
ENDCHAR
STARTCHAR 00DA
ENCODING 218
SWIDTH 720 0
DWIDTH 15 0
BBX 15 19 0 0
BITMAP
01C0
0180
0100
0200
0000
FF3E
3C08
3C08
3C08
3C08
3C08
3C08
3C08
3C08
3C08
3C08
1C10
1C10
0FE0
ENDCHAR
STARTCHAR 00DB
ENCODING 219
SWIDTH 720 0
DWIDTH 15 0
BBX 15 19 0 0
BITMAP
0180
03C0
03C0
0460
0000
FF3E
3C08
3C08
3C08
3C08
3C08
3C08
3C08
3C08
3C08
3C08
1C10
1C10
0FE0
ENDCHAR
STARTCHAR 00DC
ENCODING 220
SWIDTH 720 0
DWIDTH 15 0
BBX 15 18 0 0
BITMAP
06C0
0EE0
0640
0000
FF3E
3C08
3C08
3C08
3C08
3C08
3C08
3C08
3C08
3C08
3C08
1C10
1C10
0FE0
ENDCHAR
STARTCHAR 00DD
ENCODING 221
SWIDTH 720 0
DWIDTH 15 0
BBX 15 19 0 0
BITMAP
00E0
00C0
0180
0100
0000
FE1E
3C08
3C08
1E10
1E20
0F20
0740
07C0
0380
0380
0380
0380
0380
07C0
ENDCHAR
STARTCHAR 00DE
ENCODING 222
SWIDTH 624 0
DWIDTH 13 0
BBX 12 14 0 0
BITMAP
FE00
3C00
3C00
3F80
3CE0
3CF0
3C70
3C70
3CF0
3CE0
3FC0
3C00
3C00
7C00
ENDCHAR
STARTCHAR 00DF
ENCODING 223
SWIDTH 576 0
DWIDTH 12 0
BBX 10 14 1 0
BITMAP
3F00
7380
6380
6380
6380
6600
6380
6180
6180
61C0
61C0
6180
6D80
E700
ENDCHAR
STARTCHAR 00E0
ENCODING 224
SWIDTH 480 0
DWIDTH 10 0
BBX 9 14 1 0
BITMAP
3000
1800
0800
0000
1C00
6600
E700
E700
0F00
3700
6700
E700
FF00
F780
ENDCHAR
STARTCHAR 00E1
ENCODING 225
SWIDTH 480 0
DWIDTH 10 0
BBX 9 14 1 0
BITMAP
0E00
0C00
1800
0000
1C00
6600
E700
E700
0F00
3700
6700
E700
FF00
F780
ENDCHAR
STARTCHAR 00E2
ENCODING 226
SWIDTH 480 0
DWIDTH 10 0
BBX 9 15 1 0
BITMAP
1800
1C00
3400
6200
0000
1C00
6600
E700
E700
0F00
3700
6700
E700
FF00
F780
ENDCHAR
STARTCHAR 00E3
ENCODING 227
SWIDTH 480 0
DWIDTH 10 0
BBX 9 14 1 0
BITMAP
3800
7E00
4E00
0000
1C00
6600
E700
E700
0F00
3700
6700
E700
FF00
F780
ENDCHAR
STARTCHAR 00E4
ENCODING 228
SWIDTH 480 0
DWIDTH 10 0
BBX 9 14 1 0
BITMAP
6600
7600
6600
0000
1C00
6600
E700
E700
0F00
3700
6700
E700
FF00
F780
ENDCHAR
STARTCHAR 00E5
ENCODING 229
SWIDTH 480 0
DWIDTH 10 0
BBX 9 15 1 0
BITMAP
1800
2400
2400
2400
1800
1C00
6600
E700
E700
0F00
3700
6700
E700
FF00
F780
ENDCHAR
STARTCHAR 00E6
ENCODING 230
SWIDTH 720 0
DWIDTH 15 0
BBX 13 10 1 0
BITMAP
3CE0
47B0
E718
E718
0FF8
3700
6700
E380
E7C8
F9F0
ENDCHAR
STARTCHAR 00E7
ENCODING 231
SWIDTH 432 0
DWIDTH 9 0
BBX 7 14 1 -4
BITMAP
1C
66
66
E6
E0
E0
E0
E0
7A
3C
10
18
08
38
ENDCHAR
STARTCHAR 00E8
ENCODING 232
SWIDTH 432 0
DWIDTH 9 0
BBX 8 14 1 0
BITMAP
70
18
08
00
18
66
E6
C7
FF
E0
E0
E1
72
7C
ENDCHAR
STARTCHAR 00E9
ENCODING 233
SWIDTH 432 0
DWIDTH 9 0
BBX 8 14 1 0
BITMAP
1C
18
10
00
18
66
E6
C7
FF
E0
E0
E1
72
7C
ENDCHAR
STARTCHAR 00EA
ENCODING 234
SWIDTH 432 0
DWIDTH 9 0
BBX 8 15 1 0
BITMAP
18
38
6C
44
00
18
66
E6
C7
FF
E0
E0
E1
72
7C
ENDCHAR
STARTCHAR 00EB
ENCODING 235
SWIDTH 432 0
DWIDTH 9 0
BBX 8 14 1 0
BITMAP
66
6E
66
00
18
66
E6
C7
FF
E0
E0
E1
72
7C
ENDCHAR
STARTCHAR 00EC
ENCODING 236
SWIDTH 288 0
DWIDTH 6 0
BBX 5 14 0 0
BITMAP
E0
20
30
00
F0
70
30
30
30
30
30
30
30
78
ENDCHAR
STARTCHAR 00ED
ENCODING 237
SWIDTH 288 0
DWIDTH 6 0
BBX 6 14 0 0
BITMAP
1C
30
20
00
F0
70
30
30
30
30
30
30
30
78
ENDCHAR
STARTCHAR 00EE
ENCODING 238
SWIDTH 288 0
DWIDTH 6 0
BBX 6 15 0 0
BITMAP
30
78
78
8C
00
F0
70
30
30
30
30
30
30
30
78
ENDCHAR
STARTCHAR 00EF
ENCODING 239
SWIDTH 288 0
DWIDTH 6 0
BBX 6 14 0 0
BITMAP
CC
CC
CC
00
F0
70
30
30
30
30
30
30
30
78
ENDCHAR
STARTCHAR 00F0
ENCODING 240
SWIDTH 480 0
DWIDTH 10 0
BBX 9 14 1 0
BITMAP
2200
1C00
3C00
4600
0600
7F00
E300
E380
E380
E380
E300
E300
6700
3E00
ENDCHAR
STARTCHAR 00F1
ENCODING 241
SWIDTH 576 0
DWIDTH 12 0
BBX 9 14 1 0
BITMAP
3900
3F00
4E00
0000
F700
7F80
7380
7380
7380
7380
7380
7380
7380
F380
ENDCHAR
STARTCHAR 00F2
ENCODING 242
SWIDTH 480 0
DWIDTH 10 0
BBX 9 14 1 0
BITMAP
3000
1800
0800
0000
1C00
6600
E300
E300
E380
E380
E380
E300
6700
3E00
ENDCHAR
STARTCHAR 00F3
ENCODING 243
SWIDTH 480 0
DWIDTH 10 0
BBX 9 14 1 0
BITMAP
0E00
0C00
1800
0000
1C00
6600
E300
E300
E380
E380
E380
E300
6700
3E00
ENDCHAR
STARTCHAR 00F4
ENCODING 244
SWIDTH 480 0
DWIDTH 10 0
BBX 9 15 1 0
BITMAP
1800
1C00
3C00
6200
0000
1C00
6600
E300
E300
E380
E380
E380
E300
6700
3E00
ENDCHAR
STARTCHAR 00F5
ENCODING 245
SWIDTH 480 0
DWIDTH 10 0
BBX 9 14 1 0
BITMAP
3800
7E00
4E00
0000
1C00
6600
E300
E300
E380
E380
E380
E300
6700
3E00
ENDCHAR
STARTCHAR 00F6
ENCODING 246
SWIDTH 480 0
DWIDTH 10 0
BBX 9 14 1 0
BITMAP
6600
7600
6600
0000
1C00
6600
E300
E300
E380
E380
E380
E300
6700
3E00
ENDCHAR
STARTCHAR 00F7
ENCODING 247
SWIDTH 528 0
DWIDTH 11 0
BBX 11 8 0 3
BITMAP
0600
0400
0000
FFE0
FFE0
0000
0400
0600
ENDCHAR
STARTCHAR 00F8
ENCODING 248
SWIDTH 480 0
DWIDTH 10 0
BBX 9 10 1 0
BITMAP
1C80
6700
6300
E780
EB80
F380
E380
E300
6300
BE00
ENDCHAR
STARTCHAR 00F9
ENCODING 249
SWIDTH 576 0
DWIDTH 12 0
BBX 9 14 1 0
BITMAP
3800
1800
0C00
0000
F780
7380
7380
7380
7380
7380
7380
7380
7780
7B80
ENDCHAR
STARTCHAR 00FA
ENCODING 250
SWIDTH 576 0
DWIDTH 12 0
BBX 9 14 1 0
BITMAP
0600
0C00
0800
0000
F780
7380
7380
7380
7380
7380
7380
7380
7780
7B80
ENDCHAR
STARTCHAR 00FB
ENCODING 251
SWIDTH 576 0
DWIDTH 12 0
BBX 9 15 1 0
BITMAP
0C00
1C00
3E00
2300
0000
F780
7380
7380
7380
7380
7380
7380
7380
7780
7B80
ENDCHAR
STARTCHAR 00FC
ENCODING 252
SWIDTH 576 0
DWIDTH 12 0
BBX 9 14 1 0
BITMAP
3300
3700
3300
0000
F780
7380
7380
7380
7380
7380
7380
7380
7780
7B80
ENDCHAR
STARTCHAR 00FD
ENCODING 253
SWIDTH 480 0
DWIDTH 10 0
BBX 10 18 0 -4
BITMAP
0300
0600
0400
0000
F9C0
7080
3880
3900
3900
1D00
1E00
0E00
0C00
0400
0400
0800
6800
7000
ENDCHAR
STARTCHAR 00FE
ENCODING 254
SWIDTH 576 0
DWIDTH 12 0
BBX 10 18 1 -4
BITMAP
E000
6000
6000
6000
6600
6F80
7380
6180
61C0
61C0
61C0
6180
7380
6F00
6000
6000
6000
E000
ENDCHAR
STARTCHAR 00FF
ENCODING 255
SWIDTH 480 0
DWIDTH 10 0
BBX 10 18 0 -4
BITMAP
1B00
3B80
1100
0000
F9C0
7080
3880
3900
3900
1D00
1E00
0E00
0C00
0400
0400
0800
6800
7000
ENDCHAR
STARTCHAR 0100
ENCODING 256
SWIDTH 720 0
DWIDTH 15 0
BBX 13 17 1 0
BITMAP
1FC0
1FC0
0000
0200
0200
0700
0700
0F80
0B80
13C0
11C0
11C0
3FE0
20E0
40F0
4070
E0F8
ENDCHAR
STARTCHAR 0101
ENCODING 257
SWIDTH 480 0
DWIDTH 10 0
BBX 9 13 1 0
BITMAP
7E00
7E00
0000
1C00
6600
E700
E700
0F00
3700
6700
E700
FF00
F780
ENDCHAR
STARTCHAR 0102
ENCODING 258
SWIDTH 720 0
DWIDTH 15 0
BBX 13 18 1 0
BITMAP
0880
0F80
0700
0000
0200
0200
0700
0700
0F80
0B80
13C0
11C0
11C0
3FE0
20E0
40F0
4070
E0F8
ENDCHAR
STARTCHAR 0103
ENCODING 259
SWIDTH 480 0
DWIDTH 10 0
BBX 9 14 1 0
BITMAP
4200
3E00
1C00
0000
1C00
6600
E700
E700
0F00
3700
6700
E700
FF00
F780
ENDCHAR
STARTCHAR 0104
ENCODING 260
SWIDTH 720 0
DWIDTH 15 0
BBX 13 19 1 -5
BITMAP
0200
0200
0700
0700
0F80
0B80
13C0
11C0
11C0
3FE0
20E0
40F0
4070
E0F8
0020
0060
0060
0070
0038
ENDCHAR
STARTCHAR 0105
ENCODING 261
SWIDTH 480 0
DWIDTH 10 0
BBX 9 15 1 -5
BITMAP
1C00
6600
E700
E700
0F00
3700
6700
E700
FF00
F780
0600
0400
0600
0700
0380
ENDCHAR
STARTCHAR 0106
ENCODING 262
SWIDTH 720 0
DWIDTH 15 0
BBX 13 19 1 0
BITMAP
01C0
0180
0100
0200
0000
0FC8
1C38
3808
7008
F008
F000
E000
E000
F000
F000
7000
7008
3810
0FE0
ENDCHAR
STARTCHAR 0107
ENCODING 263
SWIDTH 432 0
DWIDTH 9 0
BBX 7 14 1 0
BITMAP
0E
18
10
00
1C
66
66
E6
E0
E0
E0
E0
7A
3C
ENDCHAR
STARTCHAR 0108
ENCODING 264
SWIDTH 720 0
DWIDTH 15 0
BBX 13 19 1 0
BITMAP
0300
0780
0CC0
0840
0000
0FC8
1C38
3808
7008
F008
F000
E000
E000
F000
F000
7000
7008
3810
0FE0
ENDCHAR
STARTCHAR 0109
ENCODING 265
SWIDTH 432 0
DWIDTH 9 0
BBX 7 15 1 0
BITMAP
18
3C
3C
46
00
1C
66
66
E6
E0
E0
E0
E0
7A
3C
ENDCHAR
STARTCHAR 010A
ENCODING 266
SWIDTH 720 0
DWIDTH 15 0
BBX 13 18 1 0
BITMAP
0300
0700
0300
0000
0FC8
1C38
3808
7008
F008
F000
E000
E000
F000
F000
7000
7008
3810
0FE0
ENDCHAR
STARTCHAR 010B
ENCODING 267
SWIDTH 432 0
DWIDTH 9 0
BBX 7 14 1 0
BITMAP
18
38
18
00
1C
66
66
E6
E0
E0
E0
E0
7A
3C
ENDCHAR
STARTCHAR 010C
ENCODING 268
SWIDTH 720 0
DWIDTH 15 0
BBX 13 19 1 0
BITMAP
0820
0440
0780
0380
0000
0FC8
1C38
3808
7008
F008
F000
E000
E000
F000
F000
7000
7008
3810
0FE0
ENDCHAR
STARTCHAR 010D
ENCODING 269
SWIDTH 432 0
DWIDTH 9 0
BBX 7 15 1 0
BITMAP
40
22
3C
1C
00
1C
66
66
E6
E0
E0
E0
E0
7A
3C
ENDCHAR
STARTCHAR 010E
ENCODING 270
SWIDTH 720 0
DWIDTH 15 0
BBX 14 19 0 0
BITMAP
0800
04C0
0780
0380
0000
FF80
3CF0
3C78
3C38
3C3C
3C3C
3C3C
3C3C
3C3C
3C3C
3C38
3C38
3C70
7FC0
ENDCHAR
STARTCHAR 010F
ENCODING 271
SWIDTH 720 0
DWIDTH 15 0
BBX 14 14 1 0
BITMAP
0798
03BC
03BC
0384
3B8C
7788
E390
E380
E380
E380
E380
E380
6380
7FC0
ENDCHAR
STARTCHAR 0110
ENCODING 272
SWIDTH 720 0
DWIDTH 15 0
BBX 14 14 0 0
BITMAP
FF80
3CF0
3C78
3C38
3C3C
3C3C
FF9C
3C1C
3C1C
3C3C
3C38
3C38
3C70
7FC0
ENDCHAR
STARTCHAR 0111
ENCODING 273
SWIDTH 576 0
DWIDTH 12 0
BBX 10 14 1 0
BITMAP
0780
0380
1FC0
0380
3B80
7780
E380
E380
E380
E380
E380
E380
6380
7FC0
ENDCHAR
STARTCHAR 0112
ENCODING 274
SWIDTH 672 0
DWIDTH 14 0
BBX 13 17 0 0
BITMAP
0FC0
0FC0
0000
FFF0
3C30
3C10
3C10
3C80
3C80
3D80
3F80
3C80
3C80
3C08
3C08
3C18
7FF0
ENDCHAR
STARTCHAR 0113
ENCODING 275
SWIDTH 432 0
DWIDTH 9 0
BBX 8 13 1 0
BITMAP
FE
FE
00
18
66
E6
C7
FF
E0
E0
E1
72
7C
ENDCHAR
STARTCHAR 0114
ENCODING 276
SWIDTH 672 0
DWIDTH 14 0
BBX 13 18 0 0
BITMAP
0840
0780
0300
0000
FFF0
3C30
3C10
3C10
3C80
3C80
3D80
3F80
3C80
3C80
3C08
3C08
3C18
7FF0
ENDCHAR
STARTCHAR 0115
ENCODING 277
SWIDTH 432 0
DWIDTH 9 0
BBX 8 14 1 0
BITMAP
42
7C
3C
00
18
66
E6
C7
FF
E0
E0
E1
72
7C
ENDCHAR
STARTCHAR 0116
ENCODING 278
SWIDTH 672 0
DWIDTH 14 0
BBX 13 18 0 0
BITMAP
0300
0700
0300
0000
FFF0
3C30
3C10
3C10
3C80
3C80
3D80
3F80
3C80
3C80
3C08
3C08
3C18
7FF0
ENDCHAR
STARTCHAR 0117
ENCODING 279
SWIDTH 432 0
DWIDTH 9 0
BBX 8 14 1 0
BITMAP
18
38
18
00
18
66
E6
C7
FF
E0
E0
E1
72
7C
ENDCHAR
STARTCHAR 0118
ENCODING 280
SWIDTH 672 0
DWIDTH 14 0
BBX 13 19 0 -5
BITMAP
FFF0
3C30
3C10
3C10
3C80
3C80
3D80
3F80
3C80
3C80
3C08
3C08
3C18
3FF0
4040
00C0
00C0
00E0
0030
ENDCHAR
STARTCHAR 0119
ENCODING 281
SWIDTH 432 0
DWIDTH 9 0
BBX 8 15 1 -5
BITMAP
18
66
E6
C7
FF
E0
E0
E1
72
7C
10
30
30
38
0C
ENDCHAR
STARTCHAR 011A
ENCODING 282
SWIDTH 672 0
DWIDTH 14 0
BBX 13 19 0 0
BITMAP
1040
0880
0780
0700
0000
FFF0
3C30
3C10
3C10
3C80
3C80
3D80
3F80
3C80
3C80
3C08
3C08
3C18
7FF0
ENDCHAR
STARTCHAR 011B
ENCODING 283
SWIDTH 432 0
DWIDTH 9 0
BBX 8 15 1 0
BITMAP
40
66
3C
3C
00
18
66
E6
C7
FF
E0
E0
E1
72
7C
ENDCHAR
STARTCHAR 011C
ENCODING 284
SWIDTH 768 0
DWIDTH 16 0
BBX 15 19 1 0
BITMAP
0380
0380
06C0
0440
0000
0FE8
1818
3808
7008
F000
F000
F000
F000
F0FE
F038
7038
7038
3838
0FF0
ENDCHAR
STARTCHAR 011D
ENCODING 285
SWIDTH 480 0
DWIDTH 10 0
BBX 9 19 1 -4
BITMAP
1800
1C00
3400
6200
0000
3C00
6780
E700
E700
E700
E700
3C00
4000
C000
FF00
7F80
4380
8180
FF00
ENDCHAR
STARTCHAR 011E
ENCODING 286
SWIDTH 768 0
DWIDTH 16 0
BBX 15 18 1 0
BITMAP
0840
07C0
0380
0000
0FE8
1818
3808
7008
F000
F000
F000
F000
F0FE
F038
7038
7038
3838
0FF0
ENDCHAR
STARTCHAR 011F
ENCODING 287
SWIDTH 480 0
DWIDTH 10 0
BBX 9 18 1 -4
BITMAP
4200
3E00
1C00
0000
3C00
6780
E700
E700
E700
E700
3C00
4000
C000
FF00
7F80
4380
8180
FF00
ENDCHAR
STARTCHAR 0120
ENCODING 288
SWIDTH 768 0
DWIDTH 16 0
BBX 15 18 1 0
BITMAP
0300
0380
0300
0000
0FE8
1818
3808
7008
F000
F000
F000
F000
F0FE
F038
7038
7038
3838
0FF0
ENDCHAR
STARTCHAR 0121
ENCODING 289
SWIDTH 480 0
DWIDTH 10 0
BBX 9 18 1 -4
BITMAP
1800
1C00
1800
0000
3C00
6780
E700
E700
E700
E700
3C00
4000
C000
FF00
7F80
4380
8180
FF00
ENDCHAR
STARTCHAR 0122
ENCODING 290
SWIDTH 768 0
DWIDTH 16 0
BBX 15 18 1 -4
BITMAP
0FE8
1818
3808
7008
F000
F000
F000
F000
F0FE
F038
7038
7038
3838
0E78
0180
0380
0180
0700
ENDCHAR
STARTCHAR 0123
ENCODING 291
SWIDTH 480 0
DWIDTH 10 0
BBX 9 19 1 -4
BITMAP
0800
1000
1800
1800
0000
3C00
6780
E700
E700
E700
E700
3C00
4000
C000
FF00
7F80
4380
8180
FF00
ENDCHAR
STARTCHAR 0124
ENCODING 292
SWIDTH 768 0
DWIDTH 16 0
BBX 16 19 0 0
BITMAP
01C0
03C0
0260
0420
0000
FF7F
3C1C
3C1C
3C1C
3C1C
3C1C
3FFC
3C1C
3C1C
3C1C
3C1C
3C1C
3C1C
7E3E
ENDCHAR
STARTCHAR 0125
ENCODING 293
SWIDTH 576 0
DWIDTH 12 0
BBX 9 19 1 0
BITMAP
1C00
1E00
3200
2100
0000
F000
7000
7000
7000
7700
7F80
7380
7380
7380
7380
7380
7380
7380
F380
ENDCHAR
STARTCHAR 0126
ENCODING 294
SWIDTH 768 0
DWIDTH 16 0
BBX 16 14 0 0
BITMAP
FF7F
3C3C
7FFF
3C1C
3C1C
3C1C
3FFC
3C1C
3C1C
3C1C
3C1C
3C1C
3C1C
7E3E
ENDCHAR
STARTCHAR 0127
ENCODING 295
SWIDTH 576 0
DWIDTH 12 0
BBX 9 14 1 0
BITMAP
F000
7000
FC00
7000
7700
7F80
7380
7380
7380
7380
7380
7380
7380
F380
ENDCHAR
STARTCHAR 0128
ENCODING 296
SWIDTH 384 0
DWIDTH 8 0
BBX 8 18 0 0
BITMAP
38
7E
0C
00
FF
3C
3C
3C
3C
3C
3C
3C
3C
3C
3C
3C
3C
7E
ENDCHAR
STARTCHAR 0129
ENCODING 297
SWIDTH 288 0
DWIDTH 6 0
BBX 6 14 0 0
BITMAP
64
FC
38
00
F0
70
30
30
30
30
30
30
30
78
ENDCHAR
STARTCHAR 012A
ENCODING 298
SWIDTH 384 0
DWIDTH 8 0
BBX 8 17 0 0
BITMAP
7E
7E
00
FF
3C
3C
3C
3C
3C
3C
3C
3C
3C
3C
3C
3C
7E
ENDCHAR
STARTCHAR 012B
ENCODING 299
SWIDTH 288 0
DWIDTH 6 0
BBX 6 13 0 0
BITMAP
FC
FC
00
F0
70
30
30
30
30
30
30
30
78
ENDCHAR
STARTCHAR 012C
ENCODING 300
SWIDTH 384 0
DWIDTH 8 0
BBX 8 18 0 0
BITMAP
42
3E
18
00
FF
3C
3C
3C
3C
3C
3C
3C
3C
3C
3C
3C
3C
7E
ENDCHAR
STARTCHAR 012D
ENCODING 301
SWIDTH 288 0
DWIDTH 6 0
BBX 6 14 0 0
BITMAP
84
FC
78
00
F0
70
30
30
30
30
30
30
30
78
ENDCHAR
STARTCHAR 012E
ENCODING 302
SWIDTH 384 0
DWIDTH 8 0
BBX 8 19 0 -5
BITMAP
FF
3C
3C
3C
3C
3C
3C
3C
3C
3C
3C
3C
3C
3C
52
30
30
38
0C
ENDCHAR
STARTCHAR 012F
ENCODING 303
SWIDTH 288 0
DWIDTH 6 0
BBX 5 19 0 -5
BITMAP
30
78
30
00
F0
70
30
30
30
30
30
30
30
78
20
60
60
70
38
ENDCHAR
STARTCHAR 0130
ENCODING 304
SWIDTH 384 0
DWIDTH 8 0
BBX 8 18 0 0
BITMAP
18
1C
18
00
FF
3C
3C
3C
3C
3C
3C
3C
3C
3C
3C
3C
3C
7E
ENDCHAR
STARTCHAR 0131
ENCODING 305
SWIDTH 288 0
DWIDTH 6 0
BBX 5 10 0 0
BITMAP
F0
70
30
30
30
30
30
30
30
78
ENDCHAR
STARTCHAR 0132
ENCODING 306
SWIDTH 816 0
DWIDTH 17 0
BBX 17 14 0 0
BITMAP
FF3F80
3C0E00
3C0E00
3C0E00
3C0E00
3C0E00
3C0E00
3C0E00
3C0E00
3C0E00
3DCE00
3DCE00
3D8E00
7EFC00
ENDCHAR
STARTCHAR 0133
ENCODING 307
SWIDTH 576 0
DWIDTH 12 0
BBX 10 18 0 -4
BITMAP
31C0
79C0
31C0
0000
F3C0
71C0
31C0
31C0
31C0
31C0
31C0
31C0
31C0
79C0
01C0
01C0
0DC0
0F80
ENDCHAR
STARTCHAR 0134
ENCODING 308
SWIDTH 480 0
DWIDTH 10 0
BBX 10 19 0 0
BITMAP
0700
0780
0C80
0840
0000
1FC0
0700
0700
0700
0700
0700
0700
0700
0700
0700
E700
E700
6700
7E00
ENDCHAR
STARTCHAR 0135
ENCODING 309
SWIDTH 336 0
DWIDTH 7 0
BBX 7 19 -1 -4
BITMAP
1C
1C
36
22
00
3C
1C
1C
1C
1C
1C
1C
1C
1C
1C
1C
1C
DC
78
ENDCHAR
STARTCHAR 0136
ENCODING 310
SWIDTH 768 0
DWIDTH 16 0
BBX 16 18 0 -4
BITMAP
FE3F
3C0C
3C10
3C20
3C40
3D80
3F80
3FC0
3DE0
3CF0
3C78
3C78
3C3C
3C3F
4000
0180
00C0
0380
ENDCHAR
STARTCHAR 0137
ENCODING 311
SWIDTH 576 0
DWIDTH 12 0
BBX 10 18 1 -4
BITMAP
F000
7000
7000
7000
73C0
7100
7200
7400
7E00
7E00
7700
7780
7380
F3C0
0000
0C00
0400
1800
ENDCHAR
STARTCHAR 0138
ENCODING 312
SWIDTH 576 0
DWIDTH 12 0
BBX 10 10 1 0
BITMAP
FBC0
7100
7200
7400
7E00
7E00
7700
7780
7380
F3C0
ENDCHAR
STARTCHAR 0139
ENCODING 313
SWIDTH 672 0
DWIDTH 14 0
BBX 13 19 0 0
BITMAP
0700
0E00
0C00
0800
0000
FF00
3C00
3C00
3C00
3C00
3C00
3C00
3C00
3C00
3C00
3C08
3C08
3C18
7FF8
ENDCHAR
STARTCHAR 013A
ENCODING 314
SWIDTH 288 0
DWIDTH 6 0
BBX 6 19 0 0
BITMAP
1C
38
30
20
00
F0
30
30
30
30
30
30
30
30
30
30
30
30
78
ENDCHAR
STARTCHAR 013B
ENCODING 315
SWIDTH 672 0
DWIDTH 14 0
BBX 13 18 0 -4
BITMAP
FF00
3C00
3C00
3C00
3C00
3C00
3C00
3C00
3C00
3C00
3C08
3C08
3C18
3FF8
4000
0300
0100
0700
ENDCHAR
STARTCHAR 013C
ENCODING 316
SWIDTH 288 0
DWIDTH 6 0
BBX 5 18 0 -4
BITMAP
F0
30
30
30
30
30
30
30
30
30
30
30
30
78
00
30
10
70
ENDCHAR
STARTCHAR 013D
ENCODING 317
SWIDTH 672 0
DWIDTH 14 0
BBX 13 14 0 0
BITMAP
FF70
3C78
3C78
3C08
3C10
3C10
3C60
3C00
3C00
3C00
3C08
3C08
3C18
7FF8
ENDCHAR
STARTCHAR 013E
ENCODING 318
SWIDTH 480 0
DWIDTH 10 0
BBX 9 14 0 0
BITMAP
F380
3380
3380
3080
3080
3100
3200
3000
3000
3000
3000
3000
3000
7800
ENDCHAR
STARTCHAR 013F
ENCODING 319
SWIDTH 672 0
DWIDTH 14 0
BBX 13 14 0 0
BITMAP
FF00
3C00
3C00
3C00
3C00
3C00
3CC0
3CE0
3C40
3C00
3C08
3C08
3C18
7FF8
ENDCHAR
STARTCHAR 0140
ENCODING 320
SWIDTH 384 0
DWIDTH 8 0
BBX 8 14 0 0
BITMAP
F0
30
30
30
30
30
33
33
30
30
30
30
30
78
ENDCHAR
STARTCHAR 0141
ENCODING 321
SWIDTH 672 0
DWIDTH 14 0
BBX 13 14 0 0
BITMAP
FF00
3C00
3C00
3C00
3D00
3E00
3C00
3C00
3C00
FC00
3C08
3C08
3C18
7FF8
ENDCHAR
STARTCHAR 0142
ENCODING 322
SWIDTH 288 0
DWIDTH 6 0
BBX 5 14 0 0
BITMAP
F0
70
30
30
30
38
30
30
70
30
30
30
30
78
ENDCHAR
STARTCHAR 0143
ENCODING 323
SWIDTH 720 0
DWIDTH 15 0
BBX 15 19 0 0
BITMAP
01E0
01C0
0180
0300
0000
F83E
3C08
3E08
2F08
2F88
2788
23C8
21E8
20F8
20F8
2078
2038
2018
7008
ENDCHAR
STARTCHAR 0144
ENCODING 324
SWIDTH 576 0
DWIDTH 12 0
BBX 9 14 1 0
BITMAP
0E00
0C00
0800
0000
F700
7F80
7380
7380
7380
7380
7380
7380
7380
F380
ENDCHAR
STARTCHAR 0145
ENCODING 325
SWIDTH 720 0
DWIDTH 15 0
BBX 15 18 0 -4
BITMAP
F83E
3C08
3E08
2F08
2F88
2788
23C8
21E8
20F8
20F8
2078
2038
2018
7008
0000
0380
0180
0300
ENDCHAR
STARTCHAR 0146
ENCODING 326
SWIDTH 576 0
DWIDTH 12 0
BBX 9 14 1 -4
BITMAP
F700
7F80
7380
7380
7380
7380
7380
7380
7380
F380
0000
0C00
0400
1800
ENDCHAR
STARTCHAR 0147
ENCODING 327
SWIDTH 720 0
DWIDTH 15 0
BBX 15 19 0 0
BITMAP
0820
0440
07C0
0380
0000
F83E
3C08
3E08
2F08
2F88
2788
23C8
21E8
20F8
20F8
2078
2038
2018
7008
ENDCHAR
STARTCHAR 0148
ENCODING 328
SWIDTH 576 0
DWIDTH 12 0
BBX 9 14 1 1
BITMAP
3300
1E00
1C00
0000
F700
7F80
7380
7380
7380
7380
7380
7380
7380
F380
ENDCHAR
STARTCHAR 0149
ENCODING 329
SWIDTH 720 0
DWIDTH 15 0
BBX 14 14 2 0
BITMAP
E000
E000
E000
2000
2F30
47F8
8718
0718
0718
0718
0718
0718
0718
07BC
ENDCHAR
STARTCHAR 014A
ENCODING 330
SWIDTH 768 0
DWIDTH 16 0
BBX 15 14 0 0
BITMAP
FCF0
3D18
3E1C
3C1C
3C1E
3C1E
3C1E
3C1E
3C1E
3C1E
3C1C
3CDC
3CD8
7EF0
ENDCHAR
STARTCHAR 014B
ENCODING 331
SWIDTH 576 0
DWIDTH 12 0
BBX 9 14 1 -4
BITMAP
F700
7F80
7380
7380
7380
7380
7380
7380
7380
F380
0380
0380
1B80
1F00
ENDCHAR
STARTCHAR 014C
ENCODING 332
SWIDTH 768 0
DWIDTH 16 0
BBX 14 17 1 0
BITMAP
0FC0
0FC0
0000
0FC0
3870
7038
703C
F01C
F01C
E01C
E01C
F01C
F01C
703C
7038
3870
1FE0
ENDCHAR
STARTCHAR 014D
ENCODING 333
SWIDTH 480 0
DWIDTH 10 0
BBX 9 13 1 0
BITMAP
7E00
7E00
0000
1C00
6600
E300
E300
E380
E380
E380
E300
6700
3E00
ENDCHAR
STARTCHAR 014E
ENCODING 334
SWIDTH 768 0
DWIDTH 16 0
BBX 14 18 1 0
BITMAP
0840
07C0
0300
0000
0FC0
3870
7038
703C
F01C
F01C
E01C
E01C
F01C
F01C
703C
7038
3870
1FE0
ENDCHAR
STARTCHAR 014F
ENCODING 335
SWIDTH 480 0
DWIDTH 10 0
BBX 9 14 1 0
BITMAP
4200
3E00
3C00
0000
1C00
6600
E300
E300
E380
E380
E380
E300
6700
3E00
ENDCHAR
STARTCHAR 0150
ENCODING 336
SWIDTH 768 0
DWIDTH 16 0
BBX 14 19 1 0
BITMAP
0360
0260
0640
0480
0000
0FC0
3870
7038
703C
F01C
F01C
E01C
E01C
F01C
F01C
703C
7038
3870
1FE0
ENDCHAR
STARTCHAR 0151
ENCODING 337
SWIDTH 480 0
DWIDTH 10 0
BBX 9 14 1 0
BITMAP
1B00
3200
2400
0000
1C00
6600
E300
E300
E380
E380
E380
E300
6700
3E00
ENDCHAR
STARTCHAR 0152
ENCODING 338
SWIDTH 1008 0
DWIDTH 21 0
BBX 19 14 1 0
BITMAP
0FFFC0
38F0C0
707040
707040
F07200
F07200
E07600
E07E00
E07200
F07200
707020
707020
387040
0FFFC0
ENDCHAR
STARTCHAR 0153
ENCODING 339
SWIDTH 720 0
DWIDTH 15 0
BBX 13 10 1 0
BITMAP
1C60
6790
E398
E318
E3F8
E380
E380
E380
67C8
3EF0
ENDCHAR
STARTCHAR 0154
ENCODING 340
SWIDTH 720 0
DWIDTH 15 0
BBX 15 19 0 0
BITMAP
01E0
01C0
0180
0300
0000
FFC0
3C70
3C78
3C38
3C38
3C78
3C70
3FC0
3DE0
3CE0
3CF0
3C78
3C3C
7C1E
ENDCHAR
STARTCHAR 0155
ENCODING 341
SWIDTH 432 0
DWIDTH 9 0
BBX 8 14 1 0
BITMAP
1C
18
10
00
F3
7F
7B
70
70
70
70
70
70
F0
ENDCHAR
STARTCHAR 0156
ENCODING 342
SWIDTH 720 0
DWIDTH 15 0
BBX 15 18 0 -4
BITMAP
FFC0
3C70
3C78
3C38
3C38
3C78
3C70
3FC0
3DE0
3CE0
3CF0
3C78
3C3C
3C1E
4000
0180
0180
0300
ENDCHAR
STARTCHAR 0157
ENCODING 343
SWIDTH 432 0
DWIDTH 9 0
BBX 8 14 1 -4
BITMAP
F3
7F
7B
70
70
70
70
70
70
F0
00
38
18
30
ENDCHAR
STARTCHAR 0158
ENCODING 344
SWIDTH 720 0
DWIDTH 15 0
BBX 15 19 0 0
BITMAP
0820
0440
06C0
0380
0000
FFC0
3C70
3C78
3C38
3C38
3C78
3C70
3FC0
3DE0
3CE0
3CF0
3C78
3C3C
7C1E
ENDCHAR
STARTCHAR 0159
ENCODING 345
SWIDTH 432 0
DWIDTH 9 0
BBX 8 14 1 1
BITMAP
66
3C
38
00
F3
7F
7B
70
70
70
70
70
70
F0
ENDCHAR
STARTCHAR 015A
ENCODING 346
SWIDTH 576 0
DWIDTH 12 0
BBX 10 19 1 0
BITMAP
0700
0E00
0C00
0800
0000
3E80
6180
C080
E080
F000
FC00
7F00
3F80
0F80
83C0
81C0
81C0
C180
FF00
ENDCHAR
STARTCHAR 015B
ENCODING 347
SWIDTH 384 0
DWIDTH 8 0
BBX 6 14 1 0
BITMAP
18
30
20
00
74
CC
C4
E0
F8
7C
3C
8C
8C
F8
ENDCHAR
STARTCHAR 015C
ENCODING 348
SWIDTH 576 0
DWIDTH 12 0
BBX 10 19 1 0
BITMAP
1C00
1E00
3200
2100
0000
3E80
6180
C080
E080
F000
FC00
7F00
3F80
0F80
83C0
81C0
81C0
C180
FF00
ENDCHAR
STARTCHAR 015D
ENCODING 349
SWIDTH 384 0
DWIDTH 8 0
BBX 6 15 1 0
BITMAP
30
78
78
C4
00
74
CC
C4
E0
F8
7C
3C
8C
8C
F8
ENDCHAR
STARTCHAR 015E
ENCODING 350
SWIDTH 576 0
DWIDTH 12 0
BBX 10 18 1 -4
BITMAP
3E80
6180
C080
E080
F000
FC00
7F00
3F80
0F80
83C0
81C0
81C0
C180
F300
0C00
0C00
0400
1C00
ENDCHAR
STARTCHAR 015F
ENCODING 351
SWIDTH 384 0
DWIDTH 8 0
BBX 6 14 1 -4
BITMAP
74
CC
C4
E0
F8
7C
3C
8C
8C
F8
20
30
10
70
ENDCHAR
STARTCHAR 0160
ENCODING 352
SWIDTH 576 0
DWIDTH 12 0
BBX 10 19 1 0
BITMAP
0100
2200
1E00
1C00
0000
3E80
6180
C080
E080
F000
FC00
7F00
3F80
0F80
83C0
81C0
81C0
C180
FF00
ENDCHAR
STARTCHAR 0161
ENCODING 353
SWIDTH 384 0
DWIDTH 8 0
BBX 6 14 1 1
BITMAP
CC
78
78
00
74
CC
C4
E0
F8
7C
3C
8C
8C
F8
ENDCHAR
STARTCHAR 0162
ENCODING 354
SWIDTH 672 0
DWIDTH 14 0
BBX 12 19 1 -5
BITMAP
FFF0
8F30
8F10
0F00
0F00
0F00
0F00
0F00
0F00
0F00
0F00
0F00
0F00
0F00
1080
0600
0600
0200
0400
ENDCHAR
STARTCHAR 0163
ENCODING 355
SWIDTH 336 0
DWIDTH 7 0
BBX 7 17 0 -4
BITMAP
10
30
7E
BE
30
30
30
30
30
30
3A
3C
00
38
38
08
10
ENDCHAR
STARTCHAR 0164
ENCODING 356
SWIDTH 672 0
DWIDTH 14 0
BBX 12 19 1 0
BITMAP
1080
1980
0F00
0F00
0000
FFF0
8F30
8F10
0F00
0F00
0F00
0F00
0F00
0F00
0F00
0F00
0F00
0F00
1F80
ENDCHAR
STARTCHAR 0165
ENCODING 357
SWIDTH 528 0
DWIDTH 11 0
BBX 11 14 0 0
BITMAP
01C0
01C0
11E0
3040
7E40
BE80
3100
3000
3000
3000
3000
3000
3A00
3C00
ENDCHAR
STARTCHAR 0166
ENCODING 358
SWIDTH 672 0
DWIDTH 14 0
BBX 12 14 1 0
BITMAP
FFF0
8F10
8F10
0F00
0F00
0F00
7FE0
0F00
0F00
0F00
0F00
0F00
0F00
1F80
ENDCHAR
STARTCHAR 0167
ENCODING 359
SWIDTH 336 0
DWIDTH 7 0
BBX 7 12 0 1
BITMAP
10
30
7E
BE
30
30
FE
30
30
30
3A
3C
ENDCHAR
STARTCHAR 0168
ENCODING 360
SWIDTH 720 0
DWIDTH 15 0
BBX 15 18 0 0
BITMAP
0720
07E0
09C0
0000
FF3E
3C08
3C08
3C08
3C08
3C08
3C08
3C08
3C08
3C08
3C08
1C10
1C10
0FE0
ENDCHAR
STARTCHAR 0169
ENCODING 361
SWIDTH 576 0
DWIDTH 12 0
BBX 9 14 1 0
BITMAP
3900
3F00
0E00
0000
F780
7380
7380
7380
7380
7380
7380
7380
7780
7B80
ENDCHAR
STARTCHAR 016A
ENCODING 362
SWIDTH 720 0
DWIDTH 15 0
BBX 15 17 0 0
BITMAP
0FE0
0FE0
0000
FF3E
3C08
3C08
3C08
3C08
3C08
3C08
3C08
3C08
3C08
3C08
1C10
1C10
0FE0
ENDCHAR
STARTCHAR 016B
ENCODING 363
SWIDTH 576 0
DWIDTH 12 0
BBX 9 13 1 0
BITMAP
3F00
3F00
0000
F780
7380
7380
7380
7380
7380
7380
7380
7780
7B80
ENDCHAR
STARTCHAR 016C
ENCODING 364
SWIDTH 720 0
DWIDTH 15 0
BBX 15 18 0 0
BITMAP
0440
07C0
0380
0000
FF3E
3C08
3C08
3C08
3C08
3C08
3C08
3C08
3C08
3C08
3C08
1C10
1C10
0FE0
ENDCHAR
STARTCHAR 016D
ENCODING 365
SWIDTH 576 0
DWIDTH 12 0
BBX 9 14 1 0
BITMAP
2100
3E00
1E00
0000
F780
7380
7380
7380
7380
7380
7380
7380
7780
7B80
ENDCHAR
STARTCHAR 016E
ENCODING 366
SWIDTH 720 0
DWIDTH 15 0
BBX 15 19 0 0
BITMAP
0380
0240
0440
0280
0100
FF3E
3C08
3C08
3C08
3C08
3C08
3C08
3C08
3C08
3C08
3C08
1C10
1C10
0FE0
ENDCHAR
STARTCHAR 016F
ENCODING 367
SWIDTH 576 0
DWIDTH 12 0
BBX 9 15 1 0
BITMAP
0C00
1200
2200
1200
0C00
F780
7380
7380
7380
7380
7380
7380
7380
7780
7B80
ENDCHAR
STARTCHAR 0170
ENCODING 368
SWIDTH 720 0
DWIDTH 15 0
BBX 15 19 0 0
BITMAP
0370
0360
0240
0480
0000
FF3E
3C08
3C08
3C08
3C08
3C08
3C08
3C08
3C08
3C08
3C08
1C10
1C10
0FE0
ENDCHAR
STARTCHAR 0171
ENCODING 369
SWIDTH 576 0
DWIDTH 12 0
BBX 9 14 1 0
BITMAP
1900
1300
1200
0000
F780
7380
7380
7380
7380
7380
7380
7380
7780
7B80
ENDCHAR
STARTCHAR 0172
ENCODING 370
SWIDTH 720 0
DWIDTH 15 0
BBX 14 19 1 -5
BITMAP
FE7C
7810
7810
7810
7810
7810
7810
7810
7810
7810
7810
3820
3820
1FC0
0200
0200
0700
0380
01C0
ENDCHAR
STARTCHAR 0173
ENCODING 371
SWIDTH 576 0
DWIDTH 12 0
BBX 9 15 1 -5
BITMAP
F780
7380
7380
7380
7380
7380
7380
7380
7780
7B80
0200
0600
0600
0780
0180
ENDCHAR
STARTCHAR 0174
ENCODING 372
SWIDTH 1008 0
DWIDTH 21 0
BBX 21 19 0 0
BITMAP
007000
00F000
00D800
010800
000000
FDFC78
787820
383820
3C3820
1C3C40
1C3C40
1E5E40
0E4E80
0F8E80
078F00
078700
070700
030600
020200
ENDCHAR
STARTCHAR 0175
ENCODING 373
SWIDTH 720 0
DWIDTH 15 0
BBX 15 15 0 0
BITMAP
0380
0380
06C0
0440
0000
FBEE
71C4
31C8
3AE8
3AE8
1EF0
1C70
1C70
0C60
0820
ENDCHAR
STARTCHAR 0176
ENCODING 374
SWIDTH 720 0
DWIDTH 15 0
BBX 15 19 0 0
BITMAP
0380
03C0
0640
0420
0000
FE1E
3C08
3C08
1E10
1E20
0F20
0740
07C0
0380
0380
0380
0380
0380
07C0
ENDCHAR
STARTCHAR 0177
ENCODING 375
SWIDTH 480 0
DWIDTH 10 0
BBX 10 19 0 -4
BITMAP
0C00
0E00
1A00
3100
0000
F9C0
7080
3880
3900
3900
1D00
1E00
0E00
0C00
0400
0400
0800
6800
7000
ENDCHAR
STARTCHAR 0178
ENCODING 376
SWIDTH 720 0
DWIDTH 15 0
BBX 15 18 0 0
BITMAP
0660
0660
0660
0000
FE1E
3C08
3C08
1E10
1E20
0F20
0740
07C0
0380
0380
0380
0380
0380
07C0
ENDCHAR
STARTCHAR 0179
ENCODING 377
SWIDTH 672 0
DWIDTH 14 0
BBX 12 19 1 0
BITMAP
0380
0300
0200
0400
0000
7FF0
61E0
43C0
83C0
0780
0700
0F00
1E00
1E00
3C00
3810
7810
F030
FFF0
ENDCHAR
STARTCHAR 017A
ENCODING 378
SWIDTH 432 0
DWIDTH 9 0
BBX 9 14 0 0
BITMAP
0600
0C00
0800
0000
7F80
4700
8700
0E00
1E00
1C00
3800
3880
7080
FF80
ENDCHAR
STARTCHAR 017B
ENCODING 379
SWIDTH 672 0
DWIDTH 14 0
BBX 12 18 1 0
BITMAP
0600
0700
0600
0000
7FF0
61E0
43C0
83C0
0780
0700
0F00
1E00
1E00
3C00
3810
7810
F030
FFF0
ENDCHAR
STARTCHAR 017C
ENCODING 380
SWIDTH 432 0
DWIDTH 9 0
BBX 9 14 0 0
BITMAP
0C00
0E00
0C00
0000
7F80
4700
8700
0E00
1E00
1C00
3800
3880
7080
FF80
ENDCHAR
STARTCHAR 017D
ENCODING 381
SWIDTH 672 0
DWIDTH 14 0
BBX 12 19 1 0
BITMAP
1080
1980
0F00
0E00
0000
7FF0
61E0
43C0
83C0
0780
0700
0F00
1E00
1E00
3C00
3810
7810
F030
FFF0
ENDCHAR
STARTCHAR 017E
ENCODING 382
SWIDTH 432 0
DWIDTH 9 0
BBX 9 15 0 0
BITMAP
2000
3300
1E00
1E00
0000
7F80
4700
8700
0E00
1E00
1C00
3800
3880
7080
FF80
ENDCHAR
STARTCHAR 017F
ENCODING 383
SWIDTH 288 0
DWIDTH 6 0
BBX 7 14 1 0
BITMAP
3C
6E
64
E0
E0
E0
E0
E0
E0
E0
E0
E0
E0
F0
ENDCHAR
STARTCHAR 018F
ENCODING 399
SWIDTH 720 0
DWIDTH 15 0
BBX 14 14 1 0
BITMAP
4FC0
70E0
6070
4038
0038
0038
FFFC
E03C
F03C
F038
F038
7070
3060
1FC0
ENDCHAR
STARTCHAR 0192
ENCODING 402
SWIDTH 480 0
DWIDTH 10 0
BBX 10 18 0 -4
BITMAP
01C0
03C0
0300
0700
0F00
1F80
0E00
0E00
0E00
0E00
1C00
1C00
1C00
1C00
1800
1800
D800
F000
ENDCHAR
STARTCHAR 01A0
ENCODING 416
SWIDTH 768 0
DWIDTH 16 0
BBX 15 15 1 0
BITMAP
0006
0FC6
387E
7038
703C
F01C
F01C
E01C
E01C
F01C
F01C
703C
7038
3870
1FE0
ENDCHAR
STARTCHAR 01A1
ENCODING 417
SWIDTH 576 0
DWIDTH 12 0
BBX 11 11 1 0
BITMAP
0040
1C60
6660
E3C0
E300
E380
E380
E380
E300
6700
3E00
ENDCHAR
STARTCHAR 01AF
ENCODING 431
SWIDTH 816 0
DWIDTH 17 0
BBX 17 17 0 0
BITMAP
000080
000180
000080
FF3F00
3C0800
3C0800
3C0800
3C0800
3C0800
3C0800
3C0800
3C0800
3C0800
3C0800
1C1000
1C1000
0FE000
ENDCHAR
STARTCHAR 01B0
ENCODING 432
SWIDTH 624 0
DWIDTH 13 0
BBX 12 10 1 0
BITMAP
F7A0
73B0
73B0
73C0
7380
7380
7380
7380
7780
7B80
ENDCHAR
STARTCHAR 01CD
ENCODING 461
SWIDTH 720 0
DWIDTH 15 0
BBX 13 19 1 0
BITMAP
1040
0C80
0780
0700
0000
0200
0200
0700
0700
0F80
0B80
13C0
11C0
11C0
3FE0
20E0
40F0
4070
E0F8
ENDCHAR
STARTCHAR 01CE
ENCODING 462
SWIDTH 480 0
DWIDTH 10 0
BBX 9 15 1 0
BITMAP
4000
6600
3C00
1C00
0000
1C00
6600
E700
E700
0F00
3700
6700
E700
FF00
F780
ENDCHAR
STARTCHAR 01CF
ENCODING 463
SWIDTH 384 0
DWIDTH 8 0
BBX 8 19 0 0
BITMAP
42
66
3C
3C
00
FF
3C
3C
3C
3C
3C
3C
3C
3C
3C
3C
3C
3C
7E
ENDCHAR
STARTCHAR 01D0
ENCODING 464
SWIDTH 288 0
DWIDTH 6 0
BBX 6 15 0 0
BITMAP
80
CC
78
78
00
F0
70
30
30
30
30
30
30
30
78
ENDCHAR
STARTCHAR 01D1
ENCODING 465
SWIDTH 768 0
DWIDTH 16 0
BBX 14 19 1 0
BITMAP
0840
0CC0
0780
0380
0000
0FC0
3870
7038
703C
F01C
F01C
E01C
E01C
F01C
F01C
703C
7038
3870
1FE0
ENDCHAR
STARTCHAR 01D2
ENCODING 466
SWIDTH 480 0
DWIDTH 10 0
BBX 9 15 1 0
BITMAP
4000
2200
3C00
1C00
0000
1C00
6600
E300
E300
E380
E380
E380
E300
6700
3E00
ENDCHAR
STARTCHAR 01D3
ENCODING 467
SWIDTH 720 0
DWIDTH 15 0
BBX 15 19 0 0
BITMAP
0420
0640
03C0
0380
0000
FF3E
3C08
3C08
3C08
3C08
3C08
3C08
3C08
3C08
3C08
3C08
1C10
1C10
0FE0
ENDCHAR
STARTCHAR 01D4
ENCODING 468
SWIDTH 576 0
DWIDTH 12 0
BBX 9 15 1 0
BITMAP
4000
2300
1E00
1C00
0000
F780
7380
7380
7380
7380
7380
7380
7380
7780
7B80
ENDCHAR
STARTCHAR 01D5
ENCODING 469
SWIDTH 720 0
DWIDTH 15 0
BBX 15 19 0 0
BITMAP
07C0
07C0
0000
06C0
0000
FF3E
3C08
3C08
3C08
3C08
3C08
3C08
3C08
3C08
3C08
3C08
1C10
1C10
0FE0
ENDCHAR
STARTCHAR 01D6
ENCODING 470
SWIDTH 576 0
DWIDTH 12 0
BBX 9 16 1 0
BITMAP
7F00
7F00
0000
3700
3700
0000
F780
7380
7380
7380
7380
7380
7380
7380
7780
7B80
ENDCHAR
STARTCHAR 01D7
ENCODING 471
SWIDTH 720 0
DWIDTH 15 0
BBX 15 19 0 0
BITMAP
0180
0100
0000
06C0
0000
FF3E
3C08
3C08
3C08
3C08
3C08
3C08
3C08
3C08
3C08
3C08
1C10
1C10
0FE0
ENDCHAR
STARTCHAR 01D8
ENCODING 472
SWIDTH 576 0
DWIDTH 12 0
BBX 9 17 1 0
BITMAP
0700
0C00
0800
0000
3700
3700
0000
F780
7380
7380
7380
7380
7380
7380
7380
7780
7B80
ENDCHAR
STARTCHAR 01D9
ENCODING 473
SWIDTH 720 0
DWIDTH 15 0
BBX 15 19 0 0
BITMAP
0440
0380
0000
06C0
0000
FF3E
3C08
3C08
3C08
3C08
3C08
3C08
3C08
3C08
3C08
3C08
1C10
1C10
0FE0
ENDCHAR
STARTCHAR 01DA
ENCODING 474
SWIDTH 576 0
DWIDTH 12 0
BBX 9 18 1 0
BITMAP
2100
3200
1E00
1C00
0000
3700
3700
0000
F780
7380
7380
7380
7380
7380
7380
7380
7780
7B80
ENDCHAR
STARTCHAR 01DB
ENCODING 475
SWIDTH 720 0
DWIDTH 15 0
BBX 15 19 0 0
BITMAP
0300
0100
0000
06C0
0000
FF3E
3C08
3C08
3C08
3C08
3C08
3C08
3C08
3C08
3C08
3C08
1C10
1C10
0FE0
ENDCHAR
STARTCHAR 01DC
ENCODING 476
SWIDTH 576 0
DWIDTH 12 0
BBX 9 17 1 0
BITMAP
3800
1800
0800
0000
3700
3700
0000
F780
7380
7380
7380
7380
7380
7380
7380
7780
7B80
ENDCHAR
STARTCHAR 01FA
ENCODING 506
SWIDTH 720 0
DWIDTH 15 0
BBX 13 21 1 0
BITMAP
0380
0300
0200
0200
0500
0880
0480
0300
0200
0700
0700
0F80
0B80
13C0
11C0
11C0
3FE0
20E0
40F0
4070
E0F8
ENDCHAR
STARTCHAR 01FB
ENCODING 507
SWIDTH 480 0
DWIDTH 10 0
BBX 9 19 1 0
BITMAP
0E00
0C00
1800
1000
1800
2400
2400
2400
1800
1C00
6600
E700
E700
0F00
3700
6700
E700
FF00
F780
ENDCHAR
STARTCHAR 01FC
ENCODING 508
SWIDTH 1008 0
DWIDTH 21 0
BBX 20 19 0 0
BITMAP
001C00
001800
003000
002000
000000
03FFE0
00B860
00B820
013820
023900
023900
043B00
07FF00
083900
103900
103810
203810
603820
E0FFE0
ENDCHAR
STARTCHAR 01FD
ENCODING 509
SWIDTH 720 0
DWIDTH 15 0
BBX 13 14 1 0
BITMAP
0380
0300
0200
0000
3CE0
47B0
E718
E718
0FF8
3700
6700
E380
E7C8
F9F0
ENDCHAR
STARTCHAR 01FE
ENCODING 510
SWIDTH 768 0
DWIDTH 16 0
BBX 14 20 1 -1
BITMAP
01C0
0180
0300
0200
0000
0FC8
3878
7038
703C
F05C
F09C
E11C
E21C
F21C
F41C
783C
7038
3870
4CE0
0300
ENDCHAR
STARTCHAR 01FF
ENCODING 511
SWIDTH 480 0
DWIDTH 10 0
BBX 9 14 1 0
BITMAP
0E00
0C00
1800
0000
1C80
6700
6300
E780
EB80
F380
E380
E300
6300
BE00
ENDCHAR
STARTCHAR 0218
ENCODING 536
SWIDTH 576 0
DWIDTH 12 0
BBX 10 19 1 -5
BITMAP
3E80
6180
C080
E080
F000
FC00
7F00
3F80
0F80
83C0
81C0
81C0
C180
F300
0C00
1C00
1C00
0400
0800
ENDCHAR
STARTCHAR 0219
ENCODING 537
SWIDTH 384 0
DWIDTH 8 0
BBX 6 15 1 -5
BITMAP
74
CC
C4
E0
F8
7C
3C
8C
8C
F8
00
30
30
10
20
ENDCHAR
STARTCHAR 021A
ENCODING 538
SWIDTH 672 0
DWIDTH 14 0
BBX 12 19 1 -5
BITMAP
FFF0
8F30
8F10
0F00
0F00
0F00
0F00
0F00
0F00
0F00
0F00
0F00
0F00
0F00
1080
0600
0600
0200
0400
ENDCHAR
STARTCHAR 021B
ENCODING 539
SWIDTH 336 0
DWIDTH 7 0
BBX 7 17 0 -4
BITMAP
10
30
7E
BE
30
30
30
30
30
30
3A
3C
00
38
18
08
10
ENDCHAR
STARTCHAR 0259
ENCODING 601
SWIDTH 432 0
DWIDTH 9 0
BBX 8 10 1 0
BITMAP
38
7C
8E
0E
06
07
FE
C6
C6
7C
ENDCHAR
STARTCHAR 02C6
ENCODING 710
SWIDTH 336 0
DWIDTH 7 0
BBX 5 4 1 11
BITMAP
70
70
D8
88
ENDCHAR
STARTCHAR 02C7
ENCODING 711
SWIDTH 336 0
DWIDTH 7 0
BBX 6 4 0 11
BITMAP
80
44
6C
38
ENDCHAR
STARTCHAR 02C9
ENCODING 713
SWIDTH 336 0
DWIDTH 7 0
BBX 7 2 0 11
BITMAP
FE
FE
ENDCHAR
STARTCHAR 02D8
ENCODING 728
SWIDTH 336 0
DWIDTH 7 0
BBX 6 3 0 11
BITMAP
84
7C
38
ENDCHAR
STARTCHAR 02D9
ENCODING 729
SWIDTH 336 0
DWIDTH 7 0
BBX 3 3 2 11
BITMAP
E0
E0
E0
ENDCHAR
STARTCHAR 02DA
ENCODING 730
SWIDTH 336 0
DWIDTH 7 0
BBX 5 5 1 10
BITMAP
20
50
88
50
20
ENDCHAR
STARTCHAR 02DB
ENCODING 731
SWIDTH 336 0
DWIDTH 7 0
BBX 4 5 1 -5
BITMAP
40
C0
C0
F0
30
ENDCHAR
STARTCHAR 02DC
ENCODING 732
SWIDTH 336 0
DWIDTH 7 0
BBX 7 3 0 11
BITMAP
72
FE
9C
ENDCHAR
STARTCHAR 02DD
ENCODING 733
SWIDTH 336 0
DWIDTH 7 0
BBX 6 3 1 11
BITMAP
6C
48
88
ENDCHAR
STARTCHAR 0300
ENCODING 768
SWIDTH 0 0
DWIDTH 0 0
BBX 4 4 -6 15
BITMAP
E0
60
30
10
ENDCHAR
STARTCHAR 0301
ENCODING 769
SWIDTH 0 0
DWIDTH 0 0
BBX 4 4 -4 15
BITMAP
70
60
C0
80
ENDCHAR
STARTCHAR 0303
ENCODING 771
SWIDTH 0 0
DWIDTH 0 0
BBX 6 3 -8 15
BITMAP
60
FC
18
ENDCHAR
STARTCHAR 0309
ENCODING 777
SWIDTH 0 0
DWIDTH 0 0
BBX 5 4 -5 15
BITMAP
60
D8
10
20
ENDCHAR
STARTCHAR 0323
ENCODING 803
SWIDTH 0 0
DWIDTH 0 0
BBX 3 3 -10 -4
BITMAP
C0
E0
E0
ENDCHAR
STARTCHAR 037E
ENCODING 894
SWIDTH 336 0
DWIDTH 7 0
BBX 3 14 2 -4
BITMAP
40
E0
E0
40
00
00
00
E0
E0
E0
20
20
40
80
ENDCHAR
STARTCHAR 0384
ENCODING 900
SWIDTH 336 0
DWIDTH 7 0
BBX 3 3 3 11
BITMAP
E0
C0
80
ENDCHAR
STARTCHAR 0385
ENCODING 901
SWIDTH 336 0
DWIDTH 7 0
BBX 9 3 -1 11
BITMAP
0E00
D980
D180
ENDCHAR
STARTCHAR 0386
ENCODING 902
SWIDTH 720 0
DWIDTH 15 0
BBX 13 14 1 0
BITMAP
3A00
3200
6700
0700
0F80
0B80
13C0
11C0
11C0
3FE0
20E0
40F0
4070
E0F8
ENDCHAR
STARTCHAR 0387
ENCODING 903
SWIDTH 336 0
DWIDTH 7 0
BBX 3 4 2 6
BITMAP
40
E0
E0
40
ENDCHAR
STARTCHAR 0388
ENCODING 904
SWIDTH 816 0
DWIDTH 17 0
BBX 17 14 -1 0
BITMAP
6FFF00
C38300
838100
038900
038800
038800
039800
03F800
038800
038800
038880
038100
038300
07FF00
ENDCHAR
STARTCHAR 0389
ENCODING 905
SWIDTH 912 0
DWIDTH 19 0
BBX 20 14 -1 0
BITMAP
6FEFF0
C383C0
8383C0
0383C0
0383C0
0383C0
03FFC0
0383C0
0383C0
0383C0
0383C0
0383C0
0383C0
07C7E0
ENDCHAR
STARTCHAR 038A
ENCODING 906
SWIDTH 528 0
DWIDTH 11 0
BBX 11 14 -1 0
BITMAP
6FE0
C380
8380
0380
0380
0380
0380
0380
0380
0380
0380
0380
0380
07C0
ENDCHAR
STARTCHAR 038C
ENCODING 908
SWIDTH 768 0
DWIDTH 16 0
BBX 16 14 -1 0
BITMAP
73F0
CE1C
9C0E
1C0F
3C07
3C07
3807
3807
3807
3C07
1C0F
1C0E
0E1C
07F8
ENDCHAR
STARTCHAR 038E
ENCODING 910
SWIDTH 864 0
DWIDTH 18 0
BBX 19 14 -1 0
BITMAP
6FE1E0
C38080
83C080
01C100
01E200
00F200
007400
007C00
003800
003800
003800
003800
003800
007C00
ENDCHAR
STARTCHAR 038F
ENCODING 911
SWIDTH 816 0
DWIDTH 17 0
BBX 17 14 -1 0
BITMAP
63F800
CE0E00
9C0E00
1C0700
3C0700
3C0700
3C0700
1C0700
1C0700
0E0E00
031000
3F1F80
3F1F80
3F1F80
ENDCHAR
STARTCHAR 0390
ENCODING 912
SWIDTH 288 0
DWIDTH 6 0
BBX 10 14 -2 0
BITMAP
0E00
EDC0
69C0
0000
3C00
0C00
0C00
0C00
0C00
0C00
0C00
0E00
0F00
0F00
ENDCHAR
STARTCHAR 0391
ENCODING 913
SWIDTH 720 0
DWIDTH 15 0
BBX 13 14 1 0
BITMAP
0200
0200
0700
0700
0F80
0B80
13C0
11C0
11C0
3FE0
20E0
40F0
4070
E0F8
ENDCHAR
STARTCHAR 0392
ENCODING 914
SWIDTH 672 0
DWIDTH 14 0
BBX 13 14 0 0
BITMAP
FFC0
3CF0
3C70
3C78
3C70
3C70
3FC0
3CF0
3C78
3C78
3C38
3C78
3C70
7FE0
ENDCHAR
STARTCHAR 0393
ENCODING 915
SWIDTH 624 0
DWIDTH 13 0
BBX 13 14 0 0
BITMAP
FFF8
3C18
3C08
3C08
3C00
3C00
3C00
3C00
3C00
3C00
3C00
3C00
3C00
7E00
ENDCHAR
STARTCHAR 0394
ENCODING 916
SWIDTH 624 0
DWIDTH 13 0
BBX 11 14 1 0
BITMAP
0400
0400
0E00
0E00
1F00
1700
2700
2780
2380
43C0
41C0
81E0
80E0
FFE0
ENDCHAR
STARTCHAR 0395
ENCODING 917
SWIDTH 672 0
DWIDTH 14 0
BBX 13 14 0 0
BITMAP
FFF0
3C30
3C10
3C10
3C80
3C80
3D80
3F80
3C80
3C80
3C08
3C08
3C18
7FF0
ENDCHAR
STARTCHAR 0396
ENCODING 918
SWIDTH 672 0
DWIDTH 14 0
BBX 12 14 1 0
BITMAP
7FF0
61E0
43C0
83C0
0780
0700
0F00
1E00
1E00
3C00
3810
7810
F030
FFF0
ENDCHAR
STARTCHAR 0397
ENCODING 919
SWIDTH 768 0
DWIDTH 16 0
BBX 16 14 0 0
BITMAP
FF7F
3C1C
3C1C
3C1C
3C1C
3C1C
3FFC
3C1C
3C1C
3C1C
3C1C
3C1C
3C1C
7E3E
ENDCHAR
STARTCHAR 0398
ENCODING 920
SWIDTH 768 0
DWIDTH 16 0
BBX 14 14 1 0
BITMAP
0FC0
3870
7038
703C
F01C
F49C
E79C
E79C
F49C
F01C
703C
7038
3870
1FE0
ENDCHAR
STARTCHAR 0399
ENCODING 921
SWIDTH 384 0
DWIDTH 8 0
BBX 8 14 0 0
BITMAP
FF
3C
3C
3C
3C
3C
3C
3C
3C
3C
3C
3C
3C
7E
ENDCHAR
STARTCHAR 039A
ENCODING 922
SWIDTH 768 0
DWIDTH 16 0
BBX 16 14 0 0
BITMAP
FE3F
3C0C
3C10
3C20
3C40
3D80
3F80
3FC0
3DE0
3CF0
3C78
3C78
3C3C
7C3F
ENDCHAR
STARTCHAR 039B
ENCODING 923
SWIDTH 720 0
DWIDTH 15 0
BBX 13 14 1 0
BITMAP
0200
0200
0700
0700
0F80
0B80
13C0
11C0
21E0
21E0
20E0
40F0
4070
E0F8
ENDCHAR
STARTCHAR 039C
ENCODING 924
SWIDTH 960 0
DWIDTH 20 0
BBX 19 14 0 0
BITMAP
FC03E0
3E0780
2E0780
2E0B80
2F0B80
271380
279380
23A380
23E380
21E380
21C380
21C380
208380
7087C0
ENDCHAR
STARTCHAR 039D
ENCODING 925
SWIDTH 720 0
DWIDTH 15 0
BBX 15 14 0 0
BITMAP
F83E
3C08
3E08
2F08
2F88
2788
23C8
21E8
20F8
20F8
2078
2038
2018
7008
ENDCHAR
STARTCHAR 039E
ENCODING 926
SWIDTH 672 0
DWIDTH 14 0
BBX 12 14 1 0
BITMAP
FFF0
FFF0
FFF0
8010
2040
2040
3FC0
3FC0
2040
A040
8010
FFF0
FFF0
FFF0
ENDCHAR
STARTCHAR 039F
ENCODING 927
SWIDTH 768 0
DWIDTH 16 0
BBX 14 14 1 0
BITMAP
0FC0
3870
7038
703C
F01C
F01C
E01C
E01C
F01C
F01C
703C
7038
3870
1FE0
ENDCHAR
STARTCHAR 03A0
ENCODING 928
SWIDTH 768 0
DWIDTH 16 0
BBX 16 14 0 0
BITMAP
FFFF
3C1C
3C1C
3C1C
3C1C
3C1C
3C1C
3C1C
3C1C
3C1C
3C1C
3C1C
3C3C
7E3E
ENDCHAR
STARTCHAR 03A1
ENCODING 929
SWIDTH 624 0
DWIDTH 13 0
BBX 11 14 1 0
BITMAP
FF00
79C0
78E0
78E0
78E0
79E0
79C0
7F00
7800
7800
7800
7800
7800
7C00
ENDCHAR
STARTCHAR 03A3
ENCODING 931
SWIDTH 672 0
DWIDTH 14 0
BBX 13 14 0 0
BITMAP
FFF0
7830
3810
1C10
1E00
0F00
0600
0400
0400
0808
1008
3FF8
7FF8
7FF8
ENDCHAR
STARTCHAR 03A4
ENCODING 932
SWIDTH 672 0
DWIDTH 14 0
BBX 12 14 1 0
BITMAP
FFF0
8F30
8F10
0F00
0F00
0F00
0F00
0F00
0F00
0F00
0F00
0F00
0F00
1F80
ENDCHAR
STARTCHAR 03A5
ENCODING 933
SWIDTH 720 0
DWIDTH 15 0
BBX 15 14 0 0
BITMAP
FE1E
3C08
3C08
1E10
1E20
0F20
0740
07C0
0380
0380
0380
0380
0380
07C0
ENDCHAR
STARTCHAR 03A6
ENCODING 934
SWIDTH 816 0
DWIDTH 17 0
BBX 15 14 1 0
BITMAP
0FE0
0380
1FF0
739C
738E
E38E
E38E
E38E
E38E
638E
739C
1FF0
0380
07C0
ENDCHAR
STARTCHAR 03A7
ENCODING 935
SWIDTH 720 0
DWIDTH 15 0
BBX 14 14 0 0
BITMAP
FE7C
3C10
1E10
1E20
0F40
0780
0780
03C0
03E0
05E0
08F0
1078
3078
707C
ENDCHAR
STARTCHAR 03A8
ENCODING 936
SWIDTH 768 0
DWIDTH 16 0
BBX 16 14 0 0
BITMAP
E7F7
73CE
73CE
7BCE
7BCE
3BCC
3BDC
0FF0
03C0
03C0
03C0
03C0
03C0
03E0
ENDCHAR
STARTCHAR 03A9
ENCODING 937
SWIDTH 816 0
DWIDTH 17 0
BBX 15 14 1 0
BITMAP
0FE0
3838
7038
701C
F01C
F01C
F01C
701C
701C
3838
0C40
FC7E
FC7E
FC7E
ENDCHAR
STARTCHAR 03AA
ENCODING 938
SWIDTH 384 0
DWIDTH 8 0
BBX 8 18 0 0
BITMAP
66
76
66
00
FF
3C
3C
3C
3C
3C
3C
3C
3C
3C
3C
3C
3C
7E
ENDCHAR
STARTCHAR 03AB
ENCODING 939
SWIDTH 720 0
DWIDTH 15 0
BBX 15 18 0 0
BITMAP
0640
0EE0
06C0
0000
FE1E
3C08
3C08
1E10
1E20
0F20
0740
07C0
0380
0380
0380
0380
0380
07C0
ENDCHAR
STARTCHAR 03AC
ENCODING 940
SWIDTH 576 0
DWIDTH 12 0
BBX 10 14 1 0
BITMAP
0600
0C00
0800
0000
39C0
6580
6380
E380
E380
E380
E300
E700
6740
3EC0
ENDCHAR
STARTCHAR 03AD
ENCODING 941
SWIDTH 432 0
DWIDTH 9 0
BBX 8 14 1 0
BITMAP
1C
18
10
00
3C
E6
E6
E0
60
78
E0
E2
E7
7E
ENDCHAR
STARTCHAR 03AE
ENCODING 942
SWIDTH 576 0
DWIDTH 12 0
BBX 11 18 0 -4
BITMAP
0380
0600
0400
0000
7380
7FC0
B9C0
39C0
39C0
39C0
39C0
39C0
39C0
39C0
01C0
01C0
00C0
00E0
ENDCHAR
STARTCHAR 03AF
ENCODING 943
SWIDTH 288 0
DWIDTH 6 0
BBX 6 14 0 0
BITMAP
1C
18
30
00
F0
30
30
30
30
30
30
38
3C
3C
ENDCHAR
STARTCHAR 03B0
ENCODING 944
SWIDTH 528 0
DWIDTH 11 0
BBX 10 14 0 0
BITMAP
0600
6DC0
68C0
0000
7300
7980
B8C0
38C0
38C0
38C0
38C0
38C0
3880
1F00
ENDCHAR
STARTCHAR 03B1
ENCODING 945
SWIDTH 576 0
DWIDTH 12 0
BBX 10 10 1 0
BITMAP
39C0
6580
6380
E380
E380
E380
E300
E700
6740
3EC0
ENDCHAR
STARTCHAR 03B2
ENCODING 946
SWIDTH 528 0
DWIDTH 11 0
BBX 9 18 1 -4
BITMAP
3E00
6300
6380
E380
E300
EE00
E300
E380
E380
E380
E380
E380
E300
FF00
E000
E000
E000
E000
ENDCHAR
STARTCHAR 03B3
ENCODING 947
SWIDTH 480 0
DWIDTH 10 0
BBX 10 14 0 -4
BITMAP
63C0
F380
9380
9300
1300
0E00
0E00
0C00
0400
0C00
0C00
1C00
1C00
1800
ENDCHAR
STARTCHAR 03B4
ENCODING 948
SWIDTH 528 0
DWIDTH 11 0
BBX 9 14 1 0
BITMAP
3E00
4700
4200
3000
1C00
1E00
6700
E780
E380
E380
E380
E380
6300
3E00
ENDCHAR
STARTCHAR 03B5
ENCODING 949
SWIDTH 432 0
DWIDTH 9 0
BBX 8 10 1 0
BITMAP
3C
E6
E6
E0
60
78
E0
E2
E7
7E
ENDCHAR
STARTCHAR 03B6
ENCODING 950
SWIDTH 432 0
DWIDTH 9 0
BBX 7 18 1 -4
BITMAP
46
4E
78
20
40
80
80
80
80
80
80
FC
FE
7E
02
02
12
1E
ENDCHAR
STARTCHAR 03B7
ENCODING 951
SWIDTH 576 0
DWIDTH 12 0
BBX 11 14 0 -4
BITMAP
7380
7FC0
B9C0
39C0
39C0
39C0
39C0
39C0
39C0
39C0
01C0
01C0
00C0
00E0
ENDCHAR
STARTCHAR 03B8
ENCODING 952
SWIDTH 528 0
DWIDTH 11 0
BBX 9 14 1 0
BITMAP
3C00
6300
6300
E380
E380
E380
E380
FF80
E380
E380
E380
6300
6300
3E00
ENDCHAR
STARTCHAR 03B9
ENCODING 953
SWIDTH 288 0
DWIDTH 6 0
BBX 6 10 0 0
BITMAP
F0
30
30
30
30
30
30
38
3C
3C
ENDCHAR
STARTCHAR 03BA
ENCODING 954
SWIDTH 576 0
DWIDTH 12 0
BBX 11 10 0 0
BITMAP
F0E0
71E0
3100
3200
3600
3F00
3380
3380
31C0
30E0
ENDCHAR
STARTCHAR 03BB
ENCODING 955
SWIDTH 480 0
DWIDTH 10 0
BBX 10 14 0 0
BITMAP
3000
7800
8800
0800
0800
0C00
0C00
1C00
1C00
3A00
3A00
7240
71C0
61C0
ENDCHAR
STARTCHAR 03BC
ENCODING 956
SWIDTH 576 0
DWIDTH 12 0
BBX 10 14 1 -4
BITMAP
6380
6380
6380
6380
6380
6380
6380
6380
77C0
7BC0
4000
C000
E000
E000
ENDCHAR
STARTCHAR 03BD
ENCODING 957
SWIDTH 432 0
DWIDTH 9 0
BBX 9 10 0 0
BITMAP
2100
F380
7180
3900
3900
3A00
1E00
1C00
0C00
0800
ENDCHAR
STARTCHAR 03BE
ENCODING 958
SWIDTH 432 0
DWIDTH 9 0
BBX 8 18 1 -4
BITMAP
DC
BC
40
40
46
7E
48
80
80
80
80
FC
FF
7F
01
01
09
1E
ENDCHAR
STARTCHAR 03BF
ENCODING 959
SWIDTH 480 0
DWIDTH 10 0
BBX 9 10 1 0
BITMAP
1C00
6600
E300
E300
E380
E380
E380
E300
6700
3E00
ENDCHAR
STARTCHAR 03C0
ENCODING 960
SWIDTH 528 0
DWIDTH 11 0
BBX 11 10 0 0
BITMAP
0FE0
7FE0
7FE0
9980
1380
1300
3300
3300
73C0
73C0
ENDCHAR
STARTCHAR 03C1
ENCODING 961
SWIDTH 528 0
DWIDTH 11 0
BBX 9 14 1 -4
BITMAP
1E00
6300
6380
6380
E380
E380
E380
E380
E300
FE00
E000
E000
E000
E000
ENDCHAR
STARTCHAR 03C2
ENCODING 962
SWIDTH 432 0
DWIDTH 9 0
BBX 8 14 1 -4
BITMAP
1E
3E
42
80
80
80
80
FC
FE
7E
03
01
12
1E
ENDCHAR
STARTCHAR 03C3
ENCODING 963
SWIDTH 528 0
DWIDTH 11 0
BBX 10 10 1 0
BITMAP
03C0
3FC0
FFC0
E200
E300
E380
E380
E380
6300
3E00
ENDCHAR
STARTCHAR 03C4
ENCODING 964
SWIDTH 480 0
DWIDTH 10 0
BBX 9 10 0 0
BITMAP
0F80
7F80
FF80
8C00
0C00
0C00
1C00
1D00
1D00
0E00
ENDCHAR
STARTCHAR 03C5
ENCODING 965
SWIDTH 528 0
DWIDTH 11 0
BBX 10 10 0 0
BITMAP
7300
7980
B8C0
38C0
38C0
38C0
38C0
38C0
3880
1F00
ENDCHAR
STARTCHAR 03C6
ENCODING 966
SWIDTH 624 0
DWIDTH 13 0
BBX 11 14 1 -4
BITMAP
1300
67C0
64E0
E4E0
E4E0
E4E0
E4E0
E4E0
64C0
3580
0E00
0400
0400
0400
ENDCHAR
STARTCHAR 03C7
ENCODING 967
SWIDTH 480 0
DWIDTH 10 0
BBX 10 14 0 -4
BITMAP
6180
7380
9300
9700
0F00
0E00
0E00
1C00
1C00
1C00
3C00
3240
7240
6180
ENDCHAR
STARTCHAR 03C8
ENCODING 968
SWIDTH 672 0
DWIDTH 14 0
BBX 14 14 0 -4
BITMAP
E30C
7318
7338
7338
7338
3338
3B30
3B30
1B60
0FC0
0300
0300
0300
0300
ENDCHAR
STARTCHAR 03C9
ENCODING 969
SWIDTH 720 0
DWIDTH 15 0
BBX 13 10 1 0
BITMAP
18C0
7030
6338
E738
E738
E338
E238
E238
6538
7CF0
ENDCHAR
STARTCHAR 03CA
ENCODING 970
SWIDTH 288 0
DWIDTH 6 0
BBX 6 14 0 0
BITMAP
CC
EC
CC
00
F0
30
30
30
30
30
30
38
3C
3C
ENDCHAR
STARTCHAR 03CB
ENCODING 971
SWIDTH 528 0
DWIDTH 11 0
BBX 10 14 0 0
BITMAP
3300
3B80
1300
0000
7300
7980
B8C0
38C0
38C0
38C0
38C0
38C0
3880
1F00
ENDCHAR
STARTCHAR 03CC
ENCODING 972
SWIDTH 480 0
DWIDTH 10 0
BBX 9 14 1 0
BITMAP
0E00
0C00
1800
0000
1C00
6600
E300
E300
E380
E380
E380
E300
6700
3E00
ENDCHAR
STARTCHAR 03CD
ENCODING 973
SWIDTH 528 0
DWIDTH 11 0
BBX 10 14 0 0
BITMAP
0700
0600
0C00
0000
7300
7980
B8C0
38C0
38C0
38C0
38C0
38C0
3880
1F00
ENDCHAR
STARTCHAR 03CE
ENCODING 974
SWIDTH 720 0
DWIDTH 15 0
BBX 13 14 1 0
BITMAP
0380
0300
0200
0000
18C0
7030
6338
E738
E738
E338
E238
E238
6538
7CF0
ENDCHAR
STARTCHAR 0401
ENCODING 1025
SWIDTH 672 0
DWIDTH 14 0
BBX 13 18 0 0
BITMAP
0CC0
0DC0
0CC0
0000
FFF0
3C30
3C10
3C10
3C80
3C80
3D80
3F80
3C80
3C80
3C08
3C08
3C18
7FF0
ENDCHAR
STARTCHAR 0402
ENCODING 1026
SWIDTH 816 0
DWIDTH 17 0
BBX 15 14 1 0
BITMAP
FFE0
8E20
8E20
0E00
0E30
0EF8
0F3C
0E1E
0E1E
0E1E
0E1E
0E1E
1E1C
1E78
ENDCHAR
STARTCHAR 0403
ENCODING 1027
SWIDTH 624 0
DWIDTH 13 0
BBX 13 19 0 0
BITMAP
01C0
0380
0300
0200
0000
FFF8
3C18
3C08
3C08
3C00
3C00
3C00
3C00
3C00
3C00
3C00
3C00
3C00
7E00
ENDCHAR
STARTCHAR 0404
ENCODING 1028
SWIDTH 672 0
DWIDTH 14 0
BBX 12 14 1 0
BITMAP
0FD0
3830
7010
7010
F000
E000
FF80
E000
E000
F000
7000
7000
3830
1FC0
ENDCHAR
STARTCHAR 0405
ENCODING 1029
SWIDTH 576 0
DWIDTH 12 0
BBX 10 14 1 0
BITMAP
3E80
6180
C080
E080
F000
FC00
7F00
3F80
0F80
83C0
81C0
81C0
C180
FF00
ENDCHAR
STARTCHAR 0406
ENCODING 1030
SWIDTH 384 0
DWIDTH 8 0
BBX 8 14 0 0
BITMAP
FF
3C
3C
3C
3C
3C
3C
3C
3C
3C
3C
3C
3C
7E
ENDCHAR
STARTCHAR 0407
ENCODING 1031
SWIDTH 384 0
DWIDTH 8 0
BBX 8 18 0 0
BITMAP
66
76
66
00
FF
3C
3C
3C
3C
3C
3C
3C
3C
3C
3C
3C
3C
7E
ENDCHAR
STARTCHAR 0408
ENCODING 1032
SWIDTH 480 0
DWIDTH 10 0
BBX 10 14 0 0
BITMAP
1FC0
0700
0700
0700
0700
0700
0700
0700
0700
0700
E700
E700
6700
7E00
ENDCHAR
STARTCHAR 0409
ENCODING 1033
SWIDTH 1008 0
DWIDTH 21 0
BBX 20 14 0 0
BITMAP
0FFE00
027800
027800
027800
027800
027800
027F00
047BE0
0478F0
0478F0
0478F0
E478F0
E878E0
70FFC0
ENDCHAR
STARTCHAR 040A
ENCODING 1034
SWIDTH 1008 0
DWIDTH 21 0
BBX 20 14 0 0
BITMAP
FEFE00
3C7800
3C7800
3C7800
3C7800
3C7800
3FFE00
3C7BE0
3C78F0
3C78F0
3C78F0
3C78F0
3C78E0
7C7FC0
ENDCHAR
STARTCHAR 040B
ENCODING 1035
SWIDTH 816 0
DWIDTH 17 0
BBX 14 14 1 0
BITMAP
FFE0
8E60
8E20
0E00
0E60
0EF8
0F38
0E3C
0E3C
0E3C
0E3C
0E3C
1E3C
1E3C
ENDCHAR
STARTCHAR 040C
ENCODING 1036
SWIDTH 720 0
DWIDTH 15 0
BBX 15 19 0 0
BITMAP
00E0
01C0
0180
0100
0000
FF1C
3C2E
3C4E
3C40
3C40
3C80
3F80
3FC0
3DE0
3CE0
3CF0
3C70
3C78
7E3C
ENDCHAR
STARTCHAR 040D
ENCODING 1037
SWIDTH 768 0
DWIDTH 16 0
BBX 16 18 0 0
BITMAP
0700
0100
0080
0000
FF7F
3C3C
3C1C
3C3C
3C5C
3C5C
3C9C
3D1C
3D1C
3E1C
3C1C
3C1C
3C3C
7E3E
ENDCHAR
STARTCHAR 040E
ENCODING 1038
SWIDTH 720 0
DWIDTH 15 0
BBX 15 18 0 0
BITMAP
0430
0630
03E0
0000
FE3E
3C0C
1C08
1E08
0E10
0F20
0720
07C0
03C0
0380
0180
1900
1900
1E00
ENDCHAR
STARTCHAR 040F
ENCODING 1039
SWIDTH 768 0
DWIDTH 16 0
BBX 16 17 0 -4
BITMAP
FF7F
3C3C
3C1C
3C1C
3C1C
3C1C
3C1C
3C1C
3C1C
3C1C
3C1C
3C1C
3C1C
3FFC
41C2
0180
0100
ENDCHAR
STARTCHAR 0410
ENCODING 1040
SWIDTH 720 0
DWIDTH 15 0
BBX 13 14 1 0
BITMAP
0200
0200
0700
0700
0F80
0B80
13C0
11C0
11C0
3FE0
20E0
40F0
4070
E0F8
ENDCHAR
STARTCHAR 0411
ENCODING 1041
SWIDTH 672 0
DWIDTH 14 0
BBX 13 14 0 0
BITMAP
FFF0
3C30
3C10
3C00
3C00
3C00
3F00
3DF0
3C78
3C78
3C78
3C78
3C70
7FE0
ENDCHAR
STARTCHAR 0412
ENCODING 1042
SWIDTH 672 0
DWIDTH 14 0
BBX 13 14 0 0
BITMAP
FFC0
3CF0
3C70
3C78
3C70
3C70
3FC0
3CF0
3C78
3C78
3C38
3C78
3C70
7FE0
ENDCHAR
STARTCHAR 0413
ENCODING 1043
SWIDTH 624 0
DWIDTH 13 0
BBX 13 14 0 0
BITMAP
FFF8
3C18
3C08
3C08
3C00
3C00
3C00
3C00
3C00
3C00
3C00
3C00
3C00
7E00
ENDCHAR
STARTCHAR 0414
ENCODING 1044
SWIDTH 672 0
DWIDTH 14 0
BBX 14 17 0 -4
BITMAP
1FFC
0470
0470
0470
0870
0870
0870
0870
0870
0870
1070
1070
2070
FFF8
E01C
8004
8004
ENDCHAR
STARTCHAR 0415
ENCODING 1045
SWIDTH 672 0
DWIDTH 14 0
BBX 13 14 0 0
BITMAP
FFF0
3C30
3C10
3C10
3C80
3C80
3D80
3F80
3C80
3C80
3C08
3C08
3C18
7FF0
ENDCHAR
STARTCHAR 0416
ENCODING 1046
SWIDTH 1008 0
DWIDTH 21 0
BBX 20 14 0 0
BITMAP
71FCE0
E871F0
E47130
047100
047200
047200
03FC00
077F00
0E7700
0E7380
1C7380
1C71C0
3871C0
78F8E0
ENDCHAR
STARTCHAR 0417
ENCODING 1047
SWIDTH 528 0
DWIDTH 11 0
BBX 10 14 0 0
BITMAP
5F00
6380
43C0
43C0
03C0
0380
0E00
1F80
03C0
03C0
01C0
03C0
83C0
7F80
ENDCHAR
STARTCHAR 0418
ENCODING 1048
SWIDTH 768 0
DWIDTH 16 0
BBX 16 14 0 0
BITMAP
FF7F
3C3C
3C1C
3C3C
3C5C
3C5C
3C9C
3D1C
3D1C
3E1C
3C1C
3C1C
3C3C
7E3E
ENDCHAR
STARTCHAR 0419
ENCODING 1049
SWIDTH 768 0
DWIDTH 16 0
BBX 16 18 0 0
BITMAP
0C30
0E30
07E0
0000
FF7F
3C3C
3C1C
3C3C
3C5C
3C5C
3C9C
3D1C
3D1C
3E1C
3C1C
3C1C
3C3C
7E3E
ENDCHAR
STARTCHAR 041A
ENCODING 1050
SWIDTH 720 0
DWIDTH 15 0
BBX 15 14 0 0
BITMAP
FF1C
3C2E
3C4E
3C40
3C40
3C80
3F80
3FC0
3DE0
3CE0
3CF0
3C70
3C78
7E3C
ENDCHAR
STARTCHAR 041B
ENCODING 1051
SWIDTH 768 0
DWIDTH 16 0
BBX 15 14 0 0
BITMAP
0FFE
0238
0238
0238
0238
0238
0238
0438
0438
0438
0438
C438
E838
707C
ENDCHAR
STARTCHAR 041C
ENCODING 1052
SWIDTH 960 0
DWIDTH 20 0
BBX 19 14 0 0
BITMAP
FC03E0
3E0780
2E0780
2E0B80
2F0B80
271380
279380
23A380
23E380
21E380
21C380
21C380
208380
7087C0
ENDCHAR
STARTCHAR 041D
ENCODING 1053
SWIDTH 768 0
DWIDTH 16 0
BBX 16 14 0 0
BITMAP
FF7F
3C1C
3C1C
3C1C
3C1C
3C1C
3FFC
3C1C
3C1C
3C1C
3C1C
3C1C
3C1C
7E3E
ENDCHAR
STARTCHAR 041E
ENCODING 1054
SWIDTH 768 0
DWIDTH 16 0
BBX 14 14 1 0
BITMAP
0FC0
3870
7038
703C
F01C
F01C
E01C
E01C
F01C
F01C
703C
7038
3870
1FE0
ENDCHAR
STARTCHAR 041F
ENCODING 1055
SWIDTH 768 0
DWIDTH 16 0
BBX 16 14 0 0
BITMAP
FFFF
3C1C
3C1C
3C1C
3C1C
3C1C
3C1C
3C1C
3C1C
3C1C
3C1C
3C1C
3C3C
7E3E
ENDCHAR
STARTCHAR 0420
ENCODING 1056
SWIDTH 624 0
DWIDTH 13 0
BBX 11 14 1 0
BITMAP
FF00
79C0
78E0
78E0
78E0
79E0
79C0
7F00
7800
7800
7800
7800
7800
7C00
ENDCHAR
STARTCHAR 0421
ENCODING 1057
SWIDTH 720 0
DWIDTH 15 0
BBX 13 14 1 0
BITMAP
0FC8
1C38
3808
7008
F008
F000
E000
E000
F000
F000
7000
7008
3810
0FE0
ENDCHAR
STARTCHAR 0422
ENCODING 1058
SWIDTH 672 0
DWIDTH 14 0
BBX 12 14 1 0
BITMAP
FFF0
8F30
8F10
0F00
0F00
0F00
0F00
0F00
0F00
0F00
0F00
0F00
0F00
1F80
ENDCHAR
STARTCHAR 0423
ENCODING 1059
SWIDTH 720 0
DWIDTH 15 0
BBX 15 14 0 0
BITMAP
FE3E
3C0C
1C08
1E08
0E10
0F20
0720
07C0
03C0
0380
0180
1900
1900
1E00
ENDCHAR
STARTCHAR 0424
ENCODING 1060
SWIDTH 864 0
DWIDTH 18 0
BBX 16 14 1 0
BITMAP
0FF0
03C0
1FF8
73CC
F3CE
E3C7
E3C7
E3C7
E3C7
E3CE
73CE
1FF8
03C0
07E0
ENDCHAR
STARTCHAR 0425
ENCODING 1061
SWIDTH 720 0
DWIDTH 15 0
BBX 14 14 0 0
BITMAP
FE7C
3C10
1E10
1E20
0F40
0780
0780
03C0
03E0
05E0
08F0
1078
3078
707C
ENDCHAR
STARTCHAR 0426
ENCODING 1062
SWIDTH 768 0
DWIDTH 16 0
BBX 16 18 0 -4
BITMAP
FF7F
3C3C
3C1C
3C1C
3C1C
3C1C
3C1C
3C1C
3C1C
3C1C
3C1C
3C1C
3C1C
3FFC
4007
0003
0001
0001
ENDCHAR
STARTCHAR 0427
ENCODING 1063
SWIDTH 720 0
DWIDTH 15 0
BBX 15 14 0 0
BITMAP
FEFE
3838
3838
3838
3838
3838
3838
3FF8
1F38
0038
0038
0038
0038
007C
ENDCHAR
STARTCHAR 0428
ENCODING 1064
SWIDTH 1104 0
DWIDTH 23 0
BBX 21 14 1 0
BITMAP
FDFDF8
7870F0
7870F0
7870F0
7870F0
7870F0
7870F0
7870F0
7870F0
7870F0
7870F0
7870F0
7870F0
7FFFF0
ENDCHAR
STARTCHAR 0429
ENCODING 1065
SWIDTH 1104 0
DWIDTH 23 0
BBX 21 17 1 -4
BITMAP
FDFDF8
7870F0
7870F0
7870F0
7870F0
7870F0
7870F0
7870F0
7870F0
7870F0
7870F0
7870F0
7870F0
7FFFF0
000038
000008
000008
ENDCHAR
STARTCHAR 042A
ENCODING 1066
SWIDTH 768 0
DWIDTH 16 0
BBX 14 14 1 0
BITMAP
FF80
8E00
8E00
0E00
0E00
0E00
0FC0
0EF8
0E3C
0E3C
0E1C
0E3C
1E38
3FF0
ENDCHAR
STARTCHAR 042B
ENCODING 1067
SWIDTH 960 0
DWIDTH 20 0
BBX 20 14 0 0
BITMAP
FF07F0
3C01C0
3C01C0
3C01C0
3C01C0
3C01C0
3F01C0
3DF1C0
3C79C0
3C79C0
3C79C0
3C79C0
3C71C0
7FE3E0
ENDCHAR
STARTCHAR 042C
ENCODING 1068
SWIDTH 672 0
DWIDTH 14 0
BBX 13 14 0 0
BITMAP
FF00
3C00
3C00
3C00
3C00
3C00
3F00
3DF0
3C78
3C78
3C78
3C78
3C70
7FE0
ENDCHAR
STARTCHAR 042D
ENCODING 1069
SWIDTH 672 0
DWIDTH 14 0
BBX 12 14 1 0
BITMAP
BF00
C1C0
80E0
80E0
00F0
0070
1FF0
0070
0070
0070
00F0
80E0
41C0
3F80
ENDCHAR
STARTCHAR 042E
ENCODING 1070
SWIDTH 1104 0
DWIDTH 23 0
BBX 23 14 0 0
BITMAP
FF0FE0
3C1830
3C3838
3C701C
3CF01C
3CF01E
3FF01E
3CF01E
3CF01E
3CF01C
3C701C
3C7038
3C3830
7E0FE0
ENDCHAR
STARTCHAR 042F
ENCODING 1071
SWIDTH 720 0
DWIDTH 15 0
BBX 15 14 0 0
BITMAP
07FE
1C38
3C38
3838
3838
3C38
1C38
07F8
0F38
0E38
1E38
3C38
7878
F87C
ENDCHAR
STARTCHAR 0430
ENCODING 1072
SWIDTH 480 0
DWIDTH 10 0
BBX 9 10 1 0
BITMAP
1C00
6600
E700
E700
0F00
3700
6700
E700
FF00
F780
ENDCHAR
STARTCHAR 0431
ENCODING 1073
SWIDTH 480 0
DWIDTH 10 0
BBX 9 14 1 0
BITMAP
1F00
3F00
7C00
4000
9C00
E600
E300
E300
E380
E380
E380
E300
6700
3E00
ENDCHAR
STARTCHAR 0432
ENCODING 1074
SWIDTH 528 0
DWIDTH 11 0
BBX 9 10 1 0
BITMAP
F800
7700
7380
7380
7700
7F00
7180
7180
7380
FF00
ENDCHAR
STARTCHAR 0433
ENCODING 1075
SWIDTH 432 0
DWIDTH 9 0
BBX 8 10 1 0
BITMAP
FF
71
70
70
70
70
70
70
70
F0
ENDCHAR
STARTCHAR 0434
ENCODING 1076
SWIDTH 528 0
DWIDTH 11 0
BBX 10 13 0 -3
BITMAP
3FC0
2380
2380
2380
2380
2380
2380
2380
4380
FF80
80C0
8040
0040
ENDCHAR
STARTCHAR 0435
ENCODING 1077
SWIDTH 432 0
DWIDTH 9 0
BBX 8 10 1 0
BITMAP
18
66
E6
C7
FF
E0
E0
E1
72
7C
ENDCHAR
STARTCHAR 0436
ENCODING 1078
SWIDTH 720 0
DWIDTH 15 0
BBX 15 10 0 0
BITMAP
67CC
F396
D396
13A0
0BA0
1FF0
3BB8
3BB8
739C
739C
ENDCHAR
STARTCHAR 0437
ENCODING 1079
SWIDTH 384 0
DWIDTH 8 0
BBX 8 10 0 0
BITMAP
3C
4E
86
06
0C
1E
07
07
87
7E
ENDCHAR
STARTCHAR 0438
ENCODING 1080
SWIDTH 576 0
DWIDTH 12 0
BBX 10 10 1 0
BITMAP
FFC0
7380
7380
7380
7780
7B80
7B80
7380
7380
F3C0
ENDCHAR
STARTCHAR 0439
ENCODING 1081
SWIDTH 576 0
DWIDTH 12 0
BBX 10 14 1 0
BITMAP
2100
3300
3F00
0000
FFC0
7380
7380
7380
7780
7B80
7B80
7380
7380
F3C0
ENDCHAR
STARTCHAR 043A
ENCODING 1082
SWIDTH 576 0
DWIDTH 12 0
BBX 11 10 1 0
BITMAP
F8C0
73E0
72E0
7400
7400
7E00
7700
7380
7380
F1C0
ENDCHAR
STARTCHAR 043B
ENCODING 1083
SWIDTH 576 0
DWIDTH 12 0
BBX 11 10 0 0
BITMAP
1FE0
11C0
11C0
11C0
11C0
11C0
11C0
D1C0
F1C0
F1C0
ENDCHAR
STARTCHAR 043C
ENCODING 1084
SWIDTH 672 0
DWIDTH 14 0
BBX 12 10 1 0
BITMAP
F070
70E0
B960
B960
B960
9E60
9E60
8C60
8C60
C8F0
ENDCHAR
STARTCHAR 043D
ENCODING 1085
SWIDTH 576 0
DWIDTH 12 0
BBX 10 10 1 0
BITMAP
FFC0
7380
7380
7380
7380
7F80
7380
7380
7380
F3C0
ENDCHAR
STARTCHAR 043E
ENCODING 1086
SWIDTH 480 0
DWIDTH 10 0
BBX 9 10 1 0
BITMAP
1C00
6600
E300
E300
E380
E380
E380
E300
6700
3E00
ENDCHAR
STARTCHAR 043F
ENCODING 1087
SWIDTH 576 0
DWIDTH 12 0
BBX 10 10 1 0
BITMAP
FFC0
7380
7380
7380
7380
7380
7380
7380
7380
F3C0
ENDCHAR
STARTCHAR 0440
ENCODING 1088
SWIDTH 576 0
DWIDTH 12 0
BBX 11 14 0 -4
BITMAP
F300
77C0
39C0
30C0
30E0
30E0
30E0
30C0
39C0
3780
3000
3000
3000
7800
ENDCHAR
STARTCHAR 0441
ENCODING 1089
SWIDTH 432 0
DWIDTH 9 0
BBX 7 10 1 0
BITMAP
1C
66
66
E6
E0
E0
E0
E0
7A
3C
ENDCHAR
STARTCHAR 0442
ENCODING 1090
SWIDTH 480 0
DWIDTH 10 0
BBX 10 10 0 0
BITMAP
FFC0
8E40
8E40
0E00
0E00
0E00
0E00
0E00
0E00
1E00
ENDCHAR
STARTCHAR 0443
ENCODING 1091
SWIDTH 480 0
DWIDTH 10 0
BBX 10 14 0 -4
BITMAP
F9C0
7080
3880
3900
3900
1D00
1E00
0E00
0C00
0400
0400
0800
6800
7000
ENDCHAR
STARTCHAR 0444
ENCODING 1092
SWIDTH 672 0
DWIDTH 14 0
BBX 13 18 1 -4
BITMAP
0F00
0700
0700
0700
37C0
7F70
E770
E730
E738
E738
E738
E730
6770
7FE0
0700
0700
0700
0F00
ENDCHAR
STARTCHAR 0445
ENCODING 1093
SWIDTH 480 0
DWIDTH 10 0
BBX 10 10 0 0
BITMAP
FFC0
3900
3A00
1E00
1C00
0E00
0F00
1700
2780
6380
ENDCHAR
STARTCHAR 0446
ENCODING 1094
SWIDTH 576 0
DWIDTH 12 0
BBX 10 12 1 -3
BITMAP
FFC0
7380
7380
7380
7380
7380
7380
7380
7380
FFC0
0040
0040
ENDCHAR
STARTCHAR 0447
ENCODING 1095
SWIDTH 576 0
DWIDTH 12 0
BBX 10 10 1 0
BITMAP
F7C0
E380
6380
6380
6380
7F80
0380
0380
0380
0380
ENDCHAR
STARTCHAR 0448
ENCODING 1096
SWIDTH 864 0
DWIDTH 18 0
BBX 16 10 1 0
BITMAP
FFDF
738E
738E
738E
738E
738E
738E
738E
738E
FFFE
ENDCHAR
STARTCHAR 0449
ENCODING 1097
SWIDTH 864 0
DWIDTH 18 0
BBX 16 13 1 -3
BITMAP
FFDF
738E
738E
738E
738E
738E
738E
738E
738E
FFFE
0003
0001
0001
ENDCHAR
STARTCHAR 044A
ENCODING 1098
SWIDTH 576 0
DWIDTH 12 0
BBX 11 10 0 0
BITMAP
FE00
9C00
9C00
1C00
1C00
1FC0
1CE0
1C60
1CE0
3FC0
ENDCHAR
STARTCHAR 044B
ENCODING 1099
SWIDTH 768 0
DWIDTH 16 0
BBX 15 10 1 0
BITMAP
F83E
701C
7018
7018
7018
7F18
7398
7398
7398
FF3C
ENDCHAR
STARTCHAR 044C
ENCODING 1100
SWIDTH 528 0
DWIDTH 11 0
BBX 9 10 1 0
BITMAP
F800
7000
7000
7000
7000
7F00
7380
7380
7380
FF00
ENDCHAR
STARTCHAR 044D
ENCODING 1101
SWIDTH 432 0
DWIDTH 9 0
BBX 8 10 0 0
BITMAP
38
46
87
07
07
0F
07
07
86
7C
ENDCHAR
STARTCHAR 044E
ENCODING 1102
SWIDTH 768 0
DWIDTH 16 0
BBX 14 10 1 0
BITMAP
F8E0
7198
731C
731C
771C
7F1C
771C
731C
7318
F1F0
ENDCHAR
STARTCHAR 044F
ENCODING 1103
SWIDTH 528 0
DWIDTH 11 0
BBX 9 10 1 0
BITMAP
1F80
E380
E300
E300
E300
3F00
3300
7300
7380
E780
ENDCHAR
STARTCHAR 0451
ENCODING 1105
SWIDTH 432 0
DWIDTH 9 0
BBX 8 14 1 0
BITMAP
66
6E
66
00
18
66
E6
C7
FF
E0
E0
E1
72
7C
ENDCHAR
STARTCHAR 0452
ENCODING 1106
SWIDTH 528 0
DWIDTH 11 0
BBX 9 18 1 -4
BITMAP
F000
7000
FF00
7000
7600
7B00
7380
7380
7380
7380
7380
7380
7380
F380
0300
0300
0200
0400
ENDCHAR
STARTCHAR 0453
ENCODING 1107
SWIDTH 432 0
DWIDTH 9 0
BBX 8 14 1 0
BITMAP
1C
18
10
00
FF
71
70
70
70
70
70
70
70
F0
ENDCHAR
STARTCHAR 0454
ENCODING 1108
SWIDTH 432 0
DWIDTH 9 0
BBX 8 10 1 0
BITMAP
1C
62
E2
E0
E0
F0
E0
E0
61
3E
ENDCHAR
STARTCHAR 0455
ENCODING 1109
SWIDTH 384 0
DWIDTH 8 0
BBX 6 10 1 0
BITMAP
74
CC
C4
E0
F8
7C
3C
8C
8C
F8
ENDCHAR
STARTCHAR 0456
ENCODING 1110
SWIDTH 288 0
DWIDTH 6 0
BBX 5 14 0 0
BITMAP
30
78
30
00
F0
70
30
30
30
30
30
30
30
78
ENDCHAR
STARTCHAR 0457
ENCODING 1111
SWIDTH 288 0
DWIDTH 6 0
BBX 6 14 0 0
BITMAP
CC
DC
CC
00
F0
70
30
30
30
30
30
30
30
78
ENDCHAR
STARTCHAR 0458
ENCODING 1112
SWIDTH 336 0
DWIDTH 7 0
BBX 6 18 -1 -4
BITMAP
1C
1C
1C
00
3C
1C
1C
1C
1C
1C
1C
1C
1C
1C
1C
1C
DC
78
ENDCHAR
STARTCHAR 0459
ENCODING 1113
SWIDTH 768 0
DWIDTH 16 0
BBX 16 10 0 0
BITMAP
1FE0
11C0
11C0
11C0
11C0
11FC
11CE
D1C7
F1CE
F3FC
ENDCHAR
STARTCHAR 045A
ENCODING 1114
SWIDTH 816 0
DWIDTH 17 0
BBX 15 10 1 0
BITMAP
FFC0
7380
7380
7380
7380
7FFC
738E
738E
738E
F3F8
ENDCHAR
STARTCHAR 045B
ENCODING 1115
SWIDTH 576 0
DWIDTH 12 0
BBX 10 14 1 0
BITMAP
F000
7000
FF00
7000
7700
7F80
7380
7380
7380
7380
7380
7380
7380
F3C0
ENDCHAR
STARTCHAR 045C
ENCODING 1116
SWIDTH 576 0
DWIDTH 12 0
BBX 11 14 1 0
BITMAP
0700
0C00
0800
0000
F8C0
73E0
72E0
7400
7400
7E00
7700
7380
7380
F1C0
ENDCHAR
STARTCHAR 045D
ENCODING 1117
SWIDTH 576 0
DWIDTH 12 0
BBX 10 14 1 0
BITMAP
3800
1800
0C00
0000
FFC0
7380
7380
7380
7780
7B80
7B80
7380
7380
F3C0
ENDCHAR
STARTCHAR 045E
ENCODING 1118
SWIDTH 480 0
DWIDTH 10 0
BBX 10 18 0 -4
BITMAP
3180
3180
1F00
0000
F9C0
7080
3880
3900
3900
1D00
1E00
0E00
0C00
0400
0400
0800
6800
7000
ENDCHAR
STARTCHAR 045F
ENCODING 1119
SWIDTH 576 0
DWIDTH 12 0
BBX 10 12 1 -3
BITMAP
FFC0
7380
7380
7380
7380
7380
7380
7380
7380
FFC0
0C00
0800
ENDCHAR
STARTCHAR 0490
ENCODING 1168
SWIDTH 528 0
DWIDTH 11 0
BBX 10 16 0 1
BITMAP
0040
0040
FFC0
3C00
3C00
3C00
3C00
3C00
3C00
3C00
3C00
3C00
3C00
3C00
3C00
7E00
ENDCHAR
STARTCHAR 0491
ENCODING 1169
SWIDTH 384 0
DWIDTH 8 0
BBX 7 11 1 0
BITMAP
02
FE
70
70
70
70
70
70
70
70
F0
ENDCHAR
STARTCHAR 0492
ENCODING 1170
SWIDTH 624 0
DWIDTH 13 0
BBX 13 14 0 0
BITMAP
FFF8
3C18
3C08
3C08
3C00
3C00
FF80
3C00
3C00
3C00
3C00
3C00
3C00
7E00
ENDCHAR
STARTCHAR 0493
ENCODING 1171
SWIDTH 432 0
DWIDTH 9 0
BBX 9 10 0 0
BITMAP
7F80
3880
3800
3800
FE00
3800
3800
3800
3800
7800
ENDCHAR
STARTCHAR 0496
ENCODING 1174
SWIDTH 1008 0
DWIDTH 21 0
BBX 20 17 0 -4
BITMAP
71FCF0
E871F0
E47130
047100
047200
047200
03FC00
077F00
0E7700
0E7380
1C7380
1C71C0
3871E0
78F8E0
000030
000010
000010
ENDCHAR
STARTCHAR 0497
ENCODING 1175
SWIDTH 720 0
DWIDTH 15 0
BBX 15 12 0 -3
BITMAP
67CC
F396
D396
13A0
0BA0
1FF0
3BB8
3BB8
739C
739C
0002
0002
ENDCHAR
STARTCHAR 049A
ENCODING 1178
SWIDTH 720 0
DWIDTH 15 0
BBX 15 18 0 -4
BITMAP
FF1C
3C2E
3C4E
3C40
3C40
3C80
3F80
3FC0
3DE0
3CE0
3CF0
3C70
3C78
3C3C
420E
0006
0002
0002
ENDCHAR
STARTCHAR 049B
ENCODING 1179
SWIDTH 576 0
DWIDTH 12 0
BBX 11 13 1 -3
BITMAP
F8C0
73E0
72E0
7400
7400
7E00
7700
7380
7380
F1C0
0060
0020
0020
ENDCHAR
STARTCHAR 049C
ENCODING 1180
SWIDTH 720 0
DWIDTH 15 0
BBX 15 14 0 0
BITMAP
FF1C
3C2E
3D4E
3D40
3D40
3D80
3F80
3FC0
3DE0
3DE0
3DF0
3D70
3C78
7E3C
ENDCHAR
STARTCHAR 049D
ENCODING 1181
SWIDTH 576 0
DWIDTH 12 0
BBX 11 10 1 0
BITMAP
F8C0
73E0
7AE0
7C00
7C00
7E00
7F00
7B80
7380
F1C0
ENDCHAR
STARTCHAR 04A2
ENCODING 1186
SWIDTH 768 0
DWIDTH 16 0
BBX 16 18 0 -4
BITMAP
FF7F
3C1C
3C1C
3C1C
3C1C
3C1C
3FFC
3C1C
3C1C
3C1C
3C1C
3C1C
3C1C
3C3E
4207
0003
0001
0001
ENDCHAR
STARTCHAR 04A3
ENCODING 1187
SWIDTH 576 0
DWIDTH 12 0
BBX 10 12 1 -3
BITMAP
FFC0
7380
7380
7380
7380
7F80
7380
7380
7380
F3C0
0040
0040
ENDCHAR
STARTCHAR 04AE
ENCODING 1198
SWIDTH 720 0
DWIDTH 15 0
BBX 15 14 0 0
BITMAP
FE1E
3C08
3C08
1E10
1E20
0F20
0740
07C0
0380
0380
0380
0380
0380
07C0
ENDCHAR
STARTCHAR 04AF
ENCODING 1199
SWIDTH 480 0
DWIDTH 10 0
BBX 10 14 0 -4
BITMAP
F9C0
7080
3880
3880
3900
1D00
1E00
1E00
0E00
0E00
0E00
0E00
0E00
1E00
ENDCHAR
STARTCHAR 04B0
ENCODING 1200
SWIDTH 720 0
DWIDTH 15 0
BBX 15 14 0 0
BITMAP
FE1E
3C08
3C08
1E10
1E20
0F20
0740
07C0
0380
1FF0
0380
0380
0380
07C0
ENDCHAR
STARTCHAR 04B1
ENCODING 1201
SWIDTH 480 0
DWIDTH 10 0
BBX 10 14 0 -4
BITMAP
F9C0
7080
3880
3880
3900
1D00
1E00
1E00
0E00
FFC0
0E00
0E00
0E00
1E00
ENDCHAR
STARTCHAR 04B2
ENCODING 1202
SWIDTH 720 0
DWIDTH 15 0
BBX 15 18 0 -4
BITMAP
FE7C
3C10
1E10
1E20
0F40
0780
0780
03C0
03E0
05E0
08F0
1078
3078
707C
000E
0006
0002
0002
ENDCHAR
STARTCHAR 04B3
ENCODING 1203
SWIDTH 480 0
DWIDTH 10 0
BBX 10 12 0 -3
BITMAP
FFC0
3900
3A00
1E00
1C00
0E00
0F00
1700
2780
6780
0040
0040
ENDCHAR
STARTCHAR 04B8
ENCODING 1208
SWIDTH 720 0
DWIDTH 15 0
BBX 15 14 0 0
BITMAP
FEFE
3838
3838
3938
3938
3938
3938
3FF8
1F38
0138
0138
0038
0038
007C
ENDCHAR
STARTCHAR 04B9
ENCODING 1209
SWIDTH 576 0
DWIDTH 12 0
BBX 10 10 1 0
BITMAP
F7C0
E380
6380
6B80
6B80
7F80
0B80
0B80
0380
03C0
ENDCHAR
STARTCHAR 04BA
ENCODING 1210
SWIDTH 720 0
DWIDTH 15 0
BBX 14 14 0 0
BITMAP
FF00
3C00
3C00
3C00
3C00
3CE0
3FF8
3C38
3C38
3C38
3C38
3C38
3C38
7C7C
ENDCHAR
STARTCHAR 04BB
ENCODING 1211
SWIDTH 576 0
DWIDTH 12 0
BBX 9 14 1 0
BITMAP
F000
7000
7000
7000
7700
7F80
7380
7380
7380
7380
7380
7380
7380
F380
ENDCHAR
STARTCHAR 04D8
ENCODING 1240
SWIDTH 720 0
DWIDTH 15 0
BBX 14 14 1 0
BITMAP
4FC0
70E0
6070
4038
0038
0038
FFFC
E03C
F03C
F038
F038
7070
3060
1FC0
ENDCHAR
STARTCHAR 04D9
ENCODING 1241
SWIDTH 432 0
DWIDTH 9 0
BBX 8 10 1 0
BITMAP
38
7C
8E
0E
06
07
FE
C6
C6
7C
ENDCHAR
STARTCHAR 04E8
ENCODING 1256
SWIDTH 768 0
DWIDTH 16 0
BBX 14 14 1 0
BITMAP
0FC0
3870
7038
703C
F01C
F01C
FFFC
E01C
F01C
F01C
703C
7038
3870
1FE0
ENDCHAR
STARTCHAR 04E9
ENCODING 1257
SWIDTH 480 0
DWIDTH 10 0
BBX 9 10 1 0
BITMAP
1C00
6600
E300
E300
E380
FF80
E380
E300
6700
3E00
ENDCHAR
STARTCHAR 05B0
ENCODING 1456
SWIDTH 336 0
DWIDTH 7 0
BBX 1 3 3 -4
BITMAP
80
00
80
ENDCHAR
STARTCHAR 05B1
ENCODING 1457
SWIDTH 336 0
DWIDTH 7 0
BBX 7 3 0 -4
BITMAP
D6
00
66
ENDCHAR
STARTCHAR 05B2
ENCODING 1458
SWIDTH 336 0
DWIDTH 7 0
BBX 5 3 1 -4
BITMAP
E8
00
08
ENDCHAR
STARTCHAR 05B3
ENCODING 1459
SWIDTH 336 0
DWIDTH 7 0
BBX 7 3 0 -4
BITMAP
F6
20
66
ENDCHAR
STARTCHAR 05B4
ENCODING 1460
SWIDTH 336 0
DWIDTH 7 0
BBX 1 1 3 -2
BITMAP
80
ENDCHAR
STARTCHAR 05B5
ENCODING 1461
SWIDTH 336 0
DWIDTH 7 0
BBX 4 1 1 -2
BITMAP
D0
ENDCHAR
STARTCHAR 05B6
ENCODING 1462
SWIDTH 336 0
DWIDTH 7 0
BBX 4 3 1 -4
BITMAP
D0
00
20
ENDCHAR
STARTCHAR 05B7
ENCODING 1463
SWIDTH 336 0
DWIDTH 7 0
BBX 4 1 1 -3
BITMAP
F0
ENDCHAR
STARTCHAR 05B8
ENCODING 1464
SWIDTH 336 0
DWIDTH 7 0
BBX 4 3 1 -4
BITMAP
F0
20
20
ENDCHAR
STARTCHAR 05B9
ENCODING 1465
SWIDTH 336 0
DWIDTH 7 0
BBX 1 2 3 12
BITMAP
80
80
ENDCHAR
STARTCHAR 05BA
ENCODING 1466
SWIDTH 336 0
DWIDTH 7 0
BBX 1 2 3 12
BITMAP
80
80
ENDCHAR
STARTCHAR 05BB
ENCODING 1467
SWIDTH 336 0
DWIDTH 7 0
BBX 7 3 0 -4
BITMAP
C0
10
06
ENDCHAR
STARTCHAR 05BC
ENCODING 1468
SWIDTH 336 0
DWIDTH 7 0
BBX 1 1 3 5
BITMAP
80
ENDCHAR
STARTCHAR 05BD
ENCODING 1469
SWIDTH 336 0
DWIDTH 7 0
BBX 1 3 3 -4
BITMAP
80
80
80
ENDCHAR
STARTCHAR 05BE
ENCODING 1470
SWIDTH 384 0
DWIDTH 8 0
BBX 6 4 1 7
BITMAP
FC
FC
FC
FC
ENDCHAR
STARTCHAR 05BF
ENCODING 1471
SWIDTH 336 0
DWIDTH 7 0
BBX 4 1 1 12
BITMAP
F0
ENDCHAR
STARTCHAR 05C0
ENCODING 1472
SWIDTH 336 0
DWIDTH 7 0
BBX 3 13 2 -1
BITMAP
E0
E0
E0
E0
E0
E0
E0
E0
E0
E0
E0
E0
E0
ENDCHAR
STARTCHAR 05C1
ENCODING 1473
SWIDTH 336 0
DWIDTH 7 0
BBX 2 2 7 12
BITMAP
C0
80
ENDCHAR
STARTCHAR 05C2
ENCODING 1474
SWIDTH 336 0
DWIDTH 7 0
BBX 1 2 -1 12
BITMAP
80
80
ENDCHAR
STARTCHAR 05C3
ENCODING 1475
SWIDTH 336 0
DWIDTH 7 0
BBX 3 11 2 0
BITMAP
E0
E0
E0
00
00
00
00
00
E0
E0
E0
ENDCHAR
STARTCHAR 05D0
ENCODING 1488
SWIDTH 528 0
DWIDTH 11 0
BBX 9 12 1 0
BITMAP
0400
C700
E780
F780
FB80
7E00
5E00
CF00
C780
E380
F180
F080
ENDCHAR
STARTCHAR 05D1
ENCODING 1489
SWIDTH 480 0
DWIDTH 10 0
BBX 9 11 0 0
BITMAP
7E00
7F00
7F00
3F00
0100
0100
0100
7F80
7F80
7F80
FF80
ENDCHAR
STARTCHAR 05D2
ENCODING 1490
SWIDTH 384 0
DWIDTH 8 0
BBX 7 11 0 1
BITMAP
78
7C
7C
3C
08
04
0C
7E
76
72
F2
ENDCHAR
STARTCHAR 05D3
ENCODING 1491
SWIDTH 480 0
DWIDTH 10 0
BBX 8 11 1 0
BITMAP
FF
FF
FF
7F
04
0C
0C
0C
0C
0C
08
ENDCHAR
STARTCHAR 05D4
ENCODING 1492
SWIDTH 528 0
DWIDTH 11 0
BBX 9 11 1 0
BITMAP
FF80
FF80
FF80
7F80
0100
0300
6300
C300
C300
C300
C300
ENDCHAR
STARTCHAR 05D5
ENCODING 1493
SWIDTH 288 0
DWIDTH 6 0
BBX 4 12 1 0
BITMAP
80
E0
F0
F0
70
10
10
10
10
10
10
10
ENDCHAR
STARTCHAR 05D6
ENCODING 1494
SWIDTH 336 0
DWIDTH 7 0
BBX 5 12 1 0
BITMAP
80
F0
F8
F8
78
20
60
60
60
60
20
60
ENDCHAR
STARTCHAR 05D7
ENCODING 1495
SWIDTH 528 0
DWIDTH 11 0
BBX 9 11 1 0
BITMAP
FF80
FF80
FF80
FF00
4100
4300
C300
C300
C300
C300
8200
ENDCHAR
STARTCHAR 05D8
ENCODING 1496
SWIDTH 528 0
DWIDTH 11 0
BBX 9 12 1 0
BITMAP
8000
E300
F780
F780
F580
4880
4080
4080
7F80
7F80
7F80
7F00
ENDCHAR
STARTCHAR 05D9
ENCODING 1497
SWIDTH 288 0
DWIDTH 6 0
BBX 5 7 1 5
BITMAP
F0
F8
F8
78
08
10
10
ENDCHAR
STARTCHAR 05DA
ENCODING 1498
SWIDTH 480 0
DWIDTH 10 0
BBX 8 14 1 -4
BITMAP
FE
FF
FF
FE
02
02
02
02
02
02
02
02
02
02
ENDCHAR
STARTCHAR 05DB
ENCODING 1499
SWIDTH 432 0
DWIDTH 9 0
BBX 8 11 0 0
BITMAP
7C
7E
7F
3F
01
01
01
7F
7F
7F
FE
ENDCHAR
STARTCHAR 05DC
ENCODING 1500
SWIDTH 432 0
DWIDTH 9 0
BBX 8 16 0 0
BITMAP
80
C0
E0
40
40
7E
7F
7F
7F
01
01
03
06
0C
08
08
ENDCHAR
STARTCHAR 05DD
ENCODING 1501
SWIDTH 528 0
DWIDTH 11 0
BBX 9 11 1 0
BITMAP
FE00
FF00
FF00
7F80
4180
C180
8180
FF80
FF80
FF80
FF80
ENDCHAR
STARTCHAR 05DE
ENCODING 1502
SWIDTH 528 0
DWIDTH 11 0
BBX 9 12 1 0
BITMAP
8000
E600
E700
EF80
7F80
3180
6080
4080
CF80
8F80
9F80
9F80
ENDCHAR
STARTCHAR 05DF
ENCODING 1503
SWIDTH 336 0
DWIDTH 7 0
BBX 5 14 1 -3
BITMAP
F0
F8
F8
78
10
10
10
10
10
18
18
18
18
10
ENDCHAR
STARTCHAR 05E0
ENCODING 1504
SWIDTH 336 0
DWIDTH 7 0
BBX 6 11 0 1
BITMAP
78
7C
7C
38
08
08
08
7C
7C
7C
FC
ENDCHAR
STARTCHAR 05E1
ENCODING 1505
SWIDTH 480 0
DWIDTH 10 0
BBX 8 11 1 0
BITMAP
FC
FE
FF
FF
41
81
81
E3
FF
7E
3E
ENDCHAR
STARTCHAR 05E2
ENCODING 1506
SWIDTH 528 0
DWIDTH 11 0
BBX 10 13 0 -1
BITMAP
0200
7380
7BC0
7BC0
39C0
2080
3880
1980
0B80
7F80
7F00
7E00
C000
ENDCHAR
STARTCHAR 05E3
ENCODING 1507
SWIDTH 480 0
DWIDTH 10 0
BBX 8 14 1 -4
BITMAP
FE
FF
FF
FF
41
41
F1
F1
C1
01
01
01
01
01
ENDCHAR
STARTCHAR 05E4
ENCODING 1508
SWIDTH 480 0
DWIDTH 10 0
BBX 8 11 1 0
BITMAP
FC
FE
FE
7E
83
E1
81
FF
FE
FE
FC
ENDCHAR
STARTCHAR 05E5
ENCODING 1509
SWIDTH 576 0
DWIDTH 12 0
BBX 10 15 1 -4
BITMAP
8000
E780
F7C0
F3C0
71C0
1200
1400
3800
3800
3000
3000
3000
3000
3000
3000
ENDCHAR
STARTCHAR 05E6
ENCODING 1510
SWIDTH 528 0
DWIDTH 11 0
BBX 9 11 1 1
BITMAP
E700
F780
F780
7380
1200
1E00
0E00
FF00
FF80
FF00
FF00
ENDCHAR
STARTCHAR 05E7
ENCODING 1511
SWIDTH 480 0
DWIDTH 10 0
BBX 8 15 1 -4
BITMAP
FE
FF
FF
7F
01
41
C2
C4
C8
D8
D8
C0
C0
80
80
ENDCHAR
STARTCHAR 05E8
ENCODING 1512
SWIDTH 480 0
DWIDTH 10 0
BBX 8 11 1 0
BITMAP
FC
FE
FE
FF
03
03
03
03
03
03
02
ENDCHAR
STARTCHAR 05E9
ENCODING 1513
SWIDTH 672 0
DWIDTH 14 0
BBX 13 11 1 1
BITMAP
EE70
EF78
FF78
6738
4610
4420
4C60
7FC0
7FC0
7FC0
7FC0
ENDCHAR
STARTCHAR 05EA
ENCODING 1514
SWIDTH 528 0
DWIDTH 11 0
BBX 10 11 0 0
BITMAP
3F00
7F80
7FC0
3FC0
10C0
1040
1040
7040
7040
7040
F040
ENDCHAR
STARTCHAR 05F0
ENCODING 1520
SWIDTH 576 0
DWIDTH 12 0
BBX 10 12 1 0
BITMAP
8200
E380
F3C0
F3C0
71C0
1040
1040
1040
1040
1040
1040
1040
ENDCHAR
STARTCHAR 05F1
ENCODING 1521
SWIDTH 624 0
DWIDTH 13 0
BBX 11 11 1 1
BITMAP
F3C0
FBC0
FBE0
79E0
0860
1060
1060
0060
0060
0060
0040
ENDCHAR
STARTCHAR 05F2
ENCODING 1522
SWIDTH 624 0
DWIDTH 13 0
BBX 11 7 1 5
BITMAP
F3C0
FBE0
FBE0
79E0
0820
1020
1040
ENDCHAR
STARTCHAR 05F3
ENCODING 1523
SWIDTH 240 0
DWIDTH 5 0
BBX 3 6 1 5
BITMAP
60
60
60
40
C0
80
ENDCHAR
STARTCHAR 05F4
ENCODING 1524
SWIDTH 480 0
DWIDTH 10 0
BBX 8 6 1 5
BITMAP
67
67
66
46
C4
84
ENDCHAR
STARTCHAR 060C
ENCODING 1548
SWIDTH 336 0
DWIDTH 7 0
BBX 3 6 2 3
BITMAP
40
80
80
C0
E0
E0
ENDCHAR
STARTCHAR 061B
ENCODING 1563
SWIDTH 336 0
DWIDTH 7 0
BBX 3 9 2 4
BITMAP
40
80
80
E0
E0
40
00
E0
E0
ENDCHAR
STARTCHAR 061F
ENCODING 1567
SWIDTH 336 0
DWIDTH 7 0
BBX 6 12 1 3
BITMAP
70
C8
DC
DC
E0
60
20
20
00
00
70
30
ENDCHAR
STARTCHAR 0621
ENCODING 1569
SWIDTH 480 0
DWIDTH 10 0
BBX 8 10 1 1
BITMAP
18
3C
7C
48
E3
FE
7E
30
60
40
ENDCHAR
STARTCHAR 0622
ENCODING 1570
SWIDTH 240 0
DWIDTH 5 0
BBX 5 15 0 2
BITMAP
F8
00
20
20
60
20
20
30
30
30
30
30
30
20
20
ENDCHAR
STARTCHAR 0623
ENCODING 1571
SWIDTH 240 0
DWIDTH 5 0
BBX 3 16 1 2
BITMAP
40
E0
80
40
40
C0
40
40
60
60
60
60
60
60
40
40
ENDCHAR
STARTCHAR 0624
ENCODING 1572
SWIDTH 432 0
DWIDTH 9 0
BBX 9 15 0 -1
BITMAP
0800
1000
1800
0000
0380
0380
0780
0480
0780
0780
0380
0180
8380
7F00
3E00
ENDCHAR
STARTCHAR 0625
ENCODING 1573
SWIDTH 240 0
DWIDTH 5 0
BBX 3 17 1 -2
BITMAP
40
40
C0
40
40
60
60
60
60
60
60
40
40
00
40
80
C0
ENDCHAR
STARTCHAR 0626
ENCODING 1574
SWIDTH 624 0
DWIDTH 13 0
BBX 10 12 2 -1
BITMAP
C000
E080
01C0
03C0
4640
8400
8780
8780
8080
8380
FF00
FC00
ENDCHAR
STARTCHAR 0627
ENCODING 1575
SWIDTH 240 0
DWIDTH 5 0
BBX 3 13 1 2
BITMAP
40
40
C0
40
40
60
60
60
60
60
60
40
40
ENDCHAR
STARTCHAR 0628
ENCODING 1576
SWIDTH 672 0
DWIDTH 14 0
BBX 13 11 1 -1
BITMAP
8010
8010
8010
8018
FFF8
FFF8
7FF8
0000
0200
0700
0300
ENDCHAR
STARTCHAR 0629
ENCODING 1577
SWIDTH 336 0
DWIDTH 7 0
BBX 5 13 1 3
BITMAP
10
F8
F0
40
00
40
70
78
78
98
98
F8
F0
ENDCHAR
STARTCHAR 062A
ENCODING 1578
SWIDTH 672 0
DWIDTH 14 0
BBX 13 10 1 4
BITMAP
0380
0F00
0C00
8010
8010
8010
8018
FFF8
FFF8
7FF8
ENDCHAR
STARTCHAR 062B
ENCODING 1579
SWIDTH 672 0
DWIDTH 14 0
BBX 13 13 1 3
BITMAP
0400
0E00
0400
0380
0F00
0C00
8010
8010
8010
8018
FFF8
FFF8
7FF8
ENDCHAR
STARTCHAR 062C
ENCODING 1580
SWIDTH 576 0
DWIDTH 12 0
BBX 11 15 1 -4
BITMAP
7FC0
FF80
FF80
3C00
6000
4000
8400
8E00
8E00
8000
C000
E000
FEE0
7FC0
1F00
ENDCHAR
STARTCHAR 062D
ENCODING 1581
SWIDTH 576 0
DWIDTH 12 0
BBX 11 15 1 -4
BITMAP
7FC0
FF80
FF80
3C00
6000
4000
8000
8000
8000
8000
C000
E000
FEE0
7FC0
1F00
ENDCHAR
STARTCHAR 062E
ENCODING 1582
SWIDTH 576 0
DWIDTH 12 0
BBX 11 19 1 -3
BITMAP
1C00
1C00
0800
0000
7FC0
FF80
FF80
3C00
6000
4000
8000
8000
8000
8000
C000
E000
FEE0
7FC0
1F00
ENDCHAR
STARTCHAR 062F
ENCODING 1583
SWIDTH 336 0
DWIDTH 7 0
BBX 6 9 1 4
BITMAP
18
18
1C
0C
04
04
FC
FC
FC
ENDCHAR
STARTCHAR 0630
ENCODING 1584
SWIDTH 336 0
DWIDTH 7 0
BBX 6 14 1 4
BITMAP
70
70
20
00
00
18
18
1C
0C
04
04
FC
FC
FC
ENDCHAR
STARTCHAR 0631
ENCODING 1585
SWIDTH 432 0
DWIDTH 9 0
BBX 9 10 0 -1
BITMAP
0100
0180
0180
0080
0080
0080
0180
0380
CF00
3E00
ENDCHAR
STARTCHAR 0632
ENCODING 1586
SWIDTH 432 0
DWIDTH 9 0
BBX 9 15 0 -2
BITMAP
0300
0700
0300
0000
0000
0100
0180
0180
0080
0080
0080
0180
0380
CF00
3E00
ENDCHAR
STARTCHAR 0633
ENCODING 1587
SWIDTH 912 0
DWIDTH 19 0
BBX 18 10 1 0
BITMAP
004040
40C2C0
40C2C0
807FC0
807FC0
807DC0
804000
E1C000
FFC000
7F8000
ENDCHAR
STARTCHAR 0634
ENCODING 1588
SWIDTH 912 0
DWIDTH 19 0
BBX 18 17 1 -1
BITMAP
000400
000E00
000500
000B80
000F00
000C00
000000
004040
40C2C0
40C2C0
807FC0
807FC0
807DC0
804000
E1C000
FFC000
7F8000
ENDCHAR
STARTCHAR 0635
ENCODING 1589
SWIDTH 1056 0
DWIDTH 22 0
BBX 21 11 1 0
BITMAP
0000F8
0041F8
40C798
40CE08
807FF8
807FF8
807FF8
804000
E1C000
FFC000
7F8000
ENDCHAR
STARTCHAR 0636
ENCODING 1590
SWIDTH 1056 0
DWIDTH 22 0
BBX 21 16 1 -1
BITMAP
000600
000700
000600
000000
000000
0000F8
0041F8
40C798
40CE08
807FF8
807FF8
807FF8
804000
E1C000
FFC000
7F8000
ENDCHAR
STARTCHAR 0637
ENCODING 1591
SWIDTH 528 0
DWIDTH 11 0
BBX 12 14 -1 3
BITMAP
1000
1800
1C00
1C00
1800
0800
0800
09E0
0BF0
0E30
1C30
FFF0
FFF0
FFF0
ENDCHAR
STARTCHAR 0638
ENCODING 1592
SWIDTH 528 0
DWIDTH 11 0
BBX 12 14 -1 3
BITMAP
1000
1800
1C80
1DC0
19C0
0800
0800
09E0
0BF0
0E30
1C30
FFF0
FFF0
FFF0
ENDCHAR
STARTCHAR 0639
ENCODING 1593
SWIDTH 528 0
DWIDTH 11 0
BBX 10 16 1 -4
BITMAP
7E00
7F00
C000
C100
FF00
7F00
7800
6000
C000
8000
8000
8000
C000
FC40
FF80
3E00
ENDCHAR
STARTCHAR 063A
ENCODING 1594
SWIDTH 528 0
DWIDTH 11 0
BBX 10 21 1 -4
BITMAP
3000
3800
3000
0000
0000
7E00
7F00
C000
C100
FF00
7F00
7800
6000
C000
8000
8000
8000
C000
FC40
FF80
3E00
ENDCHAR
STARTCHAR 0640
ENCODING 1600
SWIDTH 192 0
DWIDTH 4 0
BBX 5 3 -1 3
BITMAP
F8
F8
F8
ENDCHAR
STARTCHAR 0641
ENCODING 1601
SWIDTH 768 0
DWIDTH 16 0
BBX 16 13 0 3
BITMAP
000C
000E
000C
0000
0000
000E
401E
401F
401B
401F
FFFF
7FFF
7FFF
ENDCHAR
STARTCHAR 0642
ENCODING 1602
SWIDTH 624 0
DWIDTH 13 0
BBX 13 17 0 -3
BITMAP
0020
00B0
01F0
0080
0020
0070
00F0
00B8
20F8
40F8
40F8
4008
C008
E038
7FF0
7FE0
0F80
ENDCHAR
STARTCHAR 0643
ENCODING 1603
SWIDTH 528 0
DWIDTH 11 0
BBX 11 13 0 3
BITMAP
0040
00E0
02E0
0460
0640
0740
0360
4E20
4020
C020
FFE0
7FE0
3FE0
ENDCHAR
STARTCHAR 0644
ENCODING 1604
SWIDTH 432 0
DWIDTH 9 0
BBX 9 17 0 -1
BITMAP
0100
0180
0380
0180
0100
0180
0180
0080
2080
4080
4080
4080
C080
C180
FF80
7F00
3C00
ENDCHAR
STARTCHAR 0645
ENCODING 1605
SWIDTH 384 0
DWIDTH 8 0
BBX 8 13 0 -4
BITMAP
18
3C
2E
07
7F
7F
C0
C0
40
40
40
40
40
ENDCHAR
STARTCHAR 0646
ENCODING 1606
SWIDTH 528 0
DWIDTH 11 0
BBX 10 14 1 -1
BITMAP
0800
0E00
1C00
0400
0040
40C0
40C0
8040
8040
8040
8040
E1C0
FFC0
7F80
ENDCHAR
STARTCHAR 0647
ENCODING 1607
SWIDTH 336 0
DWIDTH 7 0
BBX 5 8 1 3
BITMAP
40
70
78
78
98
98
F8
F0
ENDCHAR
STARTCHAR 0648
ENCODING 1608
SWIDTH 432 0
DWIDTH 9 0
BBX 9 11 0 -1
BITMAP
0380
0380
0780
0480
0780
0780
0380
0180
8380
7F00
3E00
ENDCHAR
STARTCHAR 0649
ENCODING 1609
SWIDTH 624 0
DWIDTH 13 0
BBX 10 11 2 -1
BITMAP
0080
01C0
03C0
4640
8400
8780
8780
8080
8380
FF00
FC00
ENDCHAR
STARTCHAR 064A
ENCODING 1610
SWIDTH 624 0
DWIDTH 13 0
BBX 10 14 2 -4
BITMAP
0080
01C0
03C0
4640
8400
8780
8780
8080
8380
FF00
FC00
0000
1E00
1A00
ENDCHAR
STARTCHAR 064B
ENCODING 1611
SWIDTH 192 0
DWIDTH 4 0
BBX 3 4 1 14
BITMAP
20
C0
60
80
ENDCHAR
STARTCHAR 064C
ENCODING 1612
SWIDTH 240 0
DWIDTH 5 0
BBX 4 4 1 14
BITMAP
30
B0
B0
C0
ENDCHAR
STARTCHAR 064D
ENCODING 1613
SWIDTH 192 0
DWIDTH 4 0
BBX 3 4 1 -3
BITMAP
20
C0
60
80
ENDCHAR
STARTCHAR 064E
ENCODING 1614
SWIDTH 192 0
DWIDTH 4 0
BBX 3 2 1 14
BITMAP
60
80
ENDCHAR
STARTCHAR 064F
ENCODING 1615
SWIDTH 192 0
DWIDTH 4 0
BBX 3 5 1 14
BITMAP
20
60
60
40
80
ENDCHAR
STARTCHAR 0650
ENCODING 1616
SWIDTH 192 0
DWIDTH 4 0
BBX 3 2 1 -1
BITMAP
20
C0
ENDCHAR
STARTCHAR 0651
ENCODING 1617
SWIDTH 192 0
DWIDTH 4 0
BBX 3 3 1 15
BITMAP
60
E0
80
ENDCHAR
STARTCHAR 0652
ENCODING 1618
SWIDTH 144 0
DWIDTH 3 0
BBX 2 3 1 14
BITMAP
C0
C0
C0
ENDCHAR
STARTCHAR 0653
ENCODING 1619
SWIDTH 240 0
DWIDTH 5 0
BBX 5 1 0 16
BITMAP
F8
ENDCHAR
STARTCHAR 0654
ENCODING 1620
SWIDTH 240 0
DWIDTH 5 0
BBX 3 2 1 17
BITMAP
C0
60
ENDCHAR
STARTCHAR 0655
ENCODING 1621
SWIDTH 240 0
DWIDTH 5 0
BBX 3 2 1 -2
BITMAP
C0
60
ENDCHAR
STARTCHAR 0660
ENCODING 1632
SWIDTH 576 0
DWIDTH 12 0
BBX 3 5 4 5
BITMAP
40
E0
E0
60
20
ENDCHAR
STARTCHAR 0661
ENCODING 1633
SWIDTH 576 0
DWIDTH 12 0
BBX 3 12 4 3
BITMAP
80
C0
C0
E0
E0
60
60
20
20
20
20
20
ENDCHAR
STARTCHAR 0662
ENCODING 1634
SWIDTH 576 0
DWIDTH 12 0
BBX 6 12 3 3
BITMAP
84
C4
FC
FC
78
60
30
30
10
10
10
10
ENDCHAR
STARTCHAR 0663
ENCODING 1635
SWIDTH 576 0
DWIDTH 12 0
BBX 8 12 2 3
BITMAP
01
CD
FF
FF
F6
60
60
20
20
20
20
20
ENDCHAR
STARTCHAR 0664
ENCODING 1636
SWIDTH 576 0
DWIDTH 12 0
BBX 5 11 3 4
BITMAP
10
30
40
F0
F8
70
20
60
78
78
38
ENDCHAR
STARTCHAR 0665
ENCODING 1637
SWIDTH 576 0
DWIDTH 12 0
BBX 7 8 2 5
BITMAP
3C
3E
7E
46
42
FE
FC
78
ENDCHAR
STARTCHAR 0666
ENCODING 1638
SWIDTH 576 0
DWIDTH 12 0
BBX 7 11 2 3
BITMAP
80
F8
F8
F8
08
08
08
0C
0E
0E
06
ENDCHAR
STARTCHAR 0667
ENCODING 1639
SWIDTH 576 0
DWIDTH 12 0
BBX 8 12 2 3
BITMAP
01
82
C2
C6
E6
64
2C
38
18
18
18
10
ENDCHAR
STARTCHAR 0668
ENCODING 1640
SWIDTH 576 0
DWIDTH 12 0
BBX 8 12 2 3
BITMAP
10
10
18
28
28
2C
6E
46
C7
C3
83
01
ENDCHAR
STARTCHAR 0669
ENCODING 1641
SWIDTH 576 0
DWIDTH 12 0
BBX 7 12 2 3
BITMAP
38
78
78
48
F8
78
7C
0C
0C
06
06
04
ENDCHAR
STARTCHAR 066A
ENCODING 1642
SWIDTH 528 0
DWIDTH 11 0
BBX 7 14 2 2
BITMAP
C2
C2
04
04
08
08
10
10
20
20
40
40
86
86
ENDCHAR
STARTCHAR 066B
ENCODING 1643
SWIDTH 336 0
DWIDTH 7 0
BBX 3 6 2 0
BITMAP
40
E0
E0
40
40
80
ENDCHAR
STARTCHAR 066C
ENCODING 1644
SWIDTH 336 0
DWIDTH 7 0
BBX 3 6 2 3
BITMAP
40
80
80
C0
E0
E0
ENDCHAR
STARTCHAR 066D
ENCODING 1645
SWIDTH 528 0
DWIDTH 11 0
BBX 7 7 2 9
BITMAP
54
5C
B6
FE
7C
54
10
ENDCHAR
STARTCHAR 066E
ENCODING 1646
SWIDTH 672 0
DWIDTH 14 0
BBX 13 7 1 3
BITMAP
8010
8010
8010
8018
FFF8
FFF8
7FF8
ENDCHAR
STARTCHAR 066F
ENCODING 1647
SWIDTH 624 0
DWIDTH 13 0
BBX 13 13 0 -3
BITMAP
0020
0070
00F0
00B8
20F8
40F8
40F8
4008
C008
E038
7FF0
7FE0
0F80
ENDCHAR
STARTCHAR 0670
ENCODING 1648
SWIDTH 0 0
DWIDTH 0 0
BBX 2 4 -1 12
BITMAP
80
80
40
40
ENDCHAR
STARTCHAR 0671
ENCODING 1649
SWIDTH 240 0
DWIDTH 5 0
BBX 4 17 0 2
BITMAP
10
70
F0
80
20
20
60
20
20
30
30
30
30
30
30
20
20
ENDCHAR
STARTCHAR 0672
ENCODING 1650
SWIDTH 240 0
DWIDTH 5 0
BBX 3 16 1 3
BITMAP
C0
60
80
40
40
C0
40
40
60
60
60
60
60
60
40
40
ENDCHAR
STARTCHAR 0673
ENCODING 1651
SWIDTH 240 0
DWIDTH 5 0
BBX 4 17 0 -2
BITMAP
20
20
60
20
20
30
30
30
30
30
30
20
20
00
30
20
C0
ENDCHAR
STARTCHAR 0674
ENCODING 1652
SWIDTH 240 0
DWIDTH 5 0
BBX 3 2 1 17
BITMAP
C0
60
ENDCHAR
STARTCHAR 0675
ENCODING 1653
SWIDTH 240 0
DWIDTH 5 0
BBX 5 13 1 2
BITMAP
78
58
C0
40
40
60
60
60
60
60
60
40
40
ENDCHAR
STARTCHAR 0676
ENCODING 1654
SWIDTH 432 0
DWIDTH 9 0
BBX 10 15 0 -1
BITMAP
00C0
00C0
0000
0000
0380
0380
0780
0480
0780
0780
0380
0180
8380
7F00
3E00
ENDCHAR
STARTCHAR 0677
ENCODING 1655
SWIDTH 432 0
DWIDTH 9 0
BBX 10 16 0 -1
BITMAP
0600
06C0
02C0
0C00
0000
0380
0380
0780
0480
0780
0780
0380
0180
8380
7F00
3E00
ENDCHAR
STARTCHAR 0678
ENCODING 1656
SWIDTH 624 0
DWIDTH 13 0
BBX 11 15 2 -1
BITMAP
0060
0060
0000
0000
0080
01C0
03C0
4640
8400
8780
8780
8080
8380
FF00
FC00
ENDCHAR
STARTCHAR 0679
ENCODING 1657
SWIDTH 672 0
DWIDTH 14 0
BBX 13 14 1 3
BITMAP
0C00
0400
0400
0780
0480
1F80
0000
8010
8010
8010
8018
FFF8
FFF8
7FF8
ENDCHAR
STARTCHAR 067A
ENCODING 1658
SWIDTH 672 0
DWIDTH 14 0
BBX 13 13 1 3
BITMAP
0400
0C00
0C00
0300
0700
0200
8010
8010
8010
8018
FFF8
FFF8
7FF8
ENDCHAR
STARTCHAR 067B
ENCODING 1659
SWIDTH 672 0
DWIDTH 14 0
BBX 13 13 1 -4
BITMAP
8010
8010
8010
8018
FFF8
FFF8
7FF8
0000
0600
0600
0200
0180
0380
ENDCHAR
STARTCHAR 067C
ENCODING 1660
SWIDTH 672 0
DWIDTH 14 0
BBX 13 12 1 2
BITMAP
0380
0F00
0C00
8010
8010
8010
8018
FFF8
FFF8
7FF8
0500
0700
ENDCHAR
STARTCHAR 067D
ENCODING 1661
SWIDTH 672 0
DWIDTH 14 0
BBX 13 13 1 3
BITMAP
0200
0F00
1F00
0A00
0300
0300
8010
8010
8010
8018
FFF8
FFF8
7FF8
ENDCHAR
STARTCHAR 067E
ENCODING 1662
SWIDTH 672 0
DWIDTH 14 0
BBX 13 14 1 -4
BITMAP
8010
8010
8010
8018
FFF8
FFF8
7FF8
0000
0100
0F80
0D00
0700
0300
0100
ENDCHAR
STARTCHAR 067F
ENCODING 1663
SWIDTH 672 0
DWIDTH 14 0
BBX 13 13 1 3
BITMAP
0200
1E00
1B00
0D80
0F80
0C00
8010
8010
8010
8018
FFF8
FFF8
7FF8
ENDCHAR
STARTCHAR 0680
ENCODING 1664
SWIDTH 672 0
DWIDTH 14 0
BBX 13 14 1 -4
BITMAP
8010
8010
8010
8018
FFF8
FFF8
7FF8
0000
0300
0F00
1D00
01C0
0780
0600
ENDCHAR
STARTCHAR 0681
ENCODING 1665
SWIDTH 576 0
DWIDTH 12 0
BBX 11 19 1 -4
BITMAP
0400
0E00
0000
0000
7FC0
FF80
FF80
3C00
6000
4000
8000
8000
8000
8000
C000
E000
FEE0
7FC0
1F00
ENDCHAR
STARTCHAR 0682
ENCODING 1666
SWIDTH 576 0
DWIDTH 12 0
BBX 11 22 1 -4
BITMAP
1000
1800
1800
0C00
0C00
0400
0000
7FC0
FF80
FF80
3C00
6000
4000
8000
8000
8000
8000
C000
E000
FEE0
7FC0
1F00
ENDCHAR
STARTCHAR 0683
ENCODING 1667
SWIDTH 576 0
DWIDTH 12 0
BBX 11 15 1 -4
BITMAP
7FC0
FF80
FF80
3C00
6000
4000
8300
8F00
9C00
8000
C000
E000
FEE0
7FC0
1F00
ENDCHAR
STARTCHAR 0684
ENCODING 1668
SWIDTH 576 0
DWIDTH 12 0
BBX 11 15 1 -4
BITMAP
7FC0
FF80
FF80
3C00
6000
4000
8C00
8C00
8200
8700
C600
E000
FEE0
7FC0
1F00
ENDCHAR
STARTCHAR 0685
ENCODING 1669
SWIDTH 576 0
DWIDTH 12 0
BBX 11 22 1 -4
BITMAP
0C00
1C00
0A00
1F00
1A00
0800
0000
7FC0
FF80
FF80
3C00
6000
4000
8000
8000
8000
8000
C000
E000
FEE0
7FC0
1F00
ENDCHAR
STARTCHAR 0686
ENCODING 1670
SWIDTH 576 0
DWIDTH 12 0
BBX 11 15 1 -4
BITMAP
7FC0
FF80
FF80
3C00
6000
4200
9F00
9A00
8800
8600
C600
E000
FEE0
7FC0
1F00
ENDCHAR
STARTCHAR 0687
ENCODING 1671
SWIDTH 576 0
DWIDTH 12 0
BBX 11 15 1 -4
BITMAP
7FC0
FF80
FF80
3C00
6000
4300
9F00
9900
8D80
8780
C400
E000
FEE0
7FC0
1F00
ENDCHAR
STARTCHAR 0688
ENCODING 1672
SWIDTH 336 0
DWIDTH 7 0
BBX 6 16 1 3
BITMAP
40
40
40
40
38
48
F8
00
08
1C
1C
0C
04
FC
FC
FC
ENDCHAR
STARTCHAR 0689
ENCODING 1673
SWIDTH 336 0
DWIDTH 7 0
BBX 6 11 1 2
BITMAP
18
18
1C
0C
04
04
FC
FC
FC
48
30
ENDCHAR
STARTCHAR 068A
ENCODING 1674
SWIDTH 336 0
DWIDTH 7 0
BBX 6 13 1 0
BITMAP
18
18
1C
0C
04
04
FC
FC
FC
00
30
38
30
ENDCHAR
STARTCHAR 068B
ENCODING 1675
SWIDTH 336 0
DWIDTH 7 0
BBX 6 20 1 -1
BITMAP
40
40
40
40
38
48
F8
00
08
1C
1C
0C
04
FC
FC
FC
00
30
38
30
ENDCHAR
STARTCHAR 068C
ENCODING 1676
SWIDTH 336 0
DWIDTH 7 0
BBX 6 15 1 3
BITMAP
10
58
F8
40
00
00
18
18
1C
0C
04
04
FC
FC
FC
ENDCHAR
STARTCHAR 068D
ENCODING 1677
SWIDTH 336 0
DWIDTH 7 0
BBX 6 14 1 -1
BITMAP
18
18
1C
0C
04
04
FC
FC
FC
00
08
7C
68
20
ENDCHAR
STARTCHAR 068E
ENCODING 1678
SWIDTH 336 0
DWIDTH 7 0
BBX 6 15 1 4
BITMAP
70
60
38
78
E8
00
00
08
1C
1C
0C
04
FC
FC
FC
ENDCHAR
STARTCHAR 068F
ENCODING 1679
SWIDTH 336 0
DWIDTH 7 0
BBX 6 15 1 4
BITMAP
B8
F0
C0
30
30
00
00
08
1C
1C
0C
04
FC
FC
FC
ENDCHAR
STARTCHAR 0690
ENCODING 1680
SWIDTH 336 0
DWIDTH 7 0
BBX 6 15 1 4
BITMAP
B8
F0
C8
3C
78
60
00
08
1C
1C
0C
04
FC
FC
FC
ENDCHAR
STARTCHAR 0691
ENCODING 1681
SWIDTH 432 0
DWIDTH 9 0
BBX 9 18 0 -2
BITMAP
0C00
0400
0400
0780
0C80
1F80
0000
0000
0100
0180
0180
0080
0080
0080
0180
0380
CF00
3E00
ENDCHAR
STARTCHAR 0692
ENCODING 1682
SWIDTH 432 0
DWIDTH 9 0
BBX 9 14 0 -2
BITMAP
0300
0300
0000
0000
0100
0180
0180
0080
0080
0080
0180
0380
CF00
3E00
ENDCHAR
STARTCHAR 0693
ENCODING 1683
SWIDTH 432 0
DWIDTH 9 0
BBX 10 11 0 -1
BITMAP
0100
0180
0180
0080
0080
0080
0180
0380
CF80
3E40
0180
ENDCHAR
STARTCHAR 0694
ENCODING 1684
SWIDTH 432 0
DWIDTH 9 0
BBX 11 12 0 -3
BITMAP
0100
0180
0180
0080
0080
0080
0180
0380
CF00
3E80
01E0
01C0
ENDCHAR
STARTCHAR 0695
ENCODING 1685
SWIDTH 432 0
DWIDTH 9 0
BBX 10 13 0 -3
BITMAP
0100
0180
0180
0080
0080
0080
0180
0380
CF00
3E00
0000
0140
0080
ENDCHAR
STARTCHAR 0696
ENCODING 1686
SWIDTH 432 0
DWIDTH 9 0
BBX 11 12 0 -3
BITMAP
0100
0180
0180
0880
1C80
0C80
0180
0380
CF00
3E80
01E0
01C0
ENDCHAR
STARTCHAR 0697
ENCODING 1687
SWIDTH 432 0
DWIDTH 9 0
BBX 9 16 0 -2
BITMAP
0100
0580
0F80
0C00
0000
0000
0100
0180
0180
0080
0080
0080
0180
0380
CF00
3E00
ENDCHAR
STARTCHAR 0698
ENCODING 1688
SWIDTH 432 0
DWIDTH 9 0
BBX 9 18 0 -2
BITMAP
0400
0600
0700
0180
0F80
0C00
0000
0000
0100
0180
0180
0080
0080
0080
0180
0380
CF00
3E00
ENDCHAR
STARTCHAR 0699
ENCODING 1689
SWIDTH 432 0
DWIDTH 9 0
BBX 9 18 0 -2
BITMAP
0200
1F00
1B00
0D80
0F80
0C00
0000
0000
0100
0180
0180
0080
0080
0080
0180
0380
CF00
3E00
ENDCHAR
STARTCHAR 069A
ENCODING 1690
SWIDTH 912 0
DWIDTH 19 0
BBX 18 14 1 -1
BITMAP
000800
001C00
001C00
000000
004040
40C2C0
40C2C0
807FC0
807FC0
807DC0
804000
E1C600
FFC700
7F8600
ENDCHAR
STARTCHAR 069B
ENCODING 1691
SWIDTH 912 0
DWIDTH 19 0
BBX 18 13 1 -3
BITMAP
004040
40C2C0
40C2C0
807FC0
807FC0
807DC0
804000
E1C300
FFCF00
7F9D00
000200
000300
000300
ENDCHAR
STARTCHAR 069C
ENCODING 1692
SWIDTH 912 0
DWIDTH 19 0
BBX 18 20 1 -4
BITMAP
000400
000E00
000500
000B80
000F00
000C00
000000
004040
40C2C0
40C2C0
807FC0
807FC0
807DC0
804000
E1C300
FFCF00
7F9D00
000200
000300
000300
ENDCHAR
STARTCHAR 069D
ENCODING 1693
SWIDTH 1056 0
DWIDTH 22 0
BBX 21 11 1 -1
BITMAP
0000F8
0041F8
40C798
40CE08
807FF8
807FF8
807FF8
804000
E1C0C0
FFC3C0
7F8340
ENDCHAR
STARTCHAR 069E
ENCODING 1694
SWIDTH 1056 0
DWIDTH 22 0
BBX 21 18 1 -1
BITMAP
000400
000C00
000400
000B80
000F00
000C00
000000
0000F8
0041F8
40C798
40CE08
807FF8
807FF8
807FF8
804000
E1C000
FFC000
7F8000
ENDCHAR
STARTCHAR 069F
ENCODING 1695
SWIDTH 528 0
DWIDTH 11 0
BBX 12 15 -1 3
BITMAP
0080
11C0
1880
1C30
1DE0
1980
0800
0800
09E0
0BF0
0E30
1C30
FFF0
FFF0
FFF0
ENDCHAR
STARTCHAR 06A0
ENCODING 1696
SWIDTH 528 0
DWIDTH 11 0
BBX 10 22 1 -3
BITMAP
6000
E000
1800
7800
D000
4000
7E00
7F00
C000
C100
FF00
7F00
7800
6000
C000
8000
8000
8000
C000
FC40
FF80
3E00
ENDCHAR
STARTCHAR 06A1
ENCODING 1697
SWIDTH 768 0
DWIDTH 16 0
BBX 16 8 0 3
BITMAP
000E
401E
401F
401B
401F
FFFF
7FFF
7FFF
ENDCHAR
STARTCHAR 06A2
ENCODING 1698
SWIDTH 768 0
DWIDTH 16 0
BBX 16 12 0 -1
BITMAP
000E
401E
401F
401B
401F
FFFF
7FFF
7FFF
0000
000C
000E
000C
ENDCHAR
STARTCHAR 06A3
ENCODING 1699
SWIDTH 768 0
DWIDTH 16 0
BBX 16 17 0 -1
BITMAP
000C
000E
000C
0000
0000
000E
401E
401F
401B
401F
FFFF
7FFF
7FFF
0000
00C0
01C0
00C0
ENDCHAR
STARTCHAR 06A4
ENCODING 1700
SWIDTH 768 0
DWIDTH 16 0
BBX 16 15 0 3
BITMAP
0018
0018
0014
0016
003E
0010
0000
000E
401E
401F
401B
401F
FFFF
7FFF
7FFF
ENDCHAR
STARTCHAR 06A5
ENCODING 1701
SWIDTH 768 0
DWIDTH 16 0
BBX 16 15 0 -4
BITMAP
000E
401E
401F
401B
401F
FFFF
7FFF
7FFF
0000
0002
001E
001A
0006
0006
0006
ENDCHAR
STARTCHAR 06A6
ENCODING 1702
SWIDTH 768 0
DWIDTH 16 0
BBX 16 15 0 3
BITMAP
000C
0078
0064
0016
003E
0010
0000
000E
401E
401F
401B
401F
FFFF
7FFF
7FFF
ENDCHAR
STARTCHAR 06A7
ENCODING 1703
SWIDTH 624 0
DWIDTH 13 0
BBX 13 17 0 -3
BITMAP
00C0
00E0
00C0
0000
0020
0070
00F0
00B8
20F8
40F8
40F8
4008
C008
E038
7FF0
7FE0
0F80
ENDCHAR
STARTCHAR 06A8
ENCODING 1704
SWIDTH 624 0
DWIDTH 13 0
BBX 13 19 0 -3
BITMAP
0080
01C0
00A0
0030
01E0
0180
0020
0070
00F0
00B8
20F8
40F8
40F8
4008
C008
E038
7FF0
7FE0
0F80
ENDCHAR
STARTCHAR 06A9
ENCODING 1705
SWIDTH 768 0
DWIDTH 16 0
BBX 16 12 0 3
BITMAP
0002
000E
003E
0030
0070
0038
403C
400E
C006
FFFF
7FFF
3FFF
ENDCHAR
STARTCHAR 06AA
ENCODING 1706
SWIDTH 768 0
DWIDTH 16 0
BBX 16 11 0 3
BITMAP
0080
0380
0780
0C00
0F80
47F8
41FE
C01F
FFFF
7FFF
3FFF
ENDCHAR
STARTCHAR 06AB
ENCODING 1707
SWIDTH 768 0
DWIDTH 16 0
BBX 16 12 0 3
BITMAP
0002
000E
003E
0035
0077
0038
403C
400E
C006
FFFF
7FFF
3FFF
ENDCHAR
STARTCHAR 06AC
ENCODING 1708
SWIDTH 528 0
DWIDTH 11 0
BBX 11 15 0 4
BITMAP
0E00
0E00
0440
00E0
02E0
0460
0640
0740
0360
4E20
4020
C020
FFE0
7FE0
3FE0
ENDCHAR
STARTCHAR 06AD
ENCODING 1709
SWIDTH 528 0
DWIDTH 11 0
BBX 11 15 0 3
BITMAP
0C00
0200
0840
00E0
02E0
0460
0640
0740
0360
4E20
4020
C020
FFE0
7FE0
3FE0
ENDCHAR
STARTCHAR 06AE
ENCODING 1710
SWIDTH 528 0
DWIDTH 11 0
BBX 11 20 0 -4
BITMAP
0040
00E0
02E0
0460
0640
0740
0360
4E20
4020
C020
FFE0
7FE0
3FE0
0000
0100
0F80
0D00
0700
0300
0100
ENDCHAR
STARTCHAR 06AF
ENCODING 1711
SWIDTH 768 0
DWIDTH 16 0
BBX 16 15 0 3
BITMAP
0002
000E
003C
0072
004E
003E
0030
0070
0038
403C
400E
C006
FFFF
7FFF
3FFF
ENDCHAR
STARTCHAR 06B0
ENCODING 1712
SWIDTH 768 0
DWIDTH 16 0
BBX 16 15 0 3
BITMAP
0002
000E
003C
0072
004E
003E
0035
0077
0038
403C
400E
C006
FFFF
7FFF
3FFF
ENDCHAR
STARTCHAR 06B1
ENCODING 1713
SWIDTH 768 0
DWIDTH 16 0
BBX 16 16 0 3
BITMAP
0010
005A
004E
003C
0072
004E
003E
0030
0070
0038
403C
400E
C006
FFFF
7FFF
3FFF
ENDCHAR
STARTCHAR 06B2
ENCODING 1714
SWIDTH 768 0
DWIDTH 16 0
BBX 16 20 0 -2
BITMAP
0002
000E
003C
0072
004E
003E
0030
0070
0038
403C
400E
C006
FFFF
7FFF
3FFF
0000
0060
03E0
0340
0100
ENDCHAR
STARTCHAR 06B3
ENCODING 1715
SWIDTH 768 0
DWIDTH 16 0
BBX 16 22 0 -4
BITMAP
0002
000E
003C
0072
004E
003E
0030
0070
0038
403C
400E
C006
FFFF
7FFF
3FFF
0000
0180
0380
0100
00E0
00C0
0040
ENDCHAR
STARTCHAR 06B4
ENCODING 1716
SWIDTH 768 0
DWIDTH 16 0
BBX 16 16 0 3
BITMAP
0040
0052
004E
003C
0072
004E
003E
0030
0070
0038
403C
400E
C006
FFFF
7FFF
3FFF
ENDCHAR
STARTCHAR 06B5
ENCODING 1717
SWIDTH 432 0
DWIDTH 9 0
BBX 9 20 0 -1
BITMAP
0500
0700
0200
0100
0180
0380
0180
0100
0180
0180
0080
2080
4080
4080
4080
C080
C180
FF80
7F00
3C00
ENDCHAR
STARTCHAR 06B6
ENCODING 1718
SWIDTH 432 0
DWIDTH 9 0
BBX 9 19 0 0
BITMAP
0E00
0E00
0500
0180
0380
0180
0100
0180
0180
0080
2080
4080
4080
4080
C080
C180
FF80
7F00
3C00
ENDCHAR
STARTCHAR 06B7
ENCODING 1719
SWIDTH 432 0
DWIDTH 9 0
BBX 9 19 0 0
BITMAP
0380
0600
0100
0180
0380
0180
0100
0180
0180
0080
2080
4080
4080
4080
C080
C180
FF80
7F00
3C00
ENDCHAR
STARTCHAR 06B8
ENCODING 1720
SWIDTH 432 0
DWIDTH 9 0
BBX 9 19 0 -4
BITMAP
0100
0180
0380
0180
0100
0180
0180
0080
2080
4080
4080
4080
C080
C180
FF80
7F00
3C00
0000
1C00
ENDCHAR
STARTCHAR 06B9
ENCODING 1721
SWIDTH 528 0
DWIDTH 11 0
BBX 10 17 1 -4
BITMAP
0800
0E00
1C00
0400
0040
40C0
40C0
8040
8040
8040
8040
E1C0
FFC0
7F80
0C00
0E00
0C00
ENDCHAR
STARTCHAR 06BA
ENCODING 1722
SWIDTH 528 0
DWIDTH 11 0
BBX 10 10 1 0
BITMAP
0040
40C0
40C0
8040
8040
8040
8040
E1C0
FFC0
7F80
ENDCHAR
STARTCHAR 06BB
ENCODING 1723
SWIDTH 528 0
DWIDTH 11 0
BBX 10 17 1 0
BITMAP
1800
0800
0A00
0F00
1900
3F00
0000
0040
40C0
40C0
8040
8040
8040
8040
E1C0
FFC0
7F80
ENDCHAR
STARTCHAR 06BC
ENCODING 1724
SWIDTH 528 0
DWIDTH 11 0
BBX 10 17 1 -4
BITMAP
0800
0E00
1C00
0400
0040
40C0
40C0
8040
8040
8040
8040
E1C0
FFC0
7F80
1400
1400
0800
ENDCHAR
STARTCHAR 06BD
ENCODING 1725
SWIDTH 528 0
DWIDTH 11 0
BBX 10 16 1 -1
BITMAP
1C00
1800
0E00
1E00
1A00
0000
0040
40C0
40C0
8040
8040
8040
8040
E1C0
FFC0
7F80
ENDCHAR
STARTCHAR 06BE
ENCODING 1726
SWIDTH 480 0
DWIDTH 10 0
BBX 9 10 -1 2
BITMAP
0800
0C00
1E00
1F00
1700
3780
3C80
FF80
FF80
E780
ENDCHAR
STARTCHAR 06BF
ENCODING 1727
SWIDTH 576 0
DWIDTH 12 0
BBX 11 19 1 -3
BITMAP
1C00
1C00
0800
0000
7FC0
FF80
FF80
3C00
6000
4200
9F00
9A00
8800
8600
C600
E000
FEE0
7FC0
1F00
ENDCHAR
STARTCHAR 06C0
ENCODING 1728
SWIDTH 336 0
DWIDTH 7 0
BBX 5 11 1 3
BITMAP
60
60
00
40
70
78
78
98
98
F8
F0
ENDCHAR
STARTCHAR 06C1
ENCODING 1729
SWIDTH 384 0
DWIDTH 8 0
BBX 8 6 0 1
BITMAP
08
1C
3F
67
43
80
ENDCHAR
STARTCHAR 06C2
ENCODING 1730
SWIDTH 384 0
DWIDTH 8 0
BBX 8 10 0 1
BITMAP
38
18
00
00
08
1C
3F
67
43
80
ENDCHAR
STARTCHAR 06C3
ENCODING 1731
SWIDTH 384 0
DWIDTH 8 0
BBX 8 11 0 1
BITMAP
0C
3C
74
00
00
08
1C
3F
67
43
80
ENDCHAR
STARTCHAR 06C4
ENCODING 1732
SWIDTH 432 0
DWIDTH 9 0
BBX 9 11 0 -1
BITMAP
0380
0380
0780
0480
0780
0780
0380
0D80
9380
7F00
3E00
ENDCHAR
STARTCHAR 06C5
ENCODING 1733
SWIDTH 432 0
DWIDTH 9 0
BBX 9 11 0 -1
BITMAP
0380
0380
0780
0480
0780
0780
0380
1D80
8380
7F00
3E00
ENDCHAR
STARTCHAR 06C6
ENCODING 1734
SWIDTH 432 0
DWIDTH 9 0
BBX 9 15 0 -1
BITMAP
0580
0300
0000
0000
0380
0380
0780
0480
0780
0780
0380
0180
8380
7F00
3E00
ENDCHAR
STARTCHAR 06C7
ENCODING 1735
SWIDTH 432 0
DWIDTH 9 0
BBX 9 17 0 -1
BITMAP
0100
0300
0100
0200
0000
0000
0380
0380
0780
0480
0780
0780
0380
0180
8380
7F00
3E00
ENDCHAR
STARTCHAR 06C8
ENCODING 1736
SWIDTH 432 0
DWIDTH 9 0
BBX 9 18 0 -1
BITMAP
0200
0200
0200
0200
0200
0200
0000
0380
0380
0780
0480
0780
0780
0380
0180
8380
7F00
3E00
ENDCHAR
STARTCHAR 06C9
ENCODING 1737
SWIDTH 432 0
DWIDTH 9 0
BBX 9 15 0 -1
BITMAP
0300
0300
0000
0000
0380
0380
0780
0480
0780
0780
0380
0180
8380
7F00
3E00
ENDCHAR
STARTCHAR 06CA
ENCODING 1738
SWIDTH 432 0
DWIDTH 9 0
BBX 9 15 0 0
BITMAP
0180
0F80
0C00
0000
0380
0380
0780
0480
0780
0780
0380
0180
8380
7F00
3E00
ENDCHAR
STARTCHAR 06CB
ENCODING 1739
SWIDTH 432 0
DWIDTH 9 0
BBX 9 18 0 -1
BITMAP
0400
0600
0500
0180
0F80
0C00
0000
0380
0380
0780
0480
0780
0780
0380
0180
8380
7F00
3E00
ENDCHAR
STARTCHAR 06CC
ENCODING 1740
SWIDTH 624 0
DWIDTH 13 0
BBX 10 11 2 -1
BITMAP
0080
01C0
03C0
4640
8400
8780
8780
8080
8380
FF00
FC00
ENDCHAR
STARTCHAR 06CD
ENCODING 1741
SWIDTH 624 0
DWIDTH 13 0
BBX 11 11 1 -1
BITMAP
0040
00E0
01E0
2320
C200
43C0
43C0
4040
41C0
7F80
7E00
ENDCHAR
STARTCHAR 06CE
ENCODING 1742
SWIDTH 624 0
DWIDTH 13 0
BBX 10 12 2 -1
BITMAP
2800
3080
01C0
03C0
4640
8400
8780
8780
8080
8380
FF00
FC00
ENDCHAR
STARTCHAR 06CF
ENCODING 1743
SWIDTH 432 0
DWIDTH 9 0
BBX 9 16 0 -1
BITMAP
0600
0700
0600
0000
0000
0380
0380
0780
0480
0780
0780
0380
0180
8380
7F00
3E00
ENDCHAR
STARTCHAR 06D0
ENCODING 1744
SWIDTH 624 0
DWIDTH 13 0
BBX 10 14 2 -4
BITMAP
0080
01C0
03C0
4640
8400
8780
8780
8080
8380
FF00
FC00
0000
1000
0800
ENDCHAR
STARTCHAR 06D1
ENCODING 1745
SWIDTH 624 0
DWIDTH 13 0
BBX 10 14 2 -4
BITMAP
0080
01C0
03C0
4640
8400
8780
8780
8080
8380
FF00
FC00
0000
1800
0800
ENDCHAR
STARTCHAR 06D2
ENCODING 1746
SWIDTH 816 0
DWIDTH 17 0
BBX 15 11 1 -1
BITMAP
0100
0300
0700
1D00
3800
F000
E000
8000
FFFE
FFFC
7FF8
ENDCHAR
STARTCHAR 06D3
ENCODING 1747
SWIDTH 816 0
DWIDTH 17 0
BBX 15 13 1 -1
BITMAP
1800
1800
0100
0300
0700
1D00
3800
F000
E000
8000
FFFE
FFFC
7FF8
ENDCHAR
STARTCHAR 06D4
ENCODING 1748
SWIDTH 192 0
DWIDTH 4 0
BBX 4 3 0 3
BITMAP
F0
F0
F0
ENDCHAR
STARTCHAR 06D5
ENCODING 1749
SWIDTH 336 0
DWIDTH 7 0
BBX 5 8 1 3
BITMAP
40
70
78
78
98
98
F8
F0
ENDCHAR
STARTCHAR 06D6
ENCODING 1750
SWIDTH 0 0
DWIDTH 0 0
BBX 10 7 -5 11
BITMAP
3000
1080
11C0
1FC0
7FC0
8000
FF00
ENDCHAR
STARTCHAR 06D7
ENCODING 1751
SWIDTH 0 0
DWIDTH 0 0
BBX 8 7 -4 11
BITMAP
38
14
16
1E
7E
80
FF
ENDCHAR
STARTCHAR 06D8
ENCODING 1752
SWIDTH 0 0
DWIDTH 0 0
BBX 4 3 -2 11
BITMAP
30
10
F0
ENDCHAR
STARTCHAR 06D9
ENCODING 1753
SWIDTH 0 0
DWIDTH 0 0
BBX 4 6 -2 11
BITMAP
90
D0
50
20
50
60
ENDCHAR
STARTCHAR 06DA
ENCODING 1754
SWIDTH 0 0
DWIDTH 0 0
BBX 5 7 -3 11
BITMAP
78
B0
40
90
90
40
78
ENDCHAR
STARTCHAR 06DB
ENCODING 1755
SWIDTH 0 0
DWIDTH 0 0
BBX 2 3 -1 11
BITMAP
80
40
C0
ENDCHAR
STARTCHAR 06DC
ENCODING 1756
SWIDTH 0 0
DWIDTH 0 0
BBX 8 4 -4 12
BITMAP
8B
8F
88
F0
ENDCHAR
STARTCHAR 06DD
ENCODING 1757
SWIDTH 1104 0
DWIDTH 23 0
BBX 22 22 1 -4
BITMAP
03FE00
1E01C0
17FF40
3800A0
600010
400018
C00008
800008
800004
800004
800004
800004
800004
80000C
800008
400008
400010
200030
1C00E0
13FF40
0F07C0
00FC00
ENDCHAR
STARTCHAR 06DE
ENCODING 1758
SWIDTH 1104 0
DWIDTH 23 0
BBX 21 21 1 -3
BITMAP
006000
009000
010800
3EF7C0
240240
280140
1000C0
200040
606060
A09050
A08848
609050
206060
100040
2800C0
240140
220240
1FFFC0
008800
005000
002000
ENDCHAR
STARTCHAR 06DF
ENCODING 1759
SWIDTH 0 0
DWIDTH 0 0
BBX 2 1 -1 11
BITMAP
C0
ENDCHAR
STARTCHAR 06E0
ENCODING 1760
SWIDTH 0 0
DWIDTH 0 0
BBX 2 1 -1 11
BITMAP
C0
ENDCHAR
STARTCHAR 06E1
ENCODING 1761
SWIDTH 0 0
DWIDTH 0 0
BBX 6 3 -3 11
BITMAP
70
18
FC
ENDCHAR
STARTCHAR 06E2
ENCODING 1762
SWIDTH 0 0
DWIDTH 0 0
BBX 4 5 -2 11
BITMAP
60
30
F0
80
80
ENDCHAR
STARTCHAR 06E3
ENCODING 1763
SWIDTH 0 0
DWIDTH 0 0
BBX 8 4 -4 -3
BITMAP
8B
8F
88
F0
ENDCHAR
STARTCHAR 06E4
ENCODING 1764
SWIDTH 0 0
DWIDTH 0 0
BBX 0 0 -1 10
BITMAP
ENDCHAR
STARTCHAR 06E5
ENCODING 1765
SWIDTH 192 0
DWIDTH 4 0
BBX 3 5 1 11
BITMAP
20
60
60
20
E0
ENDCHAR
STARTCHAR 06E6
ENCODING 1766
SWIDTH 384 0
DWIDTH 8 0
BBX 7 5 0 11
BITMAP
10
30
40
80
FE
ENDCHAR
STARTCHAR 06E7
ENCODING 1767
SWIDTH 0 0
DWIDTH 0 0
BBX 7 5 -4 11
BITMAP
10
30
60
80
FE
ENDCHAR
STARTCHAR 06E8
ENCODING 1768
SWIDTH 0 0
DWIDTH 0 0
BBX 6 6 -3 12
BITMAP
30
00
44
84
88
78
ENDCHAR
STARTCHAR 06E9
ENCODING 1769
SWIDTH 624 0
DWIDTH 13 0
BBX 11 17 1 0
BITMAP
0400
1A00
1500
3A80
6D40
D2A0
B340
7380
7380
7380
7380
7380
7380
7380
6D80
5F40
FFE0
ENDCHAR
STARTCHAR 06EA
ENCODING 1770
SWIDTH 0 0
DWIDTH 0 0
BBX 3 2 -2 -2
BITMAP
E0
60
ENDCHAR
STARTCHAR 06EB
ENCODING 1771
SWIDTH 0 0
DWIDTH 0 0
BBX 4 3 -2 11
BITMAP
60
90
60
ENDCHAR
STARTCHAR 06EC
ENCODING 1772
SWIDTH 0 0
DWIDTH 0 0
BBX 2 1 -1 11
BITMAP
C0
ENDCHAR
STARTCHAR 06ED
ENCODING 1773
SWIDTH 0 0
DWIDTH 0 0
BBX 4 5 -2 -4
BITMAP
60
30
70
80
80
ENDCHAR
STARTCHAR 06F0
ENCODING 1776
SWIDTH 576 0
DWIDTH 12 0
BBX 3 5 4 5
BITMAP
40
E0
E0
60
20
ENDCHAR
STARTCHAR 06F1
ENCODING 1777
SWIDTH 576 0
DWIDTH 12 0
BBX 3 12 4 3
BITMAP
80
C0
C0
E0
E0
60
60
20
20
20
20
20
ENDCHAR
STARTCHAR 06F2
ENCODING 1778
SWIDTH 576 0
DWIDTH 12 0
BBX 6 12 3 3
BITMAP
84
C4
FC
FC
78
60
30
30
10
10
10
10
ENDCHAR
STARTCHAR 06F3
ENCODING 1779
SWIDTH 576 0
DWIDTH 12 0
BBX 8 12 2 3
BITMAP
01
CD
FF
FF
F6
60
60
20
20
20
20
20
ENDCHAR
STARTCHAR 06F4
ENCODING 1780
SWIDTH 576 0
DWIDTH 12 0
BBX 8 12 2 3
BITMAP
0E
D8
F1
FF
7E
7C
30
30
30
10
10
20
ENDCHAR
STARTCHAR 06F5
ENCODING 1781
SWIDTH 576 0
DWIDTH 12 0
BBX 8 12 2 3
BITMAP
10
18
38
1C
2E
26
42
C3
C9
FE
FE
74
ENDCHAR
STARTCHAR 06F6
ENCODING 1782
SWIDTH 576 0
DWIDTH 12 0
BBX 7 12 2 3
BITMAP
1C
3E
40
C2
FE
7E
18
30
30
20
20
20
ENDCHAR
STARTCHAR 06F7
ENCODING 1783
SWIDTH 576 0
DWIDTH 12 0
BBX 8 12 2 3
BITMAP
01
82
C2
C6
E6
64
2C
38
18
18
18
10
ENDCHAR
STARTCHAR 06F8
ENCODING 1784
SWIDTH 576 0
DWIDTH 12 0
BBX 8 12 2 3
BITMAP
10
10
18
28
28
2C
6E
46
C7
C3
83
01
ENDCHAR
STARTCHAR 06F9
ENCODING 1785
SWIDTH 576 0
DWIDTH 12 0
BBX 7 12 2 3
BITMAP
38
78
78
48
F8
78
7C
0C
0C
06
06
04
ENDCHAR
STARTCHAR 06FA
ENCODING 1786
SWIDTH 912 0
DWIDTH 19 0
BBX 18 17 1 -1
BITMAP
000400
000E00
000500
000B80
000F00
000C00
000000
004040
40C2C0
40C2C0
807FC0
807FC0
807DC0
804000
E1C600
FFC700
7F8600
ENDCHAR
STARTCHAR 06FB
ENCODING 1787
SWIDTH 1056 0
DWIDTH 22 0
BBX 21 16 1 -1
BITMAP
000600
000700
000600
000000
000000
0000F8
0041F8
40C798
40CE08
807FF8
807FF8
807FF8
804000
E1C100
FFC380
7F8180
ENDCHAR
STARTCHAR 06FC
ENCODING 1788
SWIDTH 528 0
DWIDTH 11 0
BBX 10 21 1 -4
BITMAP
3000
3800
3000
0000
0000
7E00
7F00
C000
C100
FF00
7F00
7800
6000
C400
8700
8E00
8200
C000
FC40
FF80
3E00
ENDCHAR
STARTCHAR 06FD
ENCODING 1789
SWIDTH 480 0
DWIDTH 10 0
BBX 8 14 1 -3
BITMAP
18
3C
7C
48
E3
FE
7E
30
60
40
14
14
14
14
ENDCHAR
STARTCHAR 06FE
ENCODING 1790
SWIDTH 384 0
DWIDTH 8 0
BBX 8 13 0 -4
BITMAP
18
3C
2E
07
7F
7F
C0
C0
5A
5A
5A
5A
40
ENDCHAR
STARTCHAR 1E80
ENCODING 7808
SWIDTH 1008 0
DWIDTH 21 0
BBX 21 19 0 0
BITMAP
00C000
00E000
006000
002000
000000
FDFC78
787820
383820
3C3820
1C3C40
1C3C40
1E5E40
0E4E80
0F8E80
078F00
078700
070700
030600
020200
ENDCHAR
STARTCHAR 1E81
ENCODING 7809
SWIDTH 720 0
DWIDTH 15 0
BBX 15 14 0 0
BITMAP
0700
0300
0100
0000
FBEE
71C4
31C8
3AE8
3AE8
1EF0
1C70
1C70
0C60
0820
ENDCHAR
STARTCHAR 1E82
ENCODING 7810
SWIDTH 1008 0
DWIDTH 21 0
BBX 21 19 0 0
BITMAP
003800
003000
002000
004000
000000
FDFC78
787820
383820
3C3820
1C3C40
1C3C40
1E5E40
0E4E80
0F8E80
078F00
078700
070700
030600
020200
ENDCHAR
STARTCHAR 1E83
ENCODING 7811
SWIDTH 720 0
DWIDTH 15 0
BBX 15 14 0 0
BITMAP
01C0
0180
0100
0000
FBEE
71C4
31C8
3AE8
3AE8
1EF0
1C70
1C70
0C60
0820
ENDCHAR
STARTCHAR 1E84
ENCODING 7812
SWIDTH 1008 0
DWIDTH 21 0
BBX 21 18 0 0
BITMAP
00CC00
01DC00
00CC00
000000
FDFC78
787820
383820
3C3820
1C3C40
1C3C40
1E5E40
0E4E80
0F8E80
078F00
078700
070700
030600
020200
ENDCHAR
STARTCHAR 1E85
ENCODING 7813
SWIDTH 720 0
DWIDTH 15 0
BBX 15 14 0 0
BITMAP
06C0
0EE0
0440
0000
FBEE
71C4
31C8
3AE8
3AE8
1EF0
1C70
1C70
0C60
0820
ENDCHAR
STARTCHAR 1EA0
ENCODING 7840
SWIDTH 720 0
DWIDTH 15 0
BBX 13 18 1 -4
BITMAP
0200
0200
0700
0700
0F80
0B80
13C0
11C0
11C0
3FE0
20E0
40F0
4070
E0F8
0000
0600
0F00
0E00
ENDCHAR
STARTCHAR 1EA1
ENCODING 7841
SWIDTH 480 0
DWIDTH 10 0
BBX 9 14 1 -4
BITMAP
1C00
6600
E700
E700
0F00
3700
6700
E700
FF00
F780
0000
1800
3C00
1C00
ENDCHAR
STARTCHAR 1EA2
ENCODING 7842
SWIDTH 720 0
DWIDTH 15 0
BBX 13 19 1 0
BITMAP
0300
0480
0100
0200
0000
0200
0200
0700
0700
0F80
0B80
13C0
11C0
11C0
3FE0
20E0
40F0
4070
E0F8
ENDCHAR
STARTCHAR 1EA3
ENCODING 7843
SWIDTH 480 0
DWIDTH 10 0
BBX 9 14 1 0
BITMAP
3E00
0400
0800
0000
1C00
6600
E700
E700
0F00
3700
6700
E700
FF00
F780
ENDCHAR
STARTCHAR 1EA4
ENCODING 7844
SWIDTH 720 0
DWIDTH 15 0
BBX 13 19 1 0
BITMAP
0380
0300
0000
0780
0000
0200
0200
0700
0700
0F80
0B80
13C0
11C0
11C0
3FE0
20E0
40F0
4070
E0F8
ENDCHAR
STARTCHAR 1EA5
ENCODING 7845
SWIDTH 480 0
DWIDTH 10 0
BBX 9 19 1 0
BITMAP
0E00
0C00
0800
1000
1800
1C00
3400
6200
0000
1C00
6600
E700
E700
0F00
3700
6700
E700
FF00
F780
ENDCHAR
STARTCHAR 1EA6
ENCODING 7846
SWIDTH 720 0
DWIDTH 15 0
BBX 13 19 1 0
BITMAP
0E00
0600
0000
0780
0000
0200
0200
0700
0700
0F80
0B80
13C0
11C0
11C0
3FE0
20E0
40F0
4070
E0F8
ENDCHAR
STARTCHAR 1EA7
ENCODING 7847
SWIDTH 480 0
DWIDTH 10 0
BBX 9 19 1 0
BITMAP
7000
3800
1800
0800
1800
1C00
3400
6200
0000
1C00
6600
E700
E700
0F00
3700
6700
E700
FF00
F780
ENDCHAR
STARTCHAR 1EA8
ENCODING 7848
SWIDTH 720 0
DWIDTH 15 0
BBX 13 19 1 0
BITMAP
0300
0500
0000
0780
0000
0200
0200
0700
0700
0F80
0B80
13C0
11C0
11C0
3FE0
20E0
40F0
4070
E0F8
ENDCHAR
STARTCHAR 1EA9
ENCODING 7849
SWIDTH 480 0
DWIDTH 10 0
BBX 9 19 1 0
BITMAP
0800
3600
0400
0800
1800
1C00
3400
6200
0000
1C00
6600
E700
E700
0F00
3700
6700
E700
FF00
F780
ENDCHAR
STARTCHAR 1EAA
ENCODING 7850
SWIDTH 720 0
DWIDTH 15 0
BBX 13 19 1 0
BITMAP
0440
1B80
0000
0780
0000
0200
0200
0700
0700
0F80
0B80
13C0
11C0
11C0
3FE0
20E0
40F0
4070
E0F8
ENDCHAR
STARTCHAR 1EAB
ENCODING 7851
SWIDTH 480 0
DWIDTH 10 0
BBX 9 18 1 0
BITMAP
3800
7E00
4E00
1800
1C00
3400
6200
0000
1C00
6600
E700
E700
0F00
3700
6700
E700
FF00
F780
ENDCHAR
STARTCHAR 1EAC
ENCODING 7852
SWIDTH 720 0
DWIDTH 15 0
BBX 13 20 1 -4
BITMAP
0780
0000
0200
0200
0700
0700
0F80
0B80
13C0
11C0
11C0
3FE0
20E0
40F0
4070
E0F8
0000
0600
0F00
0E00
ENDCHAR
STARTCHAR 1EAD
ENCODING 7853
SWIDTH 480 0
DWIDTH 10 0
BBX 9 19 1 -4
BITMAP
1800
1C00
3400
6200
0000
1C00
6600
E700
E700
0F00
3700
6700
E700
FF00
F780
0000
1800
3C00
1C00
ENDCHAR
STARTCHAR 1EAE
ENCODING 7854
SWIDTH 720 0
DWIDTH 15 0
BBX 13 19 1 0
BITMAP
0380
0300
0000
0F80
0000
0200
0200
0700
0700
0F80
0B80
13C0
11C0
11C0
3FE0
20E0
40F0
4070
E0F8
ENDCHAR
STARTCHAR 1EAF
ENCODING 7855
SWIDTH 480 0
DWIDTH 10 0
BBX 9 19 1 0
BITMAP
0E00
0C00
0800
1000
0000
4200
3E00
1C00
0000
1C00
6600
E700
E700
0F00
3700
6700
E700
FF00
F780
ENDCHAR
STARTCHAR 1EB0
ENCODING 7856
SWIDTH 720 0
DWIDTH 15 0
BBX 13 19 1 0
BITMAP
0E00
0200
0000
0F80
0000
0200
0200
0700
0700
0F80
0B80
13C0
11C0
11C0
3FE0
20E0
40F0
4070
E0F8
ENDCHAR
STARTCHAR 1EB1
ENCODING 7857
SWIDTH 480 0
DWIDTH 10 0
BBX 9 19 1 0
BITMAP
7000
3800
1800
0800
0000
4200
3E00
1C00
0000
1C00
6600
E700
E700
0F00
3700
6700
E700
FF00
F780
ENDCHAR
STARTCHAR 1EB2
ENCODING 7858
SWIDTH 720 0
DWIDTH 15 0
BBX 13 19 1 0
BITMAP
0300
0500
0000
0F80
0000
0200
0200
0700
0700
0F80
0B80
13C0
11C0
11C0
3FE0
20E0
40F0
4070
E0F8
ENDCHAR
STARTCHAR 1EB3
ENCODING 7859
SWIDTH 480 0
DWIDTH 10 0
BBX 9 19 1 0
BITMAP
1800
2600
0C00
0000
0000
4200
3E00
1C00
0000
1C00
6600
E700
E700
0F00
3700
6700
E700
FF00
F780
ENDCHAR
STARTCHAR 1EB4
ENCODING 7860
SWIDTH 720 0
DWIDTH 15 0
BBX 13 19 1 0
BITMAP
0440
1B80
0000
0F80
0000
0200
0200
0700
0700
0F80
0B80
13C0
11C0
11C0
3FE0
20E0
40F0
4070
E0F8
ENDCHAR
STARTCHAR 1EB5
ENCODING 7861
SWIDTH 480 0
DWIDTH 10 0
BBX 9 18 1 0
BITMAP
3800
7E00
4E00
0000
4200
3E00
1C00
0000
1C00
6600
E700
E700
0F00
3700
6700
E700
FF00
F780
ENDCHAR
STARTCHAR 1EB6
ENCODING 7862
SWIDTH 720 0
DWIDTH 15 0
BBX 13 20 1 -3
BITMAP
0F80
0000
0200
0200
0700
0700
0F80
0B80
13C0
11C0
11C0
3FE0
20E0
40F0
4070
E0F8
0000
0600
0F00
0E00
ENDCHAR
STARTCHAR 1EB7
ENCODING 7863
SWIDTH 480 0
DWIDTH 10 0
BBX 9 18 1 -4
BITMAP
4200
3E00
1C00
0000
1C00
6600
E700
E700
0F00
3700
6700
E700
FF00
F780
0000
1800
3C00
1C00
ENDCHAR
STARTCHAR 1EB8
ENCODING 7864
SWIDTH 672 0
DWIDTH 14 0
BBX 13 18 0 -4
BITMAP
FFF0
3C30
3C10
3C10
3C80
3C80
3D80
3F80
3C80
3C80
3C08
3C08
3C18
3FF0
4000
0700
0700
0700
ENDCHAR
STARTCHAR 1EB9
ENCODING 7865
SWIDTH 432 0
DWIDTH 9 0
BBX 8 14 1 -4
BITMAP
18
66
E6
C7
FF
E0
E0
E1
72
7C
00
38
38
38
ENDCHAR
STARTCHAR 1EBA
ENCODING 7866
SWIDTH 672 0
DWIDTH 14 0
BBX 13 19 0 0
BITMAP
0100
06C0
0080
0100
0000
FFF0
3C30
3C10
3C10
3C80
3C80
3D80
3F80
3C80
3C80
3C08
3C08
3C18
7FF0
ENDCHAR
STARTCHAR 1EBB
ENCODING 7867
SWIDTH 432 0
DWIDTH 9 0
BBX 8 14 1 0
BITMAP
3E
04
08
00
18
66
E6
C7
FF
E0
E0
E1
72
7C
ENDCHAR
STARTCHAR 1EBC
ENCODING 7868
SWIDTH 672 0
DWIDTH 14 0
BBX 13 18 0 0
BITMAP
0720
0FE0
09C0
0000
FFF0
3C30
3C10
3C10
3C80
3C80
3D80
3F80
3C80
3C80
3C08
3C08
3C18
7FF0
ENDCHAR
STARTCHAR 1EBD
ENCODING 7869
SWIDTH 432 0
DWIDTH 9 0
BBX 8 14 1 0
BITMAP
30
7E
0C
00
18
66
E6
C7
FF
E0
E0
E1
72
7C
ENDCHAR
STARTCHAR 1EBE
ENCODING 7870
SWIDTH 672 0
DWIDTH 14 0
BBX 13 19 0 0
BITMAP
01C0
0300
0000
0780
0000
FFF0
3C30
3C10
3C10
3C80
3C80
3D80
3F80
3C80
3C80
3C08
3C08
3C18
7FF0
ENDCHAR
STARTCHAR 1EBF
ENCODING 7871
SWIDTH 432 0
DWIDTH 9 0
BBX 8 19 1 0
BITMAP
0E
0C
18
10
18
3C
3C
62
00
18
66
E6
C7
FF
E0
E0
E1
72
7C
ENDCHAR
STARTCHAR 1EC0
ENCODING 7872
SWIDTH 672 0
DWIDTH 14 0
BBX 13 19 0 0
BITMAP
0700
0300
0000
0780
0000
FFF0
3C30
3C10
3C10
3C80
3C80
3D80
3F80
3C80
3C80
3C08
3C08
3C18
7FF0
ENDCHAR
STARTCHAR 1EC1
ENCODING 7873
SWIDTH 432 0
DWIDTH 9 0
BBX 8 19 1 0
BITMAP
70
30
18
08
18
3C
3C
62
00
18
66
E6
C7
FF
E0
E0
E1
72
7C
ENDCHAR
STARTCHAR 1EC2
ENCODING 7874
SWIDTH 672 0
DWIDTH 14 0
BBX 13 19 0 0
BITMAP
0300
0180
0000
0780
0000
FFF0
3C30
3C10
3C10
3C80
3C80
3D80
3F80
3C80
3C80
3C08
3C08
3C18
7FF0
ENDCHAR
STARTCHAR 1EC3
ENCODING 7875
SWIDTH 432 0
DWIDTH 9 0
BBX 8 19 1 0
BITMAP
18
36
04
08
18
3C
3C
62
00
18
66
E6
C7
FF
E0
E0
E1
72
7C
ENDCHAR
STARTCHAR 1EC4
ENCODING 7876
SWIDTH 672 0
DWIDTH 14 0
BBX 13 19 0 0
BITMAP
0640
0BC0
0000
0780
0000
FFF0
3C30
3C10
3C10
3C80
3C80
3D80
3F80
3C80
3C80
3C08
3C08
3C18
7FF0
ENDCHAR
STARTCHAR 1EC5
ENCODING 7877
SWIDTH 432 0
DWIDTH 9 0
BBX 8 18 1 0
BITMAP
30
7E
0C
18
3C
3C
62
00
18
66
E6
C7
FF
E0
E0
E1
72
7C
ENDCHAR
STARTCHAR 1EC6
ENCODING 7878
SWIDTH 672 0
DWIDTH 14 0
BBX 13 20 0 -4
BITMAP
0780
0000
FFF0
3C30
3C10
3C10
3C80
3C80
3D80
3F80
3C80
3C80
3C08
3C08
3C18
3FF0
4000
0700
0700
0700
ENDCHAR
STARTCHAR 1EC7
ENCODING 7879
SWIDTH 432 0
DWIDTH 9 0
BBX 8 19 1 -4
BITMAP
18
3C
3C
62
00
18
66
E6
C7
FF
E0
E0
E1
72
7C
00
38
38
38
ENDCHAR
STARTCHAR 1EC8
ENCODING 7880
SWIDTH 384 0
DWIDTH 8 0
BBX 8 19 0 0
BITMAP
18
26
0C
00
00
FF
3C
3C
3C
3C
3C
3C
3C
3C
3C
3C
3C
3C
7E
ENDCHAR
STARTCHAR 1EC9
ENCODING 7881
SWIDTH 288 0
DWIDTH 6 0
BBX 5 14 0 0
BITMAP
78
08
10
00
F0
70
30
30
30
30
30
30
30
78
ENDCHAR
STARTCHAR 1ECA
ENCODING 7882
SWIDTH 384 0
DWIDTH 8 0
BBX 8 18 0 -4
BITMAP
FF
3C
3C
3C
3C
3C
3C
3C
3C
3C
3C
3C
3C
3C
42
18
3C
1C
ENDCHAR
STARTCHAR 1ECB
ENCODING 7883
SWIDTH 288 0
DWIDTH 6 0
BBX 5 18 0 -4
BITMAP
30
78
30
00
F0
70
30
30
30
30
30
30
30
78
00
30
78
70
ENDCHAR
STARTCHAR 1ECC
ENCODING 7884
SWIDTH 768 0
DWIDTH 16 0
BBX 14 18 1 -4
BITMAP
0FC0
3870
7038
703C
F01C
F01C
E01C
E01C
F01C
F01C
703C
7038
3870
1CE0
0300
0300
0780
0380
ENDCHAR
STARTCHAR 1ECD
ENCODING 7885
SWIDTH 480 0
DWIDTH 10 0
BBX 9 14 1 -4
BITMAP
1C00
6600
E300
E300
E380
E380
E380
E300
6700
3600
0800
1800
3C00
1C00
ENDCHAR
STARTCHAR 1ECE
ENCODING 7886
SWIDTH 768 0
DWIDTH 16 0
BBX 14 19 1 0
BITMAP
0300
0480
0180
0000
0000
0FC0
3870
7038
703C
F01C
F01C
E01C
E01C
F01C
F01C
703C
7038
3870
1FE0
ENDCHAR
STARTCHAR 1ECF
ENCODING 7887
SWIDTH 480 0
DWIDTH 10 0
BBX 9 14 1 0
BITMAP
3E00
0400
0800
0000
1C00
6600
E300
E300
E380
E380
E380
E300
6700
3E00
ENDCHAR
STARTCHAR 1ED0
ENCODING 7888
SWIDTH 768 0
DWIDTH 16 0
BBX 14 19 1 0
BITMAP
01C0
0100
0000
0780
0000
0FC0
3870
7038
703C
F01C
F01C
E01C
E01C
F01C
F01C
703C
7038
3870
1FE0
ENDCHAR
STARTCHAR 1ED1
ENCODING 7889
SWIDTH 480 0
DWIDTH 10 0
BBX 9 19 1 0
BITMAP
0E00
0C00
0800
1000
1800
1C00
3C00
6200
0000
1C00
6600
E300
E300
E380
E380
E380
E300
6700
3E00
ENDCHAR
STARTCHAR 1ED2
ENCODING 7890
SWIDTH 768 0
DWIDTH 16 0
BBX 14 19 1 0
BITMAP
0700
0300
0000
0780
0000
0FC0
3870
7038
703C
F01C
F01C
E01C
E01C
F01C
F01C
703C
7038
3870
1FE0
ENDCHAR
STARTCHAR 1ED3
ENCODING 7891
SWIDTH 480 0
DWIDTH 10 0
BBX 9 19 1 0
BITMAP
7000
3800
1800
0800
1800
1C00
3C00
6200
0000
1C00
6600
E300
E300
E380
E380
E380
E300
6700
3E00
ENDCHAR
STARTCHAR 1ED4
ENCODING 7892
SWIDTH 768 0
DWIDTH 16 0
BBX 14 19 1 0
BITMAP
0300
0080
0000
0780
0000
0FC0
3870
7038
703C
F01C
F01C
E01C
E01C
F01C
F01C
703C
7038
3870
1FE0
ENDCHAR
STARTCHAR 1ED5
ENCODING 7893
SWIDTH 480 0
DWIDTH 10 0
BBX 9 19 1 0
BITMAP
0800
3600
0400
0800
1800
1C00
3C00
6200
0000
1C00
6600
E300
E300
E380
E380
E380
E300
6700
3E00
ENDCHAR
STARTCHAR 1ED6
ENCODING 7894
SWIDTH 768 0
DWIDTH 16 0
BBX 14 19 1 0
BITMAP
0600
0BC0
0000
0780
0000
0FC0
3870
7038
703C
F01C
F01C
E01C
E01C
F01C
F01C
703C
7038
3870
1FE0
ENDCHAR
STARTCHAR 1ED7
ENCODING 7895
SWIDTH 480 0
DWIDTH 10 0
BBX 9 18 1 0
BITMAP
3800
7E00
4E00
1800
1C00
3C00
6200
0000
1C00
6600
E300
E300
E380
E380
E380
E300
6700
3E00
ENDCHAR
STARTCHAR 1ED8
ENCODING 7896
SWIDTH 768 0
DWIDTH 16 0
BBX 14 20 1 -4
BITMAP
0780
0000
0FC0
3870
7038
703C
F01C
F01C
E01C
E01C
F01C
F01C
703C
7038
3870
1CE0
0300
0300
0780
0380
ENDCHAR
STARTCHAR 1ED9
ENCODING 7897
SWIDTH 480 0
DWIDTH 10 0
BBX 9 19 1 -4
BITMAP
1800
1C00
3C00
6200
0000
1C00
6600
E300
E300
E380
E380
E380
E300
6700
3600
0800
1800
3C00
1C00
ENDCHAR
STARTCHAR 1EDA
ENCODING 7898
SWIDTH 768 0
DWIDTH 16 0
BBX 15 19 1 0
BITMAP
01C0
0180
0300
0200
0006
0FC6
387E
7038
703C
F01C
F01C
E01C
E01C
F01C
F01C
703C
7038
3870
1FE0
ENDCHAR
STARTCHAR 1EDB
ENCODING 7899
SWIDTH 576 0
DWIDTH 12 0
BBX 11 14 1 0
BITMAP
0E00
0C00
0800
0040
1C60
6660
E3C0
E300
E380
E380
E380
E300
6700
3E00
ENDCHAR
STARTCHAR 1EDC
ENCODING 7900
SWIDTH 768 0
DWIDTH 16 0
BBX 15 19 1 0
BITMAP
0E00
0600
0300
0100
0006
0FC6
387E
7038
703C
F01C
F01C
E01C
E01C
F01C
F01C
703C
7038
3870
1FE0
ENDCHAR
STARTCHAR 1EDD
ENCODING 7901
SWIDTH 576 0
DWIDTH 12 0
BBX 11 14 1 0
BITMAP
3000
1800
0800
0040
1C60
6660
E3C0
E300
E380
E380
E380
E300
6700
3E00
ENDCHAR
STARTCHAR 1EDE
ENCODING 7902
SWIDTH 768 0
DWIDTH 16 0
BBX 15 19 1 0
BITMAP
0300
04C0
0180
0000
0006
0FC6
387E
7038
703C
F01C
F01C
E01C
E01C
F01C
F01C
703C
7038
3870
1FE0
ENDCHAR
STARTCHAR 1EDF
ENCODING 7903
SWIDTH 576 0
DWIDTH 12 0
BBX 11 14 1 0
BITMAP
3E00
0400
0800
0040
1C60
6660
E3C0
E300
E380
E380
E380
E300
6700
3E00
ENDCHAR
STARTCHAR 1EE0
ENCODING 7904
SWIDTH 768 0
DWIDTH 16 0
BBX 15 18 1 0
BITMAP
0600
0FC0
09C0
0006
0FC6
387E
7038
703C
F01C
F01C
E01C
E01C
F01C
F01C
703C
7038
3870
1FE0
ENDCHAR
STARTCHAR 1EE1
ENCODING 7905
SWIDTH 576 0
DWIDTH 12 0
BBX 11 14 1 0
BITMAP
3900
7E00
4E00
0040
1C60
6660
E3C0
E300
E380
E380
E380
E300
6700
3E00
ENDCHAR
STARTCHAR 1EE2
ENCODING 7906
SWIDTH 768 0
DWIDTH 16 0
BBX 15 19 1 -4
BITMAP
0006
0FC6
387E
7038
703C
F01C
F01C
E01C
E01C
F01C
F01C
703C
7038
3870
1CE0
0300
0300
0780
0380
ENDCHAR
STARTCHAR 1EE3
ENCODING 7907
SWIDTH 576 0
DWIDTH 12 0
BBX 11 15 1 -4
BITMAP
0040
1C60
6660
E3C0
E300
E380
E380
E380
E300
6700
3600
0800
1800
3C00
1C00
ENDCHAR
STARTCHAR 1EE4
ENCODING 7908
SWIDTH 720 0
DWIDTH 15 0
BBX 15 18 0 -4
BITMAP
FF3E
3C08
3C08
3C08
3C08
3C08
3C08
3C08
3C08
3C08
3C08
1C10
1C10
0FE0
0000
0380
0380
0380
ENDCHAR
STARTCHAR 1EE5
ENCODING 7909
SWIDTH 576 0
DWIDTH 12 0
BBX 9 14 1 -4
BITMAP
F780
7380
7380
7380
7380
7380
7380
7380
7780
7B80
0000
0C00
1C00
1C00
ENDCHAR
STARTCHAR 1EE6
ENCODING 7910
SWIDTH 720 0
DWIDTH 15 0
BBX 15 19 0 0
BITMAP
0100
06C0
0080
0100
0000
FF3E
3C08
3C08
3C08
3C08
3C08
3C08
3C08
3C08
3C08
3C08
1C10
1C10
0FE0
ENDCHAR
STARTCHAR 1EE7
ENCODING 7911
SWIDTH 576 0
DWIDTH 12 0
BBX 9 14 1 0
BITMAP
1E00
0600
0800
0000
F780
7380
7380
7380
7380
7380
7380
7380
7780
7B80
ENDCHAR
STARTCHAR 1EE8
ENCODING 7912
SWIDTH 816 0
DWIDTH 17 0
BBX 17 19 0 0
BITMAP
01E000
01C000
018080
010180
000080
FF3F00
3C0800
3C0800
3C0800
3C0800
3C0800
3C0800
3C0800
3C0800
3C0800
3C0800
1C1000
1C1000
0FE000
ENDCHAR
STARTCHAR 1EE9
ENCODING 7913
SWIDTH 624 0
DWIDTH 13 0
BBX 12 14 1 0
BITMAP
0700
0C00
0800
0000
F7A0
73B0
73B0
73C0
7380
7380
7380
7380
7780
7B80
ENDCHAR
STARTCHAR 1EEA
ENCODING 7914
SWIDTH 816 0
DWIDTH 17 0
BBX 17 19 0 0
BITMAP
0F0000
070000
030080
018180
000080
FF3F00
3C0800
3C0800
3C0800
3C0800
3C0800
3C0800
3C0800
3C0800
3C0800
3C0800
1C1000
1C1000
0FE000
ENDCHAR
STARTCHAR 1EEB
ENCODING 7915
SWIDTH 624 0
DWIDTH 13 0
BBX 12 14 1 0
BITMAP
3800
1800
0800
0000
F7A0
73B0
73B0
73C0
7380
7380
7380
7380
7780
7B80
ENDCHAR
STARTCHAR 1EEC
ENCODING 7916
SWIDTH 816 0
DWIDTH 17 0
BBX 17 19 0 0
BITMAP
00C000
012000
004080
000180
000080
FF3F00
3C0800
3C0800
3C0800
3C0800
3C0800
3C0800
3C0800
3C0800
3C0800
3C0800
1C1000
1C1000
0FE000
ENDCHAR
STARTCHAR 1EED
ENCODING 7917
SWIDTH 624 0
DWIDTH 13 0
BBX 12 14 1 0
BITMAP
1E00
0600
0800
0000
F7A0
73B0
73B0
73C0
7380
7380
7380
7380
7780
7B80
ENDCHAR
STARTCHAR 1EEE
ENCODING 7918
SWIDTH 816 0
DWIDTH 17 0
BBX 17 18 0 0
BITMAP
072000
0FE080
09C180
000080
FF3F00
3C0800
3C0800
3C0800
3C0800
3C0800
3C0800
3C0800
3C0800
3C0800
3C0800
1C1000
1C1000
0FE000
ENDCHAR
STARTCHAR 1EEF
ENCODING 7919
SWIDTH 624 0
DWIDTH 13 0
BBX 12 14 1 0
BITMAP
3900
3F00
0E00
0000
F7A0
73B0
73B0
73C0
7380
7380
7380
7380
7780
7B80
ENDCHAR
STARTCHAR 1EF0
ENCODING 7920
SWIDTH 816 0
DWIDTH 17 0
BBX 17 21 0 -4
BITMAP
000080
000180
000080
FF3F00
3C0800
3C0800
3C0800
3C0800
3C0800
3C0800
3C0800
3C0800
3C0800
3C0800
1C1000
1C1000
0FE000
000000
038000
038000
038000
ENDCHAR
STARTCHAR 1EF1
ENCODING 7921
SWIDTH 624 0
DWIDTH 13 0
BBX 12 14 1 -4
BITMAP
F7A0
73B0
73B0
73C0
7380
7380
7380
7380
7780
7B80
0000
0C00
1C00
1C00
ENDCHAR
STARTCHAR 1EF2
ENCODING 7922
SWIDTH 720 0
DWIDTH 15 0
BBX 15 19 0 0
BITMAP
0700
0300
0100
0080
0000
FE1E
3C08
3C08
1E10
1E20
0F20
0740
07C0
0380
0380
0380
0380
0380
07C0
ENDCHAR
STARTCHAR 1EF3
ENCODING 7923
SWIDTH 480 0
DWIDTH 10 0
BBX 10 18 0 -4
BITMAP
1800
0C00
0400
0000
F9C0
7080
3880
3900
3900
1D00
1E00
0E00
0C00
0400
0400
0800
6800
7000
ENDCHAR
STARTCHAR 1EF4
ENCODING 7924
SWIDTH 720 0
DWIDTH 15 0
BBX 15 18 0 -4
BITMAP
FE1E
3C08
3C08
1E10
1E20
0F20
0740
07C0
0380
0380
0380
0380
0380
07C0
0000
0380
0380
0380
ENDCHAR
STARTCHAR 1EF5
ENCODING 7925
SWIDTH 480 0
DWIDTH 10 0
BBX 10 14 0 -4
BITMAP
F9C0
7080
3880
3900
3900
1D00
1E00
0E00
0C00
0400
0400
0980
6BC0
71C0
ENDCHAR
STARTCHAR 1EF6
ENCODING 7926
SWIDTH 720 0
DWIDTH 15 0
BBX 15 19 0 0
BITMAP
0100
06C0
0080
0100
0000
FE1E
3C08
3C08
1E10
1E20
0F20
0740
07C0
0380
0380
0380
0380
0380
07C0
ENDCHAR
STARTCHAR 1EF7
ENCODING 7927
SWIDTH 480 0
DWIDTH 10 0
BBX 10 18 0 -4
BITMAP
1E00
0200
0400
0000
F9C0
7080
3880
3900
3900
1D00
1E00
0E00
0C00
0400
0400
0800
6800
7000
ENDCHAR
STARTCHAR 1EF8
ENCODING 7928
SWIDTH 720 0
DWIDTH 15 0
BBX 15 18 0 0
BITMAP
0720
0FE0
09C0
0000
FE1E
3C08
3C08
1E10
1E20
0F20
0740
07C0
0380
0380
0380
0380
0380
07C0
ENDCHAR
STARTCHAR 1EF9
ENCODING 7929
SWIDTH 480 0
DWIDTH 10 0
BBX 10 18 0 -4
BITMAP
1C00
3F00
2700
0000
F9C0
7080
3880
3900
3900
1D00
1E00
0E00
0C00
0400
0400
0800
6800
7000
ENDCHAR
STARTCHAR 200C
ENCODING 8204
SWIDTH 0 0
DWIDTH 0 0
BBX 1 15 -1 -3
BITMAP
80
80
80
80
80
80
80
80
80
80
80
80
80
80
80
ENDCHAR
STARTCHAR 200D
ENCODING 8205
SWIDTH 0 0
DWIDTH 0 0
BBX 4 16 -2 -3
BITMAP
90
60
60
D0
40
40
40
40
40
40
40
40
40
40
40
40
ENDCHAR
STARTCHAR 200E
ENCODING 8206
SWIDTH 0 0
DWIDTH 0 0
BBX 4 16 0 -3
BITMAP
20
F0
90
A0
80
80
80
80
80
80
80
80
80
80
80
80
ENDCHAR
STARTCHAR 200F
ENCODING 8207
SWIDTH 0 0
DWIDTH 0 0
BBX 4 16 -4 -3
BITMAP
40
F0
90
50
10
10
10
10
10
10
10
10
10
10
10
10
ENDCHAR
STARTCHAR 2013
ENCODING 8211
SWIDTH 480 0
DWIDTH 10 0
BBX 11 1 0 4
BITMAP
FFE0
ENDCHAR
STARTCHAR 2014
ENCODING 8212
SWIDTH 1008 0
DWIDTH 21 0
BBX 21 1 0 4
BITMAP
FFFFF8
ENDCHAR
STARTCHAR 2015
ENCODING 8213
SWIDTH 1008 0
DWIDTH 21 0
BBX 19 1 1 5
BITMAP
FFFFE0
ENDCHAR
STARTCHAR 2017
ENCODING 8215
SWIDTH 480 0
DWIDTH 10 0
BBX 11 3 0 -4
BITMAP
FFE0
0000
FFE0
ENDCHAR
STARTCHAR 2018
ENCODING 8216
SWIDTH 336 0
DWIDTH 7 0
BBX 3 7 2 7
BITMAP
20
C0
80
C0
E0
E0
40
ENDCHAR
STARTCHAR 2019
ENCODING 8217
SWIDTH 336 0
DWIDTH 7 0
BBX 3 7 2 7
BITMAP
E0
E0
E0
20
20
40
80
ENDCHAR
STARTCHAR 201A
ENCODING 8218
SWIDTH 336 0
DWIDTH 7 0
BBX 3 7 2 -4
BITMAP
E0
E0
E0
20
20
40
80
ENDCHAR
STARTCHAR 201B
ENCODING 8219
SWIDTH 336 0
DWIDTH 7 0
BBX 3 7 2 7
BITMAP
E0
E0
E0
80
80
40
20
ENDCHAR
STARTCHAR 201C
ENCODING 8220
SWIDTH 480 0
DWIDTH 10 0
BBX 9 7 1 7
BITMAP
2100
4200
8400
A700
F780
F700
6300
ENDCHAR
STARTCHAR 201D
ENCODING 8221
SWIDTH 480 0
DWIDTH 10 0
BBX 9 7 1 7
BITMAP
E700
F700
F780
3100
2100
4200
8400
ENDCHAR
STARTCHAR 201E
ENCODING 8222
SWIDTH 480 0
DWIDTH 10 0
BBX 9 7 1 -4
BITMAP
E700
F700
F780
3100
2100
4200
8000
ENDCHAR
STARTCHAR 2020
ENCODING 8224
SWIDTH 480 0
DWIDTH 10 0
BBX 8 18 1 -4
BITMAP
18
18
18
08
CB
FF
08
18
18
18
08
08
08
08
10
10
10
10
ENDCHAR
STARTCHAR 2021
ENCODING 8225
SWIDTH 480 0
DWIDTH 10 0
BBX 8 18 1 -4
BITMAP
18
18
18
08
FF
48
1C
08
08
08
08
18
08
F7
EB
08
18
18
ENDCHAR
STARTCHAR 2022
ENCODING 8226
SWIDTH 336 0
DWIDTH 7 0
BBX 6 6 1 4
BITMAP
70
F8
FC
FC
F8
70
ENDCHAR
STARTCHAR 2026
ENCODING 8230
SWIDTH 1008 0
DWIDTH 21 0
BBX 17 3 2 0
BITMAP
E1C380
E1C380
E1C380
ENDCHAR
STARTCHAR 202A
ENCODING 8234
SWIDTH 768 0
DWIDTH 16 0
BBX 10 13 3 0
BITMAP
FFC0
8040
8040
8040
8040
8040
8040
8040
8040
8040
8040
8040
FFC0
ENDCHAR
STARTCHAR 202B
ENCODING 8235
SWIDTH 768 0
DWIDTH 16 0
BBX 10 13 3 0
BITMAP
FFC0
8040
8040
8040
8040
8040
8040
8040
8040
8040
8040
8040
FFC0
ENDCHAR
STARTCHAR 202C
ENCODING 8236
SWIDTH 768 0
DWIDTH 16 0
BBX 10 13 3 0
BITMAP
FFC0
8040
8040
8040
8040
8040
8040
8040
8040
8040
8040
8040
FFC0
ENDCHAR
STARTCHAR 202D
ENCODING 8237
SWIDTH 768 0
DWIDTH 16 0
BBX 10 13 3 0
BITMAP
FFC0
8040
8040
8040
8040
8040
8040
8040
8040
8040
8040
8040
FFC0
ENDCHAR
STARTCHAR 202E
ENCODING 8238
SWIDTH 768 0
DWIDTH 16 0
BBX 10 13 3 0
BITMAP
FFC0
8040
8040
8040
8040
8040
8040
8040
8040
8040
8040
8040
FFC0
ENDCHAR
STARTCHAR 2030
ENCODING 8240
SWIDTH 1008 0
DWIDTH 21 0
BBX 19 15 1 -1
BITMAP
702000
D84000
DCC000
DC8000
DD0000
DB0000
5A0000
26E180
0DB360
0BB660
1B3660
133660
23B660
61A340
404180
ENDCHAR
STARTCHAR 2032
ENCODING 8242
SWIDTH 288 0
DWIDTH 6 0
BBX 3 7 2 7
BITMAP
60
E0
E0
C0
C0
80
80
ENDCHAR
STARTCHAR 2033
ENCODING 8243
SWIDTH 576 0
DWIDTH 12 0
BBX 8 7 2 7
BITMAP
63
E7
E7
C6
C6
84
80
ENDCHAR
STARTCHAR 2039
ENCODING 8249
SWIDTH 336 0
DWIDTH 7 0
BBX 5 9 1 0
BITMAP
18
30
20
60
E0
60
30
10
08
ENDCHAR
STARTCHAR 203A
ENCODING 8250
SWIDTH 336 0
DWIDTH 7 0
BBX 5 9 1 0
BITMAP
C0
40
60
30
38
30
60
40
80
ENDCHAR
STARTCHAR 203C
ENCODING 8252
SWIDTH 624 0
DWIDTH 13 0
BBX 9 14 2 0
BITMAP
E300
E780
E780
E380
E300
C300
4300
4100
4200
4000
0000
E300
E780
E380
ENDCHAR
STARTCHAR 203E
ENCODING 8254
SWIDTH 336 0
DWIDTH 7 0
BBX 7 2 0 11
BITMAP
FE
FE
ENDCHAR
STARTCHAR 2044
ENCODING 8260
SWIDTH 144 0
DWIDTH 3 0
BBX 11 15 -4 -1
BITMAP
0020
0040
00C0
0080
0100
0300
0200
0400
0C00
0800
1000
3000
2000
4000
C000
ENDCHAR
STARTCHAR 206A
ENCODING 8298
SWIDTH 768 0
DWIDTH 16 0
BBX 10 13 3 0
BITMAP
FFC0
8040
8040
8040
8040
8040
8040
8040
8040
8040
8040
8040
FFC0
ENDCHAR
STARTCHAR 206B
ENCODING 8299
SWIDTH 768 0
DWIDTH 16 0
BBX 10 13 3 0
BITMAP
FFC0
8040
8040
8040
8040
8040
8040
8040
8040
8040
8040
8040
FFC0
ENDCHAR
STARTCHAR 206C
ENCODING 8300
SWIDTH 768 0
DWIDTH 16 0
BBX 10 13 3 0
BITMAP
FFC0
8040
8040
8040
8040
8040
8040
8040
8040
8040
8040
8040
FFC0
ENDCHAR
STARTCHAR 206D
ENCODING 8301
SWIDTH 768 0
DWIDTH 16 0
BBX 10 13 3 0
BITMAP
FFC0
8040
8040
8040
8040
8040
8040
8040
8040
8040
8040
8040
FFC0
ENDCHAR
STARTCHAR 206E
ENCODING 8302
SWIDTH 768 0
DWIDTH 16 0
BBX 10 13 3 0
BITMAP
FFC0
8040
8040
8040
8040
8040
8040
8040
8040
8040
8040
8040
FFC0
ENDCHAR
STARTCHAR 206F
ENCODING 8303
SWIDTH 768 0
DWIDTH 16 0
BBX 10 13 3 0
BITMAP
FFC0
8040
8040
8040
8040
8040
8040
8040
8040
8040
8040
8040
FFC0
ENDCHAR
STARTCHAR 207F
ENCODING 8319
SWIDTH 336 0
DWIDTH 7 0
BBX 5 6 1 6
BITMAP
10
F8
D8
D8
D8
D8
ENDCHAR
STARTCHAR 20A3
ENCODING 8355
SWIDTH 480 0
DWIDTH 10 0
BBX 10 14 0 0
BITMAP
FFC0
38C0
3840
3840
3880
3880
3B80
3F80
3880
3880
3880
FF00
3800
7C00
ENDCHAR
STARTCHAR 20A4
ENCODING 8356
SWIDTH 480 0
DWIDTH 10 0
BBX 10 14 0 0
BITMAP
0F00
1B80
3B80
3980
3800
FF00
3C00
FF00
FF00
1C00
1800
7CC0
9FC0
7780
ENDCHAR
STARTCHAR 20A7
ENCODING 8359
SWIDTH 960 0
DWIDTH 20 0
BBX 20 14 0 0
BITMAP
FF0000
79C800
39E800
39F800
39F880
39FF60
39FA20
3E3F80
383BC0
3839E0
3838F0
383C70
783A30
783FE0
ENDCHAR
STARTCHAR 20AA
ENCODING 8362
SWIDTH 768 0
DWIDTH 16 0
BBX 13 11 1 0
BITMAP
FF18
FF98
C0D8
C0D8
CCD8
CCD8
CCD8
CC18
CC18
CFF8
CFF8
ENDCHAR
STARTCHAR 20AB
ENCODING 8363
SWIDTH 528 0
DWIDTH 11 0
BBX 7 11 2 3
BITMAP
0C
3E
0C
7C
4C
CC
CC
CC
CE
7E
FE
ENDCHAR
STARTCHAR 20AC
ENCODING 8364
SWIDTH 480 0
DWIDTH 10 0
BBX 10 14 0 0
BITMAP
0F80
1840
3840
7040
7000
7000
FF80
FF00
7000
7000
7000
3040
3880
1F00
ENDCHAR
STARTCHAR 2105
ENCODING 8453
SWIDTH 816 0
DWIDTH 17 0
BBX 16 15 1 -1
BITMAP
7818
D810
C820
C060
C040
C080
7980
011E
0232
0673
0463
0863
1832
1016
2008
ENDCHAR
STARTCHAR 2113
ENCODING 8467
SWIDTH 384 0
DWIDTH 8 0
BBX 7 14 0 0
BITMAP
1C
3A
32
32
34
34
38
30
30
70
B0
30
3A
3C
ENDCHAR
STARTCHAR 2116
ENCODING 8470
SWIDTH 1008 0
DWIDTH 21 0
BBX 20 14 0 0
BITMAP
3E0F00
0F0B00
0F1300
0F9000
0B90C0
0BD1B0
09F330
08F330
08F330
087330
0870E0
C83000
E813F0
7013F0
ENDCHAR
STARTCHAR 2122
ENCODING 8482
SWIDTH 1008 0
DWIDTH 21 0
BBX 21 8 0 6
BITMAP
FF7878
993870
183CF0
182CF0
182F70
182770
182670
382670
ENDCHAR
STARTCHAR 2126
ENCODING 8486
SWIDTH 768 0
DWIDTH 16 0
BBX 16 15 0 0
BITMAP
0FF0
1C18
381C
781E
700E
700E
700E
700E
700E
781E
381C
B81D
CC33
7E7F
7E7E
ENDCHAR
STARTCHAR 212E
ENCODING 8494
SWIDTH 624 0
DWIDTH 13 0
BBX 11 11 1 0
BITMAP
1F00
6080
40C0
C0C0
C0E0
FFE0
C000
C000
4040
4080
3F00
ENDCHAR
STARTCHAR 2153
ENCODING 8531
SWIDTH 768 0
DWIDTH 16 0
BBX 13 15 2 -1
BITMAP
C020
C040
C0C0
C080
C100
C300
C200
0470
0CB0
0810
1030
3038
2018
4190
C0E0
ENDCHAR
STARTCHAR 2154
ENCODING 8532
SWIDTH 768 0
DWIDTH 16 0
BBX 15 15 0 -1
BITMAP
7808
9810
1830
1820
1040
24C0
7880
011C
032C
0204
040C
0C0E
0806
1064
3038
ENDCHAR
STARTCHAR 215B
ENCODING 8539
SWIDTH 768 0
DWIDTH 16 0
BBX 13 15 2 -1
BITMAP
C020
C040
C0C0
C080
C100
C300
C200
0470
0CD8
08D8
1070
30F8
20D8
40D8
C060
ENDCHAR
STARTCHAR 215C
ENCODING 8540
SWIDTH 768 0
DWIDTH 16 0
BBX 15 15 0 -1
BITMAP
3808
5810
1830
3820
0C40
0CC0
C880
311C
0336
0236
041C
0C3E
0836
1036
3018
ENDCHAR
STARTCHAR 215D
ENCODING 8541
SWIDTH 768 0
DWIDTH 16 0
BBX 15 15 0 -1
BITMAP
3C08
7810
7030
7C20
0C40
04C0
E880
111C
0336
0236
041C
0C3E
0836
1036
3018
ENDCHAR
STARTCHAR 215E
ENCODING 8542
SWIDTH 768 0
DWIDTH 16 0
BBX 14 15 1 -1
BITMAP
F830
F820
1040
10C0
2080
2100
2300
0238
046C
0C6C
0838
107C
306C
206C
4030
ENDCHAR
STARTCHAR 2190
ENCODING 8592
SWIDTH 1008 0
DWIDTH 21 0
BBX 19 7 1 2
BITMAP
080000
100000
600000
FFFFE0
600000
300000
100000
ENDCHAR
STARTCHAR 2191
ENCODING 8593
SWIDTH 480 0
DWIDTH 10 0
BBX 7 17 2 -3
BITMAP
30
38
7C
96
10
10
10
10
10
10
10
10
10
10
10
10
10
ENDCHAR
STARTCHAR 2192
ENCODING 8594
SWIDTH 1008 0
DWIDTH 21 0
BBX 19 7 1 2
BITMAP
000200
000100
000180
FFFFE0
0000C0
000180
000300
ENDCHAR
STARTCHAR 2193
ENCODING 8595
SWIDTH 480 0
DWIDTH 10 0
BBX 6 18 2 -4
BITMAP
10
10
10
10
10
10
10
10
10
10
10
10
10
10
D4
78
38
30
ENDCHAR
STARTCHAR 2194
ENCODING 8596
SWIDTH 1008 0
DWIDTH 21 0
BBX 19 7 1 2
BITMAP
080200
100100
600180
FFFFE0
6000C0
300180
100300
ENDCHAR
STARTCHAR 2195
ENCODING 8597
SWIDTH 480 0
DWIDTH 10 0
BBX 7 19 2 -4
BITMAP
10
30
78
DC
92
10
10
10
10
10
10
10
10
10
10
D6
78
38
10
ENDCHAR
STARTCHAR 21A8
ENCODING 8616
SWIDTH 480 0
DWIDTH 10 0
BBX 7 21 2 -6
BITMAP
10
30
78
DC
92
10
10
10
10
10
10
10
10
10
10
D6
78
38
10
00
FE
ENDCHAR
STARTCHAR 2202
ENCODING 8706
SWIDTH 480 0
DWIDTH 10 0
BBX 9 15 1 0
BITMAP
0600
1F00
1380
0080
0080
0080
1F80
3080
6100
E100
E100
C200
C200
C400
7800
ENDCHAR
STARTCHAR 2206
ENCODING 8710
SWIDTH 624 0
DWIDTH 13 0
BBX 12 14 0 0
BITMAP
0200
0200
0700
0700
0B80
0980
0980
10C0
10C0
2060
2060
4060
4030
FFF0
ENDCHAR
STARTCHAR 220F
ENCODING 8719
SWIDTH 816 0
DWIDTH 17 0
BBX 15 18 1 -4
BITMAP
FFFE
700C
700C
700C
700C
700C
700C
700C
700C
700C
700C
700C
700C
700C
700C
700C
700C
701C
ENDCHAR
STARTCHAR 2211
ENCODING 8721
SWIDTH 720 0
DWIDTH 15 0
BBX 13 18 1 -4
BITMAP
FFF8
6008
7008
3800
1800
0C00
0E00
0700
0300
0200
0400
0800
0800
1000
2000
4008
4018
FFF8
ENDCHAR
STARTCHAR 2212
ENCODING 8722
SWIDTH 576 0
DWIDTH 12 0
BBX 12 2 0 6
BITMAP
FFF0
FFF0
ENDCHAR
STARTCHAR 2215
ENCODING 8725
SWIDTH 144 0
DWIDTH 3 0
BBX 11 15 -4 -1
BITMAP
0020
0040
00C0
0080
0100
0300
0200
0400
0C00
0800
1000
3000
2000
4000
C000
ENDCHAR
STARTCHAR 2219
ENCODING 8729
SWIDTH 240 0
DWIDTH 5 0
BBX 3 4 1 5
BITMAP
40
E0
E0
60
ENDCHAR
STARTCHAR 221A
ENCODING 8730
SWIDTH 528 0
DWIDTH 11 0
BBX 10 19 1 -1
BITMAP
0040
0040
0040
0040
0040
0040
0080
0080
2080
F080
1080
1880
0900
0D00
0500
0700
0300
0300
0200
ENDCHAR
STARTCHAR 221E
ENCODING 8734
SWIDTH 720 0
DWIDTH 15 0
BBX 13 9 1 1
BITMAP
00C0
71B0
8B08
8608
8608
8608
8E08
5910
20E0
ENDCHAR
STARTCHAR 221F
ENCODING 8735
SWIDTH 960 0
DWIDTH 20 0
BBX 13 13 4 0
BITMAP
8000
8000
8000
8000
8000
8000
8000
8000
8000
8000
8000
8000
FFF8
ENDCHAR
STARTCHAR 2229
ENCODING 8745
SWIDTH 720 0
DWIDTH 15 0
BBX 11 15 2 0
BITMAP
0400
3F80
60C0
C060
8060
8020
8020
8020
8020
8020
8020
8020
8020
8020
8020
ENDCHAR
STARTCHAR 222B
ENCODING 8747
SWIDTH 288 0
DWIDTH 6 0
BBX 6 21 0 -2
BITMAP
18
1C
20
20
20
20
20
30
30
30
30
30
30
30
30
30
20
20
20
E0
E0
ENDCHAR
STARTCHAR 2248
ENCODING 8776
SWIDTH 528 0
DWIDTH 11 0
BBX 11 9 0 2
BITMAP
7820
FF20
87C0
0000
0000
7800
7E20
87E0
8080
ENDCHAR
STARTCHAR 2260
ENCODING 8800
SWIDTH 528 0
DWIDTH 11 0
BBX 11 17 0 -3
BITMAP
0080
0080
0180
0100
0100
FFE0
FFE0
0600
0400
0400
FFE0
FFE0
1800
1000
1000
3000
2000
ENDCHAR
STARTCHAR 2261
ENCODING 8801
SWIDTH 576 0
DWIDTH 12 0
BBX 12 8 0 3
BITMAP
FFF0
0000
0000
FFF0
FFF0
0000
0000
FFF0
ENDCHAR
STARTCHAR 2264
ENCODING 8804
SWIDTH 528 0
DWIDTH 11 0
BBX 11 15 0 -2
BITMAP
0020
00E0
0780
1E00
7000
E000
7800
1F00
03C0
00E0
0000
0000
0000
FFE0
FFE0
ENDCHAR
STARTCHAR 2265
ENCODING 8805
SWIDTH 528 0
DWIDTH 11 0
BBX 11 15 0 -2
BITMAP
8000
F000
3C00
0780
01E0
0060
03C0
0F00
7C00
E000
8000
0000
0000
FFE0
FFE0
ENDCHAR
STARTCHAR 2302
ENCODING 8962
SWIDTH 624 0
DWIDTH 13 0
BBX 9 11 2 1
BITMAP
1800
2400
6200
C100
8080
8080
8080
8080
8080
8080
FF80
ENDCHAR
STARTCHAR 2310
ENCODING 8976
SWIDTH 576 0
DWIDTH 12 0
BBX 11 4 0 5
BITMAP
FFE0
C000
C000
C000
ENDCHAR
STARTCHAR 2320
ENCODING 8992
SWIDTH 624 0
DWIDTH 13 0
BBX 4 23 6 -5
BITMAP
20
F0
80
80
80
80
80
80
80
80
80
80
80
80
80
80
80
80
80
80
80
80
80
ENDCHAR
STARTCHAR 2321
ENCODING 8993
SWIDTH 624 0
DWIDTH 13 0
BBX 4 23 3 -5
BITMAP
10
10
10
10
10
10
10
10
10
10
10
10
10
10
10
10
10
10
10
10
10
90
E0
ENDCHAR
STARTCHAR 2500
ENCODING 9472
SWIDTH 720 0
DWIDTH 15 0
BBX 15 2 0 5
BITMAP
FFFE
FFFE
ENDCHAR
STARTCHAR 2502
ENCODING 9474
SWIDTH 720 0
DWIDTH 15 0
BBX 2 25 6 -6
BITMAP
C0
C0
C0
C0
C0
C0
C0
C0
C0
C0
C0
C0
C0
C0
C0
C0
C0
C0
C0
C0
C0
C0
C0
C0
C0
ENDCHAR
STARTCHAR 250C
ENCODING 9484
SWIDTH 720 0
DWIDTH 15 0
BBX 9 13 6 -6
BITMAP
FF80
FF80
C000
C000
C000
C000
C000
C000
C000
C000
C000
C000
C000
ENDCHAR
STARTCHAR 2510
ENCODING 9488
SWIDTH 720 0
DWIDTH 15 0
BBX 8 13 0 -6
BITMAP
FF
FF
03
03
03
03
03
03
03
03
03
03
03
ENDCHAR
STARTCHAR 2514
ENCODING 9492
SWIDTH 720 0
DWIDTH 15 0
BBX 9 14 6 5
BITMAP
C000
C000
C000
C000
C000
C000
C000
C000
C000
C000
C000
C000
FF80
FF80
ENDCHAR
STARTCHAR 2518
ENCODING 9496
SWIDTH 720 0
DWIDTH 15 0
BBX 8 14 0 5
BITMAP
03
03
03
03
03
03
03
03
03
03
03
03
FF
FF
ENDCHAR
STARTCHAR 251C
ENCODING 9500
SWIDTH 720 0
DWIDTH 15 0
BBX 9 25 6 -6
BITMAP
C000
C000
C000
C000
C000
C000
C000
C000
C000
C000
C000
C000
FF80
FF80
C000
C000
C000
C000
C000
C000
C000
C000
C000
C000
C000
ENDCHAR
STARTCHAR 2524
ENCODING 9508
SWIDTH 720 0
DWIDTH 15 0
BBX 8 25 0 -6
BITMAP
03
03
03
03
03
03
03
03
03
03
03
03
FF
FF
03
03
03
03
03
03
03
03
03
03
03
ENDCHAR
STARTCHAR 252C
ENCODING 9516
SWIDTH 720 0
DWIDTH 15 0
BBX 15 13 0 -6
BITMAP
FFFE
FFFE
0300
0300
0300
0300
0300
0300
0300
0300
0300
0300
0300
ENDCHAR
STARTCHAR 2534
ENCODING 9524
SWIDTH 720 0
DWIDTH 15 0
BBX 15 14 0 5
BITMAP
0300
0300
0300
0300
0300
0300
0300
0300
0300
0300
0300
0300
FFFE
FFFE
ENDCHAR
STARTCHAR 253C
ENCODING 9532
SWIDTH 720 0
DWIDTH 15 0
BBX 15 25 0 -6
BITMAP
0300
0300
0300
0300
0300
0300
0300
0300
0300
0300
0300
0300
FFFE
FFFE
0300
0300
0300
0300
0300
0300
0300
0300
0300
0300
0300
ENDCHAR
STARTCHAR 2550
ENCODING 9552
SWIDTH 720 0
DWIDTH 15 0
BBX 15 5 0 4
BITMAP
FFFE
FFFE
0000
0000
FFFE
ENDCHAR
STARTCHAR 2551
ENCODING 9553
SWIDTH 720 0
DWIDTH 15 0
BBX 5 25 5 -6
BITMAP
98
98
98
98
98
98
98
98
98
98
98
98
98
98
98
98
98
98
98
98
98
98
98
98
98
ENDCHAR
STARTCHAR 2552
ENCODING 9554
SWIDTH 720 0
DWIDTH 15 0
BBX 9 15 6 -6
BITMAP
FF80
FF80
C000
C000
FF80
FF80
C000
C000
C000
C000
C000
C000
C000
C000
C000
ENDCHAR
STARTCHAR 2553
ENCODING 9555
SWIDTH 720 0
DWIDTH 15 0
BBX 10 13 5 -6
BITMAP
FFC0
FFC0
9800
9800
9800
9800
9800
9800
9800
9800
9800
9800
9800
ENDCHAR
STARTCHAR 2554
ENCODING 9556
SWIDTH 720 0
DWIDTH 15 0
BBX 10 15 5 -6
BITMAP
FFC0
FFC0
8000
8000
9FC0
9FC0
9800
9800
9800
9800
9800
9800
9800
9800
9800
ENDCHAR
STARTCHAR 2555
ENCODING 9557
SWIDTH 720 0
DWIDTH 15 0
BBX 8 15 0 -6
BITMAP
FF
FF
03
03
FF
03
03
03
03
03
03
03
03
03
03
ENDCHAR
STARTCHAR 2556
ENCODING 9558
SWIDTH 720 0
DWIDTH 15 0
BBX 10 13 0 -6
BITMAP
FFC0
FFC0
04C0
04C0
04C0
04C0
04C0
04C0
04C0
04C0
04C0
04C0
04C0
ENDCHAR
STARTCHAR 2557
ENCODING 9559
SWIDTH 720 0
DWIDTH 15 0
BBX 10 15 0 -6
BITMAP
FFC0
FFC0
00C0
00C0
FCC0
04C0
04C0
04C0
04C0
04C0
04C0
04C0
04C0
04C0
04C0
ENDCHAR
STARTCHAR 2558
ENCODING 9560
SWIDTH 720 0
DWIDTH 15 0
BBX 9 15 6 4
BITMAP
C000
C000
C000
C000
C000
C000
C000
C000
C000
C000
FF80
FF80
C000
C000
FF80
ENDCHAR
STARTCHAR 2559
ENCODING 9561
SWIDTH 720 0
DWIDTH 15 0
BBX 10 14 5 5
BITMAP
9800
9800
9800
9800
9800
9800
9800
9800
9800
9800
9800
9800
FFC0
FFC0
ENDCHAR
STARTCHAR 255A
ENCODING 9562
SWIDTH 720 0
DWIDTH 15 0
BBX 10 15 5 4
BITMAP
9800
9800
9800
9800
9800
9800
9800
9800
9800
9800
9FC0
9FC0
8000
8000
FFC0
ENDCHAR
STARTCHAR 255B
ENCODING 9563
SWIDTH 720 0
DWIDTH 15 0
BBX 8 15 0 4
BITMAP
03
03
03
03
03
03
03
03
03
03
FF
FF
03
03
FF
ENDCHAR
STARTCHAR 255C
ENCODING 9564
SWIDTH 720 0
DWIDTH 15 0
BBX 10 14 0 5
BITMAP
04C0
04C0
04C0
04C0
04C0
04C0
04C0
04C0
04C0
04C0
04C0
04C0
FFC0
FFC0
ENDCHAR
STARTCHAR 255D
ENCODING 9565
SWIDTH 720 0
DWIDTH 15 0
BBX 10 15 0 4
BITMAP
04C0
04C0
04C0
04C0
04C0
04C0
04C0
04C0
04C0
04C0
FCC0
FCC0
00C0
00C0
FFC0
ENDCHAR
STARTCHAR 255E
ENCODING 9566
SWIDTH 720 0
DWIDTH 15 0
BBX 9 25 6 -6
BITMAP
C000
C000
C000
C000
C000
C000
C000
C000
C000
C000
FF80
FF80
C000
C000
FF80
FF80
C000
C000
C000
C000
C000
C000
C000
C000
C000
ENDCHAR
STARTCHAR 255F
ENCODING 9567
SWIDTH 720 0
DWIDTH 15 0
BBX 10 25 5 -6
BITMAP
9800
9800
9800
9800
9800
9800
9800
9800
9800
9800
9800
9800
9FC0
9FC0
9800
9800
9800
9800
9800
9800
9800
9800
9800
9800
9800
ENDCHAR
STARTCHAR 2560
ENCODING 9568
SWIDTH 720 0
DWIDTH 15 0
BBX 10 25 5 -6
BITMAP
9800
9800
9800
9800
9800
9800
9800
9800
9800
9800
9FC0
9FC0
8000
8000
9FC0
9FC0
9800
9800
9800
9800
9800
9800
9800
9800
9800
ENDCHAR
STARTCHAR 2561
ENCODING 9569
SWIDTH 720 0
DWIDTH 15 0
BBX 8 25 0 -6
BITMAP
03
03
03
03
03
03
03
03
03
03
FF
FF
03
03
FF
03
03
03
03
03
03
03
03
03
03
ENDCHAR
STARTCHAR 2562
ENCODING 9570
SWIDTH 720 0
DWIDTH 15 0
BBX 10 25 0 -6
BITMAP
04C0
04C0
04C0
04C0
04C0
04C0
04C0
04C0
04C0
04C0
04C0
04C0
FCC0
FCC0
04C0
04C0
04C0
04C0
04C0
04C0
04C0
04C0
04C0
04C0
04C0
ENDCHAR
STARTCHAR 2563
ENCODING 9571
SWIDTH 720 0
DWIDTH 15 0
BBX 10 25 0 -6
BITMAP
04C0
04C0
04C0
04C0
04C0
04C0
04C0
04C0
04C0
04C0
FCC0
FCC0
00C0
00C0
FCC0
04C0
04C0
04C0
04C0
04C0
04C0
04C0
04C0
04C0
04C0
ENDCHAR
STARTCHAR 2564
ENCODING 9572
SWIDTH 720 0
DWIDTH 15 0
BBX 15 15 0 -6
BITMAP
FFFE
FFFE
0000
0000
FFFE
03FE
0300
0300
0300
0300
0300
0300
0300
0300
0300
ENDCHAR
STARTCHAR 2565
ENCODING 9573
SWIDTH 720 0
DWIDTH 15 0
BBX 15 13 0 -6
BITMAP
FFFE
FFFE
04C0
04C0
04C0
04C0
04C0
04C0
04C0
04C0
04C0
04C0
04C0
ENDCHAR
STARTCHAR 2566
ENCODING 9574
SWIDTH 720 0
DWIDTH 15 0
BBX 15 15 0 -6
BITMAP
FFFE
FFFE
0000
0000
FCFE
04FE
04C0
04C0
04C0
04C0
04C0
04C0
04C0
04C0
04C0
ENDCHAR
STARTCHAR 2567
ENCODING 9575
SWIDTH 720 0
DWIDTH 15 0
BBX 15 15 0 4
BITMAP
0300
0300
0300
0300
0300
0300
0300
0300
0300
0300
FFFE
FFFE
0000
0000
FFFE
ENDCHAR
STARTCHAR 2568
ENCODING 9576
SWIDTH 720 0
DWIDTH 15 0
BBX 15 14 0 5
BITMAP
04C0
04C0
04C0
04C0
04C0
04C0
04C0
04C0
04C0
04C0
04C0
04C0
FFFE
FFFE
ENDCHAR
STARTCHAR 2569
ENCODING 9577
SWIDTH 720 0
DWIDTH 15 0
BBX 15 15 0 4
BITMAP
04C0
04C0
04C0
04C0
04C0
04C0
04C0
04C0
04C0
04C0
FCFE
FCFE
0000
0000
FFFE
ENDCHAR
STARTCHAR 256A
ENCODING 9578
SWIDTH 720 0
DWIDTH 15 0
BBX 15 25 0 -6
BITMAP
0300
0300
0300
0300
0300
0300
0300
0300
0300
0300
FFFE
FFFE
0300
0300
FFFE
03FE
0300
0300
0300
0300
0300
0300
0300
0300
0300
ENDCHAR
STARTCHAR 256B
ENCODING 9579
SWIDTH 720 0
DWIDTH 15 0
BBX 15 25 0 -6
BITMAP
04C0
04C0
04C0
04C0
04C0
04C0
04C0
04C0
04C0
04C0
04C0
04C0
FFFE
FFFE
04C0
04C0
04C0
04C0
04C0
04C0
04C0
04C0
04C0
04C0
04C0
ENDCHAR
STARTCHAR 256C
ENCODING 9580
SWIDTH 720 0
DWIDTH 15 0
BBX 15 25 0 -6
BITMAP
04C0
04C0
04C0
04C0
04C0
04C0
04C0
04C0
04C0
04C0
FCFE
FCFE
0000
0000
FCFE
04FE
04C0
04C0
04C0
04C0
04C0
04C0
04C0
04C0
04C0
ENDCHAR
STARTCHAR 2580
ENCODING 9600
SWIDTH 720 0
DWIDTH 15 0
BBX 15 13 0 6
BITMAP
FFFE
FFFE
FFFE
FFFE
FFFE
FFFE
FFFE
FFFE
FFFE
FFFE
FFFE
FFFE
FFFE
ENDCHAR
STARTCHAR 2584
ENCODING 9604
SWIDTH 720 0
DWIDTH 15 0
BBX 15 12 0 -6
BITMAP
FFFE
FFFE
FFFE
FFFE
FFFE
FFFE
FFFE
FFFE
FFFE
FFFE
FFFE
FFFE
ENDCHAR
STARTCHAR 2588
ENCODING 9608
SWIDTH 720 0
DWIDTH 15 0
BBX 15 25 0 -6
BITMAP
FFFE
FFFE
FFFE
FFFE
FFFE
FFFE
FFFE
FFFE
FFFE
FFFE
FFFE
FFFE
FFFE
FFFE
FFFE
FFFE
FFFE
FFFE
FFFE
FFFE
FFFE
FFFE
FFFE
FFFE
FFFE
ENDCHAR
STARTCHAR 258C
ENCODING 9612
SWIDTH 720 0
DWIDTH 15 0
BBX 7 25 0 -6
BITMAP
FE
FE
FE
FE
FE
FE
FE
FE
FE
FE
FE
FE
FE
FE
FE
FE
FE
FE
FE
FE
FE
FE
FE
FE
FE
ENDCHAR
STARTCHAR 2590
ENCODING 9616
SWIDTH 720 0
DWIDTH 15 0
BBX 8 25 7 -6
BITMAP
FF
FF
FF
FF
FF
FF
FF
FF
FF
FF
FF
FF
FF
FF
FF
FF
FF
FF
FF
FF
FF
FF
FF
FF
FF
ENDCHAR
STARTCHAR 2591
ENCODING 9617
SWIDTH 720 0
DWIDTH 15 0
BBX 14 24 1 -5
BITMAP
8420
0000
0000
1084
0000
8420
0000
0000
1084
0000
8420
0000
0000
1084
0000
8420
8420
0000
1084
0000
8420
8420
0000
1084
ENDCHAR
STARTCHAR 2592
ENCODING 9618
SWIDTH 720 0
DWIDTH 15 0
BBX 15 24 0 -5
BITMAP
4A52
0000
0000
B5AC
0000
4A52
0000
0000
B5AC
0000
4A52
0000
0000
B5AC
0000
4A52
4A52
0000
B5AC
0000
4A52
4A52
0000
B5AC
ENDCHAR
STARTCHAR 2593
ENCODING 9619
SWIDTH 720 0
DWIDTH 15 0
BBX 15 25 0 -6
BITMAP
6B5A
FFFE
FFFE
94A4
FFFE
6B5A
FFFE
FFFE
94A4
FFFE
6B5A
FFFE
FFFE
94A4
FFFE
6B5A
6B5A
FFFE
94A4
FFFE
6B5A
6B5A
FFFE
94A4
FFFE
ENDCHAR
STARTCHAR 25A0
ENCODING 9632
SWIDTH 624 0
DWIDTH 13 0
BBX 10 10 1 0
BITMAP
FFC0
FFC0
FFC0
FFC0
FFC0
FFC0
FFC0
FFC0
FFC0
FFC0
ENDCHAR
STARTCHAR 25A1
ENCODING 9633
SWIDTH 624 0
DWIDTH 13 0
BBX 10 10 1 0
BITMAP
FFC0
8040
8040
8040
8040
8040
8040
8040
8040
FFC0
ENDCHAR
STARTCHAR 25AA
ENCODING 9642
SWIDTH 336 0
DWIDTH 7 0
BBX 5 6 1 4
BITMAP
F8
F8
F8
F8
F8
F8
ENDCHAR
STARTCHAR 25AB
ENCODING 9643
SWIDTH 336 0
DWIDTH 7 0
BBX 5 6 1 4
BITMAP
F8
88
88
88
88
F8
ENDCHAR
STARTCHAR 25AC
ENCODING 9644
SWIDTH 1008 0
DWIDTH 21 0
BBX 21 4 0 3
BITMAP
FFFFF8
FFFFF8
FFFFF8
FFFFF8
ENDCHAR
STARTCHAR 25B2
ENCODING 9650
SWIDTH 1008 0
DWIDTH 21 0
BBX 14 14 3 0
BITMAP
0100
0300
0380
0780
07C0
0FC0
0FE0
1FE0
1FF0
3FF0
3FF8
7FF8
7FFC
FFFC
ENDCHAR
STARTCHAR 25BA
ENCODING 9658
SWIDTH 1008 0
DWIDTH 21 0
BBX 14 14 3 0
BITMAP
C000
F000
FC00
FF00
FFC0
FFF0
FFFC
FFFC
FFF0
FFC0
FF00
FC00
F000
C000
ENDCHAR
STARTCHAR 25BC
ENCODING 9660
SWIDTH 1008 0
DWIDTH 21 0
BBX 14 14 3 0
BITMAP
FFFC
7FFC
7FF8
3FF8
3FF0
1FF0
1FE0
0FE0
0FC0
07C0
0780
0380
0300
0100
ENDCHAR
STARTCHAR 25C4
ENCODING 9668
SWIDTH 1008 0
DWIDTH 21 0
BBX 15 14 3 0
BITMAP
0006
001E
007E
01FE
07FE
1FFE
7FFE
FFFE
1FFE
07FE
01FE
007E
001E
0006
ENDCHAR
STARTCHAR 25CA
ENCODING 9674
SWIDTH 480 0
DWIDTH 10 0
BBX 9 14 1 0
BITMAP
1800
2400
2400
4200
4200
8100
8080
8100
C100
4200
2200
2400
1800
1800
ENDCHAR
STARTCHAR 25CB
ENCODING 9675
SWIDTH 624 0
DWIDTH 13 0
BBX 9 9 2 1
BITMAP
3E00
4100
8100
8080
8080
8080
8100
6200
1C00
ENDCHAR
STARTCHAR 25CF
ENCODING 9679
SWIDTH 624 0
DWIDTH 13 0
BBX 9 9 2 1
BITMAP
3E00
7F00
FF00
FF80
FF80
FF80
FF00
7E00
1800
ENDCHAR
STARTCHAR 25D8
ENCODING 9688
SWIDTH 624 0
DWIDTH 13 0
BBX 10 10 1 0
BITMAP
FFC0
FFC0
FFC0
F1C0
E1C0
E1C0
F1C0
FFC0
FFC0
FFC0
ENDCHAR
STARTCHAR 25D9
ENCODING 9689
SWIDTH 624 0
DWIDTH 13 0
BBX 12 12 0 0
BITMAP
FFF0
FFF0
F270
EFB0
DFF0
DFD0
DFD0
DFD0
DFB0
E770
F9F0
FFF0
ENDCHAR
STARTCHAR 25E6
ENCODING 9702
SWIDTH 336 0
DWIDTH 7 0
BBX 6 6 1 4
BITMAP
70
88
84
84
88
70
ENDCHAR
STARTCHAR 263A
ENCODING 9786
SWIDTH 1008 0
DWIDTH 21 0
BBX 13 13 4 -1
BITMAP
0700
18E0
2030
4010
4008
98C8
8008
8008
8008
4890
6710
3060
0FC0
ENDCHAR
STARTCHAR 263B
ENCODING 9787
SWIDTH 1056 0
DWIDTH 22 0
BBX 13 13 4 -1
BITMAP
0780
1FE0
3FF0
7FF8
7FF8
77B8
FFF8
7FF8
7FF8
7338
3CF0
1FE0
0FC0
ENDCHAR
STARTCHAR 263C
ENCODING 9788
SWIDTH 912 0
DWIDTH 19 0
BBX 17 18 1 -2
BITMAP
008000
008000
208300
13E600
0C1C00
080800
100400
100400
200200
E00380
100400
100400
080800
1C1400
33E200
408100
008000
008000
ENDCHAR
STARTCHAR 2640
ENCODING 9792
SWIDTH 768 0
DWIDTH 16 0
BBX 11 19 2 -4
BITMAP
1F80
2040
4040
8020
8020
8020
8020
4020
2040
1180
0E00
0400
0400
0400
7FE0
0400
0400
0400
0400
ENDCHAR
STARTCHAR 2642
ENCODING 9794
SWIDTH 768 0
DWIDTH 16 0
BBX 13 19 1 -3
BITMAP
0070
01B0
0630
0048
0048
0088
0080
0100
1F00
2080
4040
8040
8020
8020
8020
8040
4040
2080
1F00
ENDCHAR
STARTCHAR 2660
ENCODING 9824
SWIDTH 528 0
DWIDTH 11 0
BBX 9 12 1 1
BITMAP
0800
0800
1C00
3E00
7F00
FF80
FF80
FF80
FB80
0800
0C00
3F00
ENDCHAR
STARTCHAR 2663
ENCODING 9827
SWIDTH 672 0
DWIDTH 14 0
BBX 12 12 1 1
BITMAP
0F00
1F80
1F80
1F00
FFE0
FFF0
FFF0
FBF0
F5E0
0400
0E00
3F80
ENDCHAR
STARTCHAR 2665
ENCODING 9829
SWIDTH 576 0
DWIDTH 12 0
BBX 11 11 1 1
BITMAP
F3C0
FFE0
FFE0
FFC0
FFC0
7F80
3F80
1F00
1E00
0C00
0400
ENDCHAR
STARTCHAR 2666
ENCODING 9830
SWIDTH 528 0
DWIDTH 11 0
BBX 9 12 1 1
BITMAP
0800
1C00
3C00
3E00
7F00
FF80
FF00
7F00
3E00
3C00
1800
0800
ENDCHAR
STARTCHAR 266A
ENCODING 9834
SWIDTH 480 0
DWIDTH 10 0
BBX 10 14 0 0
BITMAP
0700
0780
05C0
0440
0440
0400
0400
0400
0400
0400
7C00
FC00
FC00
7800
ENDCHAR
STARTCHAR 266B
ENCODING 9835
SWIDTH 768 0
DWIDTH 16 0
BBX 13 16 1 -1
BITMAP
0078
03F8
0FF8
0F18
0818
0818
0818
0818
0818
0858
09F8
09F8
F9F0
F8F0
F800
F800
ENDCHAR
STARTCHAR E801
ENCODING 59393
SWIDTH 288 0
DWIDTH 6 0
BBX 6 14 -1 0
BITMAP
80
80
20
38
3C
3C
1C
04
04
04
04
04
04
04
ENDCHAR
STARTCHAR E802
ENCODING 59394
SWIDTH 480 0
DWIDTH 10 0
BBX 8 14 1 -4
BITMAP
FE
FF
FF
FE
02
22
32
02
32
02
02
02
02
02
ENDCHAR
STARTCHAR E803
ENCODING 59395
SWIDTH 480 0
DWIDTH 10 0
BBX 8 14 1 -4
BITMAP
FE
FF
FF
FE
02
02
F2
22
22
02
02
02
02
02
ENDCHAR
STARTCHAR E804
ENCODING 59396
SWIDTH 432 0
DWIDTH 9 0
BBX 11 16 -3 0
BITMAP
1000
1800
DC00
C800
0800
0FC0
0FE0
0FE0
0FE0
0020
0020
0060
00C0
0180
0100
0100
ENDCHAR
STARTCHAR E805
ENCODING 59397
SWIDTH 432 0
DWIDTH 9 0
BBX 11 16 -3 0
BITMAP
1000
1800
DC00
C800
0800
0FC0
0FE0
0FE0
0FE0
0020
0220
0260
00C0
0180
0100
0100
ENDCHAR
STARTCHAR E818
ENCODING 59416
SWIDTH 192 0
DWIDTH 4 0
BBX 3 6 1 15
BITMAP
E0
20
C0
60
E0
80
ENDCHAR
STARTCHAR E83A
ENCODING 59450
SWIDTH 624 0
DWIDTH 13 0
BBX 14 3 -1 3
BITMAP
FFFC
FFFC
FFFC
ENDCHAR
STARTCHAR F001
ENCODING 61441
SWIDTH 576 0
DWIDTH 12 0
BBX 10 14 1 0
BITMAP
1F00
3380
7300
7000
7000
FF80
7380
7380
7380
7380
7380
7380
7380
F3C0
ENDCHAR
STARTCHAR F002
ENCODING 61442
SWIDTH 576 0
DWIDTH 12 0
BBX 9 14 1 0
BITMAP
1F80
7380
7380
7380
FF80
FF80
7380
7380
7380
7380
7380
7380
7380
F380
ENDCHAR
STARTCHAR F004
ENCODING 61444
SWIDTH 336 0
DWIDTH 7 0
BBX 3 4 1 -5
BITMAP
E0
E0
20
40
ENDCHAR
STARTCHAR F005
ENCODING 61445
SWIDTH 336 0
DWIDTH 7 0
BBX 4 3 1 -4
BITMAP
70
30
E0
ENDCHAR
STARTCHAR F006
ENCODING 61446
SWIDTH 0 0
DWIDTH 0 0
BBX 3 2 -5 17
BITMAP
E0
C0
ENDCHAR
STARTCHAR F007
ENCODING 61447
SWIDTH 0 0
DWIDTH 0 0
BBX 4 2 -8 17
BITMAP
70
C0
ENDCHAR
STARTCHAR F008
ENCODING 61448
SWIDTH 0 0
DWIDTH 0 0
BBX 3 3 -4 11
BITMAP
E0
C0
80
ENDCHAR
STARTCHAR F009
ENCODING 61449
SWIDTH 0 0
DWIDTH 0 0
BBX 4 4 -6 15
BITMAP
70
60
C0
80
ENDCHAR
STARTCHAR F00A
ENCODING 61450
SWIDTH 768 0
DWIDTH 16 0
BBX 10 13 3 0
BITMAP
FFC0
8040
8040
8040
8040
8040
8040
8040
8040
8040
8040
8040
FFC0
ENDCHAR
STARTCHAR F00B
ENCODING 61451
SWIDTH 768 0
DWIDTH 16 0
BBX 10 13 3 0
BITMAP
FFC0
8040
8040
8040
8040
8040
8040
8040
8040
8040
8040
8040
FFC0
ENDCHAR
STARTCHAR F00C
ENCODING 61452
SWIDTH 768 0
DWIDTH 16 0
BBX 10 13 3 0
BITMAP
FFC0
8040
8040
8040
8040
8040
8040
8040
8040
8040
8040
8040
FFC0
ENDCHAR
STARTCHAR F00D
ENCODING 61453
SWIDTH 768 0
DWIDTH 16 0
BBX 10 13 3 0
BITMAP
FFC0
8040
8040
8040
8040
8040
8040
8040
8040
8040
8040
8040
FFC0
ENDCHAR
STARTCHAR F00E
ENCODING 61454
SWIDTH 768 0
DWIDTH 16 0
BBX 10 13 3 0
BITMAP
FFC0
8040
8040
8040
8040
8040
8040
8040
8040
8040
8040
8040
FFC0
ENDCHAR
STARTCHAR F00F
ENCODING 61455
SWIDTH 0 0
DWIDTH 0 0
BBX 4 3 -8 11
BITMAP
E0
60
30
ENDCHAR
STARTCHAR F010
ENCODING 61456
SWIDTH 0 0
DWIDTH 0 0
BBX 2 2 -5 17
BITMAP
C0
40
ENDCHAR
STARTCHAR F011
ENCODING 61457
SWIDTH 0 0
DWIDTH 0 0
BBX 2 2 -8 17
BITMAP
C0
40
ENDCHAR
STARTCHAR F012
ENCODING 61458
SWIDTH 0 0
DWIDTH 0 0
BBX 5 3 -5 11
BITMAP
F8
10
20
ENDCHAR
STARTCHAR F013
ENCODING 61459
SWIDTH 0 0
DWIDTH 0 0
BBX 4 3 -7 15
BITMAP
60
90
20
ENDCHAR
STARTCHAR F014
ENCODING 61460
SWIDTH 0 0
DWIDTH 0 0
BBX 4 3 -7 11
BITMAP
F0
30
40
ENDCHAR
STARTCHAR F015
ENCODING 61461
SWIDTH 0 0
DWIDTH 0 0
BBX 6 2 -10 17
BITMAP
44
B8
ENDCHAR
STARTCHAR F016
ENCODING 61462
SWIDTH 0 0
DWIDTH 0 0
BBX 7 2 -11 16
BITMAP
7A
FE
ENDCHAR
STARTCHAR F017
ENCODING 61463
SWIDTH 0 0
DWIDTH 0 0
BBX 6 2 -11 16
BITMAP
FC
FC
ENDCHAR
STARTCHAR F018
ENCODING 61464
SWIDTH 0 0
DWIDTH 0 0
BBX 7 2 -12 16
BITMAP
7A
FE
ENDCHAR
STARTCHAR F019
ENCODING 61465
SWIDTH 0 0
DWIDTH 0 0
BBX 6 3 -8 11
BITMAP
70
FC
9C
ENDCHAR
STARTCHAR F01A
ENCODING 61466
SWIDTH 0 0
DWIDTH 0 0
BBX 6 3 -9 11
BITMAP
64
FC
18
ENDCHAR
STARTCHAR F01B
ENCODING 61467
SWIDTH 0 0
DWIDTH 0 0
BBX 6 3 -10 11
BITMAP
70
FC
9C
ENDCHAR
STARTCHAR F01C
ENCODING 61468
SWIDTH 0 0
DWIDTH 0 0
BBX 6 2 -7 16
BITMAP
FC
BC
ENDCHAR
STARTCHAR F01D
ENCODING 61469
SWIDTH 0 0
DWIDTH 0 0
BBX 6 3 -6 11
BITMAP
64
FC
38
ENDCHAR
STARTCHAR F01E
ENCODING 61470
SWIDTH 0 0
DWIDTH 0 0
BBX 4 3 -9 -4
BITMAP
60
F0
70
ENDCHAR
STARTCHAR F01F
ENCODING 61471
SWIDTH 0 0
DWIDTH 0 0
BBX 4 3 -10 -4
BITMAP
60
F0
F0
ENDCHAR
STARTCHAR F020
ENCODING 61472
SWIDTH 0 0
DWIDTH 0 0
BBX 4 3 -10 -4
BITMAP
60
F0
F0
ENDCHAR
STARTCHAR F021
ENCODING 61473
SWIDTH 0 0
DWIDTH 0 0
BBX 3 3 -9 -4
BITMAP
E0
E0
E0
ENDCHAR
STARTCHAR F022
ENCODING 61474
SWIDTH 0 0
DWIDTH 0 0
BBX 4 3 -11 -4
BITMAP
60
F0
E0
ENDCHAR
STARTCHAR F023
ENCODING 61475
SWIDTH 0 0
DWIDTH 0 0
BBX 4 3 -7 -4
BITMAP
60
F0
70
ENDCHAR
STARTCHAR F024
ENCODING 61476
SWIDTH 0 0
DWIDTH 0 0
BBX 3 3 -6 -4
BITMAP
E0
E0
E0
ENDCHAR
STARTCHAR F025
ENCODING 61477
SWIDTH 0 0
DWIDTH 0 0
BBX 3 3 -7 -4
BITMAP
60
E0
E0
ENDCHAR
STARTCHAR F026
ENCODING 61478
SWIDTH 0 0
DWIDTH 0 0
BBX 3 3 -8 -4
BITMAP
60
E0
E0
ENDCHAR
STARTCHAR F027
ENCODING 61479
SWIDTH 0 0
DWIDTH 0 0
BBX 3 3 -8 -4
BITMAP
60
E0
E0
ENDCHAR
STARTCHAR F028
ENCODING 61480
SWIDTH 0 0
DWIDTH 0 0
BBX 4 3 -9 -4
BITMAP
60
F0
E0
ENDCHAR
STARTCHAR F029
ENCODING 61481
SWIDTH 0 0
DWIDTH 0 0
BBX 4 3 -6 -4
BITMAP
60
F0
E0
ENDCHAR
STARTCHAR F02A
ENCODING 61482
SWIDTH 0 0
DWIDTH 0 0
BBX 3 3 -4 -4
BITMAP
C0
E0
E0
ENDCHAR
STARTCHAR F02B
ENCODING 61483
SWIDTH 0 0
DWIDTH 0 0
BBX 3 3 -9 -4
BITMAP
E0
E0
E0
ENDCHAR
STARTCHAR F02C
ENCODING 61484
SWIDTH 0 0
DWIDTH 0 0
BBX 3 3 -4 -4
BITMAP
E0
E0
E0
ENDCHAR
STARTCHAR F02D
ENCODING 61485
SWIDTH 0 0
DWIDTH 0 0
BBX 6 2 -10 17
BITMAP
64
BC
ENDCHAR
STARTCHAR F02E
ENCODING 61486
SWIDTH 0 0
DWIDTH 0 0
BBX 6 2 -10 16
BITMAP
FC
BC
ENDCHAR
STARTCHAR F02F
ENCODING 61487
SWIDTH 0 0
DWIDTH 0 0
BBX 6 2 -11 17
BITMAP
44
BC
ENDCHAR
STARTCHAR F030
ENCODING 61488
SWIDTH 0 0
DWIDTH 0 0
BBX 6 2 -11 16
BITMAP
FC
BC
ENDCHAR
STARTCHAR F031
ENCODING 61489
SWIDTH 288 0
DWIDTH 6 0
BBX 5 10 0 0
BITMAP
F0
70
30
30
30
30
30
30
30
78
ENDCHAR
STARTCHAR FB01
ENCODING 64257
SWIDTH 576 0
DWIDTH 12 0
BBX 10 14 1 0
BITMAP
1F00
3380
7300
7000
7000
FF80
7380
7380
7380
7380
7380
7380
7380
F3C0
ENDCHAR
STARTCHAR FB02
ENCODING 64258
SWIDTH 576 0
DWIDTH 12 0
BBX 9 14 1 0
BITMAP
1F80
7380
7380
7380
FF80
FF80
7380
7380
7380
7380
7380
7380
7380
F380
ENDCHAR
STARTCHAR FB1D
ENCODING 64285
SWIDTH 288 0
DWIDTH 6 0
BBX 5 10 1 2
BITMAP
F0
F8
F8
78
08
10
10
00
00
20
ENDCHAR
STARTCHAR FB1E
ENCODING 64286
SWIDTH 0 0
DWIDTH 0 0
BBX 6 4 -3 12
BITMAP
84
CC
78
30
ENDCHAR
STARTCHAR FB1F
ENCODING 64287
SWIDTH 624 0
DWIDTH 13 0
BBX 11 10 1 2
BITMAP
F3C0
FBE0
FBE0
79E0
0820
1020
1040
0000
1FE0
1FE0
ENDCHAR
STARTCHAR FB20
ENCODING 64288
SWIDTH 528 0
DWIDTH 11 0
BBX 10 12 0 0
BITMAP
0200
7380
7BC0
7BC0
39C0
2080
3880
1980
7F80
7F80
7F00
FE00
ENDCHAR
STARTCHAR FB2A
ENCODING 64298
SWIDTH 672 0
DWIDTH 14 0
BBX 13 14 1 0
BITMAP
0060
0020
0000
EE70
EF78
FF78
6738
4610
4420
4C60
7FC0
7FC0
7FC0
7FC0
ENDCHAR
STARTCHAR FB2B
ENCODING 64299
SWIDTH 672 0
DWIDTH 14 0
BBX 13 14 1 0
BITMAP
8000
8000
0000
EE70
EF78
FF78
6738
4610
4420
4C60
7FC0
7FC0
7FC0
7FC0
ENDCHAR
STARTCHAR FB2C
ENCODING 64300
SWIDTH 672 0
DWIDTH 14 0
BBX 13 14 1 0
BITMAP
0060
0020
0000
EE70
FF78
FF78
6738
4610
45A0
4C60
7FC0
7FC0
7FC0
7FC0
ENDCHAR
STARTCHAR FB2D
ENCODING 64301
SWIDTH 672 0
DWIDTH 14 0
BBX 13 14 1 0
BITMAP
8000
8000
0000
EE70
FF78
FF78
6738
4610
45A0
4C60
7FC0
7FC0
7FC0
7FC0
ENDCHAR
STARTCHAR FB2E
ENCODING 64302
SWIDTH 528 0
DWIDTH 11 0
BBX 9 15 1 -3
BITMAP
0400
C700
E780
F780
FB80
7E00
5E00
CF00
C780
E380
F180
F080
0000
0000
3E00
ENDCHAR
STARTCHAR FB2F
ENCODING 64303
SWIDTH 528 0
DWIDTH 11 0
BBX 9 16 1 -4
BITMAP
0400
C700
E780
F780
FB80
7E00
5E00
CF00
C780
E380
F180
F080
0000
3E00
0800
0800
ENDCHAR
STARTCHAR FB30
ENCODING 64304
SWIDTH 528 0
DWIDTH 11 0
BBX 9 12 1 0
BITMAP
0400
C700
E780
F780
FB80
7E00
5E00
CF00
C780
E380
F580
F480
ENDCHAR
STARTCHAR FB31
ENCODING 64305
SWIDTH 480 0
DWIDTH 10 0
BBX 9 11 0 0
BITMAP
7E00
7F00
7F00
3F00
0100
1900
0100
7F80
7F80
7F80
FF80
ENDCHAR
STARTCHAR FB32
ENCODING 64306
SWIDTH 384 0
DWIDTH 8 0
BBX 7 11 0 1
BITMAP
78
7C
7C
3C
08
24
0C
7E
76
72
F2
ENDCHAR
STARTCHAR FB33
ENCODING 64307
SWIDTH 480 0
DWIDTH 10 0
BBX 8 11 1 0
BITMAP
FF
FF
FF
7F
04
3C
0C
0C
0C
0C
08
ENDCHAR
STARTCHAR FB34
ENCODING 64308
SWIDTH 528 0
DWIDTH 11 0
BBX 9 11 1 0
BITMAP
FF80
FF80
FF80
7F80
0100
0900
6300
C300
C300
C300
C300
ENDCHAR
STARTCHAR FB35
ENCODING 64309
SWIDTH 288 0
DWIDTH 6 0
BBX 4 12 1 0
BITMAP
80
E0
F0
F0
70
10
90
D0
10
10
10
10
ENDCHAR
STARTCHAR FB36
ENCODING 64310
SWIDTH 336 0
DWIDTH 7 0
BBX 6 11 0 1
BITMAP
78
7C
7C
3C
10
D0
10
10
18
18
10
ENDCHAR
STARTCHAR FB38
ENCODING 64312
SWIDTH 528 0
DWIDTH 11 0
BBX 9 12 1 0
BITMAP
8000
E300
F780
F780
F580
4080
4C80
4C80
7F80
7F80
7F80
7F00
ENDCHAR
STARTCHAR FB39
ENCODING 64313
SWIDTH 288 0
DWIDTH 6 0
BBX 5 7 1 5
BITMAP
F0
F8
F8
78
08
D0
10
ENDCHAR
STARTCHAR FB3A
ENCODING 64314
SWIDTH 480 0
DWIDTH 10 0
BBX 8 14 1 -4
BITMAP
FE
FF
FF
FE
02
02
02
32
02
02
02
02
02
02
ENDCHAR
STARTCHAR FB3B
ENCODING 64315
SWIDTH 432 0
DWIDTH 9 0
BBX 8 11 0 0
BITMAP
7C
7E
7F
3F
01
19
01
7F
7F
7F
FE
ENDCHAR
STARTCHAR FB3C
ENCODING 64316
SWIDTH 432 0
DWIDTH 9 0
BBX 8 16 0 0
BITMAP
80
C0
E0
40
40
7E
7F
7F
7F
01
11
13
06
0C
08
08
ENDCHAR
STARTCHAR FB3E
ENCODING 64318
SWIDTH 528 0
DWIDTH 11 0
BBX 9 12 1 0
BITMAP
8000
E600
E700
EF80
7F80
3180
6480
4480
CF80
8F80
9F80
9F80
ENDCHAR
STARTCHAR FB40
ENCODING 64320
SWIDTH 336 0
DWIDTH 7 0
BBX 6 11 0 1
BITMAP
78
7C
7C
38
08
68
08
7C
7C
7C
FC
ENDCHAR
STARTCHAR FB41
ENCODING 64321
SWIDTH 480 0
DWIDTH 10 0
BBX 8 11 1 0
BITMAP
FC
FE
FF
FF
C1
99
81
E3
FF
7E
7E
ENDCHAR
STARTCHAR FB43
ENCODING 64323
SWIDTH 480 0
DWIDTH 10 0
BBX 8 14 1 -4
BITMAP
FE
FF
FF
FF
41
4D
F1
F1
C1
01
01
01
01
01
ENDCHAR
STARTCHAR FB44
ENCODING 64324
SWIDTH 480 0
DWIDTH 10 0
BBX 8 11 1 0
BITMAP
F8
FE
FE
7E
83
ED
81
FF
FE
FE
FC
ENDCHAR
STARTCHAR FB46
ENCODING 64326
SWIDTH 528 0
DWIDTH 11 0
BBX 9 11 1 1
BITMAP
E700
F780
F780
7380
5200
5E00
0E00
FF00
FF80
FF00
FF00
ENDCHAR
STARTCHAR FB47
ENCODING 64327
SWIDTH 480 0
DWIDTH 10 0
BBX 8 15 1 -4
BITMAP
FE
FF
FF
7F
01
71
D2
C4
C8
D8
D8
C0
C0
80
80
ENDCHAR
STARTCHAR FB48
ENCODING 64328
SWIDTH 480 0
DWIDTH 10 0
BBX 8 11 1 0
BITMAP
FC
FE
FE
FF
03
13
13
03
03
03
02
ENDCHAR
STARTCHAR FB49
ENCODING 64329
SWIDTH 672 0
DWIDTH 14 0
BBX 13 11 1 1
BITMAP
EE70
FF78
FF78
6738
4610
45A0
4C60
7FC0
7FC0
7FC0
7FC0
ENDCHAR
STARTCHAR FB4A
ENCODING 64330
SWIDTH 528 0
DWIDTH 11 0
BBX 10 11 0 0
BITMAP
3F00
7F80
7FC0
3FC0
10C0
1240
1640
7040
7040
7040
F040
ENDCHAR
STARTCHAR FB4B
ENCODING 64331
SWIDTH 288 0
DWIDTH 6 0
BBX 4 14 1 0
BITMAP
60
60
80
E0
F0
F0
70
10
10
10
10
10
10
10
ENDCHAR
STARTCHAR FB4C
ENCODING 64332
SWIDTH 480 0
DWIDTH 10 0
BBX 9 13 0 0
BITMAP
1E00
0000
7E00
7F00
7F00
3F00
0100
0100
0100
7F80
7F80
7F80
FF80
ENDCHAR
STARTCHAR FB4D
ENCODING 64333
SWIDTH 432 0
DWIDTH 9 0
BBX 8 13 0 0
BITMAP
3C
00
7C
7E
7F
3F
01
01
01
7F
7F
7F
FE
ENDCHAR
STARTCHAR FB4E
ENCODING 64334
SWIDTH 480 0
DWIDTH 10 0
BBX 8 13 1 0
BITMAP
3C
00
FC
FE
FE
7E
83
E1
81
FF
FE
FE
FC
ENDCHAR
STARTCHAR FB4F
ENCODING 64335
SWIDTH 528 0
DWIDTH 11 0
BBX 10 16 0 0
BITMAP
8000
C000
E000
4000
4200
6380
73C0
7BC0
3DC0
1F00
2F00
6780
63C0
71C0
78C0
7840
ENDCHAR
STARTCHAR FB50
ENCODING 64336
SWIDTH 240 0
DWIDTH 5 0
BBX 4 17 0 2
BITMAP
10
70
F0
80
20
20
60
20
20
30
30
30
30
30
30
20
20
ENDCHAR
STARTCHAR FB51
ENCODING 64337
SWIDTH 240 0
DWIDTH 5 0
BBX 6 16 -1 3
BITMAP
10
68
F0
00
20
20
20
20
20
20
20
30
30
3C
1C
1C
ENDCHAR
STARTCHAR FB52
ENCODING 64338
SWIDTH 672 0
DWIDTH 14 0
BBX 13 13 1 -4
BITMAP
8010
8010
8010
8018
FFF8
FFF8
7FF8
0000
0600
0600
0200
0180
0380
ENDCHAR
STARTCHAR FB53
ENCODING 64339
SWIDTH 672 0
DWIDTH 14 0
BBX 13 13 1 -4
BITMAP
8010
8010
8010
8018
FFF8
FFF8
7FF8
0000
0600
0600
0200
0180
0380
ENDCHAR
STARTCHAR FB54
ENCODING 64340
SWIDTH 288 0
DWIDTH 6 0
BBX 7 13 -1 -4
BITMAP
04
04
06
06
FE
FE
FE
00
30
30
10
0C
18
ENDCHAR
STARTCHAR FB55
ENCODING 64341
SWIDTH 288 0
DWIDTH 6 0
BBX 7 13 -1 -4
BITMAP
04
04
06
06
FE
FE
FE
00
30
30
10
0C
18
ENDCHAR
STARTCHAR FB56
ENCODING 64342
SWIDTH 672 0
DWIDTH 14 0
BBX 13 14 1 -4
BITMAP
8010
8010
8010
8018
FFF8
FFF8
7FF8
0000
0100
0F80
0D00
0700
0300
0100
ENDCHAR
STARTCHAR FB57
ENCODING 64343
SWIDTH 672 0
DWIDTH 14 0
BBX 13 14 1 -4
BITMAP
8010
8010
8010
8018
FFF8
FFF8
7FF8
0000
0100
0F80
0D00
0700
0300
0100
ENDCHAR
STARTCHAR FB58
ENCODING 64344
SWIDTH 288 0
DWIDTH 6 0
BBX 7 14 -1 -4
BITMAP
04
04
06
06
FE
FE
FE
00
0C
3C
74
08
1C
08
ENDCHAR
STARTCHAR FB59
ENCODING 64345
SWIDTH 288 0
DWIDTH 6 0
BBX 7 14 -1 -4
BITMAP
04
04
06
06
FE
FE
FE
00
0C
3C
74
08
1C
08
ENDCHAR
STARTCHAR FB5A
ENCODING 64346
SWIDTH 672 0
DWIDTH 14 0
BBX 13 14 1 -4
BITMAP
8010
8010
8010
8018
FFF8
FFF8
7FF8
0000
0300
0F00
1D00
01C0
0780
0600
ENDCHAR
STARTCHAR FB5B
ENCODING 64347
SWIDTH 672 0
DWIDTH 14 0
BBX 13 14 1 -4
BITMAP
8010
8010
8010
8018
FFF8
FFF8
7FF8
0000
0300
0F00
1D00
01C0
0780
0600
ENDCHAR
STARTCHAR FB5C
ENCODING 64348
SWIDTH 288 0
DWIDTH 6 0
BBX 7 14 -1 -4
BITMAP
04
04
06
06
FE
FE
FE
00
08
78
68
06
3E
30
ENDCHAR
STARTCHAR FB5D
ENCODING 64349
SWIDTH 288 0
DWIDTH 6 0
BBX 7 14 -1 -4
BITMAP
04
04
06
06
FE
FE
FE
00
08
78
68
06
3E
30
ENDCHAR
STARTCHAR FB5E
ENCODING 64350
SWIDTH 672 0
DWIDTH 14 0
BBX 13 13 1 3
BITMAP
0400
0C00
0C00
0300
0700
0200
8010
8010
8010
8018
FFF8
FFF8
7FF8
ENDCHAR
STARTCHAR FB5F
ENCODING 64351
SWIDTH 672 0
DWIDTH 14 0
BBX 13 13 1 3
BITMAP
0400
0C00
0C00
0300
0700
0200
8010
8010
8010
8018
FFF8
FFF8
7FF8
ENDCHAR
STARTCHAR FB60
ENCODING 64352
SWIDTH 288 0
DWIDTH 6 0
BBX 7 14 -1 3
BITMAP
30
70
00
1C
18
08
00
04
04
06
06
FE
FE
FE
ENDCHAR
STARTCHAR FB61
ENCODING 64353
SWIDTH 288 0
DWIDTH 6 0
BBX 7 14 -1 3
BITMAP
30
70
00
1C
18
08
00
04
04
06
06
FE
FE
FE
ENDCHAR
STARTCHAR FB62
ENCODING 64354
SWIDTH 672 0
DWIDTH 14 0
BBX 13 13 1 3
BITMAP
0200
1E00
1B00
0D80
0F80
0C00
8010
8010
8010
8018
FFF8
FFF8
7FF8
ENDCHAR
STARTCHAR FB63
ENCODING 64355
SWIDTH 672 0
DWIDTH 14 0
BBX 13 13 1 3
BITMAP
0200
1E00
1B00
0D80
0F80
0C00
8010
8010
8010
8018
FFF8
FFF8
7FF8
ENDCHAR
STARTCHAR FB64
ENCODING 64356
SWIDTH 288 0
DWIDTH 6 0
BBX 7 14 -1 4
BITMAP
5C
78
64
16
3C
10
00
04
04
06
06
FE
FE
FE
ENDCHAR
STARTCHAR FB65
ENCODING 64357
SWIDTH 288 0
DWIDTH 6 0
BBX 7 14 -1 4
BITMAP
5C
78
64
16
3C
10
00
04
04
06
06
FE
FE
FE
ENDCHAR
STARTCHAR FB66
ENCODING 64358
SWIDTH 672 0
DWIDTH 14 0
BBX 13 14 1 3
BITMAP
0C00
0400
0400
0780
0480
1F80
0000
8010
8010
8010
8018
FFF8
FFF8
7FF8
ENDCHAR
STARTCHAR FB67
ENCODING 64359
SWIDTH 672 0
DWIDTH 14 0
BBX 13 14 1 3
BITMAP
0C00
0400
0400
0780
0480
1F80
0000
8010
8010
8010
8018
FFF8
FFF8
7FF8
ENDCHAR
STARTCHAR FB68
ENCODING 64360
SWIDTH 288 0
DWIDTH 6 0
BBX 7 14 -1 3
BITMAP
30
10
20
1E
32
7E
00
04
04
06
06
FE
FE
FE
ENDCHAR
STARTCHAR FB69
ENCODING 64361
SWIDTH 288 0
DWIDTH 6 0
BBX 7 14 -1 3
BITMAP
30
10
20
1E
32
7E
00
04
04
06
06
FE
FE
FE
ENDCHAR
STARTCHAR FB6A
ENCODING 64362
SWIDTH 768 0
DWIDTH 16 0
BBX 16 15 0 3
BITMAP
0018
0018
0014
0016
003E
0010
0000
000E
401E
401F
401B
401F
FFFF
7FFF
7FFF
ENDCHAR
STARTCHAR FB6B
ENCODING 64363
SWIDTH 768 0
DWIDTH 16 0
BBX 16 15 0 3
BITMAP
0018
0018
0014
0016
003E
0010
0000
000E
401E
401F
401B
401F
FFFF
7FFF
7FFF
ENDCHAR
STARTCHAR FB6C
ENCODING 64364
SWIDTH 288 0
DWIDTH 6 0
BBX 7 14 -1 3
BITMAP
30
08
20
00
1C
1C
36
26
3E
3E
02
FE
FE
FE
ENDCHAR
STARTCHAR FB6D
ENCODING 64365
SWIDTH 336 0
DWIDTH 7 0
BBX 8 15 -1 4
BITMAP
30
30
1C
3C
74
00
0C
1E
1E
13
1B
1F
FF
FF
FF
ENDCHAR
STARTCHAR FB6E
ENCODING 64366
SWIDTH 768 0
DWIDTH 16 0
BBX 16 15 0 3
BITMAP
000C
0078
0064
0016
003E
0010
0000
000E
401E
401F
401B
401F
FFFF
7FFF
7FFF
ENDCHAR
STARTCHAR FB6F
ENCODING 64367
SWIDTH 768 0
DWIDTH 16 0
BBX 16 15 0 3
BITMAP
000C
0078
0064
0016
003E
0010
0000
000E
401E
401F
401B
401F
FFFF
7FFF
7FFF
ENDCHAR
STARTCHAR FB70
ENCODING 64368
SWIDTH 288 0
DWIDTH 6 0
BBX 7 15 -1 3
BITMAP
18
68
0C
30
00
1C
1C
36
26
3E
3E
02
FE
FE
FE
ENDCHAR
STARTCHAR FB71
ENCODING 64369
SWIDTH 336 0
DWIDTH 7 0
BBX 8 15 -1 4
BITMAP
0C
7C
64
16
3E
10
0C
1E
1E
13
1B
1F
FF
FF
FF
ENDCHAR
STARTCHAR FB72
ENCODING 64370
SWIDTH 576 0
DWIDTH 12 0
BBX 11 15 1 -4
BITMAP
7FC0
FF80
FF80
3C00
6000
4000
8C00
8C00
8200
8700
C600
E000
FEE0
7FC0
1F00
ENDCHAR
STARTCHAR FB73
ENCODING 64371
SWIDTH 576 0
DWIDTH 12 0
BBX 11 15 1 -4
BITMAP
7FC0
FF80
FF80
3E00
6200
43E0
9BE0
B9E0
8000
8C00
CC00
E000
FC60
7F80
3F00
ENDCHAR
STARTCHAR FB74
ENCODING 64372
SWIDTH 528 0
DWIDTH 11 0
BBX 12 14 -1 -4
BITMAP
1E00
1F00
0780
01C0
FFF0
FFF0
FFF0
0000
0600
0E00
0000
0380
0300
0100
ENDCHAR
STARTCHAR FB75
ENCODING 64373
SWIDTH 528 0
DWIDTH 11 0
BBX 12 14 -1 -4
BITMAP
1E00
1F00
0780
01C0
FFF0
FFF0
FFF0
0000
0600
0E00
0000
0380
0300
0100
ENDCHAR
STARTCHAR FB76
ENCODING 64374
SWIDTH 576 0
DWIDTH 12 0
BBX 11 15 1 -4
BITMAP
7FC0
FF80
FF80
3C00
6000
4000
8300
8F00
9C00
8000
C000
E000
FEE0
7FC0
1F00
ENDCHAR
STARTCHAR FB77
ENCODING 64375
SWIDTH 576 0
DWIDTH 12 0
BBX 11 15 1 -4
BITMAP
7FC0
FF80
FF80
3E00
6200
43E0
83E0
85E0
BE00
B400
D000
E000
FC60
7F80
3F00
ENDCHAR
STARTCHAR FB78
ENCODING 64376
SWIDTH 528 0
DWIDTH 11 0
BBX 12 12 -1 -2
BITMAP
1E00
1F00
0780
01C0
FFF0
FFF0
FFF0
0000
0180
0F80
0D00
0400
ENDCHAR
STARTCHAR FB79
ENCODING 64377
SWIDTH 528 0
DWIDTH 11 0
BBX 12 12 -1 -2
BITMAP
1E00
1F00
0780
01C0
FFF0
FFF0
FFF0
0000
0180
0F80
0D00
0400
ENDCHAR
STARTCHAR FB7A
ENCODING 64378
SWIDTH 576 0
DWIDTH 12 0
BBX 11 15 1 -4
BITMAP
7FC0
FF80
FF80
3C00
6000
4200
9F00
9A00
8800
8600
C600
E000
FEE0
7FC0
1F00
ENDCHAR
STARTCHAR FB7B
ENCODING 64379
SWIDTH 576 0
DWIDTH 12 0
BBX 11 15 1 -4
BITMAP
7FC0
FF80
FF80
3E00
6200
43E0
8BE0
ADE0
B800
8800
D800
E000
FC60
7F80
3F00
ENDCHAR
STARTCHAR FB7C
ENCODING 64380
SWIDTH 528 0
DWIDTH 11 0
BBX 12 14 -1 -4
BITMAP
1E00
1F00
0780
01C0
FFF0
FFF0
FFF0
0000
0100
0F00
0D00
0300
0300
0300
ENDCHAR
STARTCHAR FB7D
ENCODING 64381
SWIDTH 528 0
DWIDTH 11 0
BBX 12 14 -1 -4
BITMAP
1E00
1F00
0780
01C0
FFF0
FFF0
FFF0
0000
0100
0F00
0D00
0300
0300
0300
ENDCHAR
STARTCHAR FB7E
ENCODING 64382
SWIDTH 576 0
DWIDTH 12 0
BBX 11 15 1 -4
BITMAP
7FC0
FF80
FF80
3C00
6000
4300
9F00
9900
8D80
8780
C400
E000
FEE0
7FC0
1F00
ENDCHAR
STARTCHAR FB7F
ENCODING 64383
SWIDTH 576 0
DWIDTH 12 0
BBX 11 15 1 -4
BITMAP
7FC0
FF80
FF80
3E00
6200
43E0
83E0
89E0
A000
8400
D000
E000
FC60
7F80
3F00
ENDCHAR
STARTCHAR FB80
ENCODING 64384
SWIDTH 528 0
DWIDTH 11 0
BBX 12 14 -1 -4
BITMAP
1E00
1F00
0780
01C0
FFF0
FFF0
FFF0
0000
0300
0F00
1D00
00C0
0780
0600
ENDCHAR
STARTCHAR FB81
ENCODING 64385
SWIDTH 528 0
DWIDTH 11 0
BBX 12 14 -1 -4
BITMAP
1E00
1F00
0780
01C0
FFF0
FFF0
FFF0
0000
0300
0F00
1D00
00C0
0780
0600
ENDCHAR
STARTCHAR FB82
ENCODING 64386
SWIDTH 336 0
DWIDTH 7 0
BBX 6 14 1 -1
BITMAP
18
18
1C
0C
04
04
FC
FC
FC
00
08
7C
68
20
ENDCHAR
STARTCHAR FB83
ENCODING 64387
SWIDTH 336 0
DWIDTH 7 0
BBX 6 14 1 -1
BITMAP
18
18
1C
0C
04
04
FC
FC
FC
00
08
7C
68
20
ENDCHAR
STARTCHAR FB84
ENCODING 64388
SWIDTH 336 0
DWIDTH 7 0
BBX 6 15 1 3
BITMAP
10
58
F8
40
00
00
18
18
1C
0C
04
04
FC
FC
FC
ENDCHAR
STARTCHAR FB85
ENCODING 64389
SWIDTH 336 0
DWIDTH 7 0
BBX 6 15 1 3
BITMAP
10
58
F8
40
00
00
18
18
1C
0C
04
04
FC
FC
FC
ENDCHAR
STARTCHAR FB86
ENCODING 64390
SWIDTH 336 0
DWIDTH 7 0
BBX 6 15 1 4
BITMAP
70
60
38
78
E8
00
00
08
1C
1C
0C
04
FC
FC
FC
ENDCHAR
STARTCHAR FB87
ENCODING 64391
SWIDTH 336 0
DWIDTH 7 0
BBX 6 15 1 4
BITMAP
70
60
38
78
E8
00
00
08
1C
1C
0C
04
FC
FC
FC
ENDCHAR
STARTCHAR FB88
ENCODING 64392
SWIDTH 336 0
DWIDTH 7 0
BBX 6 16 1 3
BITMAP
40
40
40
40
38
48
F8
00
08
1C
1C
0C
04
FC
FC
FC
ENDCHAR
STARTCHAR FB89
ENCODING 64393
SWIDTH 336 0
DWIDTH 7 0
BBX 6 16 1 3
BITMAP
40
40
40
40
38
48
F8
00
08
1C
1C
0C
04
FC
FC
FC
ENDCHAR
STARTCHAR FB8A
ENCODING 64394
SWIDTH 432 0
DWIDTH 9 0
BBX 9 18 0 -2
BITMAP
0400
0600
0700
0180
0F80
0C00
0000
0000
0100
0180
0180
0080
0080
0080
0180
0380
CF00
3E00
ENDCHAR
STARTCHAR FB8B
ENCODING 64395
SWIDTH 432 0
DWIDTH 9 0
BBX 9 18 0 -2
BITMAP
0400
0600
0700
0180
0F80
0C00
0000
0000
0100
0180
0180
0080
0080
0080
0180
0380
CF00
3E00
ENDCHAR
STARTCHAR FB8C
ENCODING 64396
SWIDTH 432 0
DWIDTH 9 0
BBX 9 18 0 -2
BITMAP
0C00
0400
0400
0780
0C80
1F80
0000
0000
0100
0180
0180
0080
0080
0080
0180
0380
CF00
3E00
ENDCHAR
STARTCHAR FB8D
ENCODING 64397
SWIDTH 432 0
DWIDTH 9 0
BBX 9 18 0 -2
BITMAP
0C00
0400
0400
0780
0C80
1F80
0000
0000
0100
0180
0180
0080
0080
0080
0180
0380
CF00
3E00
ENDCHAR
STARTCHAR FB8E
ENCODING 64398
SWIDTH 768 0
DWIDTH 16 0
BBX 16 12 0 3
BITMAP
0002
000E
003E
0030
0070
0038
403C
400E
C006
FFFF
7FFF
3FFF
ENDCHAR
STARTCHAR FB8F
ENCODING 64399
SWIDTH 864 0
DWIDTH 18 0
BBX 18 12 0 3
BITMAP
000600
001E00
007E00
007000
006000
007000
407800
401C00
C01E00
FFF7C0
7FF3C0
3FE1C0
ENDCHAR
STARTCHAR FB90
ENCODING 64400
SWIDTH 384 0
DWIDTH 8 0
BBX 9 12 -1 3
BITMAP
0100
0700
1F00
3800
3800
3C00
1E00
0600
0300
FF80
FF80
FF80
ENDCHAR
STARTCHAR FB91
ENCODING 64401
SWIDTH 528 0
DWIDTH 11 0
BBX 12 12 -1 3
BITMAP
0180
0780
1F80
1C00
1800
1C00
1E00
0700
0780
FDF0
FCF0
F870
ENDCHAR
STARTCHAR FB92
ENCODING 64402
SWIDTH 768 0
DWIDTH 16 0
BBX 16 15 0 3
BITMAP
0002
000E
003C
0072
004E
003E
0030
0070
0038
403C
400E
C006
FFFF
7FFF
3FFF
ENDCHAR
STARTCHAR FB93
ENCODING 64403
SWIDTH 864 0
DWIDTH 18 0
BBX 18 15 0 3
BITMAP
000600
001E00
003C00
006600
001E00
007E00
007000
006000
007000
407800
401C00
C01E00
FFF7C0
7FF3C0
3FE1C0
ENDCHAR
STARTCHAR FB94
ENCODING 64404
SWIDTH 384 0
DWIDTH 8 0
BBX 9 15 -1 3
BITMAP
0100
0700
1E00
3900
6700
1F00
3800
3800
3C00
1E00
0600
0300
FF80
FF80
FF80
ENDCHAR
STARTCHAR FB95
ENCODING 64405
SWIDTH 528 0
DWIDTH 11 0
BBX 12 15 -1 3
BITMAP
0180
0780
0F00
1980
0780
1F80
1C00
1800
1C00
1E00
0700
0780
FDF0
FCF0
F870
ENDCHAR
STARTCHAR FB96
ENCODING 64406
SWIDTH 768 0
DWIDTH 16 0
BBX 16 22 0 -4
BITMAP
0002
000E
003C
0072
004E
003E
0030
0070
0038
403C
400E
C006
FFFF
7FFF
3FFF
0000
0180
0380
0100
00E0
00C0
0040
ENDCHAR
STARTCHAR FB97
ENCODING 64407
SWIDTH 864 0
DWIDTH 18 0
BBX 18 21 0 -4
BITMAP
000600
001E00
003C00
006600
001E00
007E00
007000
006000
007000
407800
401C00
C01E00
FFF7C0
7FF3C0
3FE1C0
000000
060000
060000
020000
018000
038000
ENDCHAR
STARTCHAR FB98
ENCODING 64408
SWIDTH 384 0
DWIDTH 8 0
BBX 9 21 -1 -4
BITMAP
0100
0700
1E00
3900
6700
1F00
3800
3800
3C00
1E00
0600
0300
FF80
FF80
FF80
0000
1800
1800
0800
0E00
0C00
ENDCHAR
STARTCHAR FB99
ENCODING 64409
SWIDTH 528 0
DWIDTH 11 0
BBX 12 21 -1 -4
BITMAP
0180
0780
0F00
1980
0780
1F80
1C00
1800
1C00
1E00
0700
0780
FDF0
FCF0
F870
0000
3000
3000
1000
0C00
1800
ENDCHAR
STARTCHAR FB9A
ENCODING 64410
SWIDTH 768 0
DWIDTH 16 0
BBX 16 16 0 3
BITMAP
0010
005A
004E
003C
0072
004E
003E
0030
0070
0038
403C
400E
C006
FFFF
7FFF
3FFF
ENDCHAR
STARTCHAR FB9B
ENCODING 64411
SWIDTH 864 0
DWIDTH 18 0
BBX 18 15 0 4
BITMAP
001600
005E00
003C00
006600
001E00
007E00
007000
006000
007000
407800
401C00
C01E00
FFF7C0
7FF3C0
3FE1C0
ENDCHAR
STARTCHAR FB9C
ENCODING 64412
SWIDTH 384 0
DWIDTH 8 0
BBX 9 15 -1 4
BITMAP
0900
2700
1E00
3900
6700
1F00
3800
3800
3C00
1E00
0600
0300
FF80
FF80
FF80
ENDCHAR
STARTCHAR FB9D
ENCODING 64413
SWIDTH 528 0
DWIDTH 11 0
BBX 12 15 -1 4
BITMAP
0D80
1780
0F00
1980
0780
1F80
1C00
1800
1C00
1E00
0700
0780
FDF0
FCF0
F870
ENDCHAR
STARTCHAR FB9E
ENCODING 64414
SWIDTH 528 0
DWIDTH 11 0
BBX 10 10 1 0
BITMAP
0040
40C0
40C0
8040
8040
8040
8040
E1C0
FFC0
7F80
ENDCHAR
STARTCHAR FB9F
ENCODING 64415
SWIDTH 528 0
DWIDTH 11 0
BBX 10 10 1 0
BITMAP
0040
40C0
40C0
8040
8040
8040
8040
E1C0
FFC0
7F80
ENDCHAR
STARTCHAR FBA0
ENCODING 64416
SWIDTH 528 0
DWIDTH 11 0
BBX 10 17 1 0
BITMAP
1800
0800
0A00
0F00
1900
3F00
0000
0040
40C0
40C0
8040
8040
8040
8040
E1C0
FFC0
7F80
ENDCHAR
STARTCHAR FBA1
ENCODING 64417
SWIDTH 528 0
DWIDTH 11 0
BBX 10 17 1 0
BITMAP
1800
0800
0A00
0F00
1900
3F00
0000
0040
40C0
40C0
8040
8040
8040
8040
E1C0
FFC0
7F80
ENDCHAR
STARTCHAR FBA2
ENCODING 64418
SWIDTH 288 0
DWIDTH 6 0
BBX 7 14 -1 3
BITMAP
30
10
20
1E
32
7E
00
04
04
06
06
FE
FE
FE
ENDCHAR
STARTCHAR FBA3
ENCODING 64419
SWIDTH 288 0
DWIDTH 6 0
BBX 7 14 -1 3
BITMAP
30
10
20
1E
32
7E
00
04
04
06
06
FE
FE
FE
ENDCHAR
STARTCHAR FBA4
ENCODING 64420
SWIDTH 336 0
DWIDTH 7 0
BBX 5 11 1 3
BITMAP
60
60
00
40
70
78
78
98
98
F8
F0
ENDCHAR
STARTCHAR FBA5
ENCODING 64421
SWIDTH 432 0
DWIDTH 9 0
BBX 9 12 0 3
BITMAP
6000
3800
0800
0C00
1C00
3400
4C00
7C00
F400
2780
0380
0380
ENDCHAR
STARTCHAR FBA6
ENCODING 64422
SWIDTH 336 0
DWIDTH 7 0
BBX 5 8 1 3
BITMAP
40
70
78
78
98
98
F8
F0
ENDCHAR
STARTCHAR FBA7
ENCODING 64423
SWIDTH 384 0
DWIDTH 8 0
BBX 8 6 0 1
BITMAP
08
1C
3F
67
43
80
ENDCHAR
STARTCHAR FBA8
ENCODING 64424
SWIDTH 288 0
DWIDTH 6 0
BBX 7 13 -1 -3
BITMAP
04
04
06
06
FE
FE
FE
00
00
10
20
18
18
ENDCHAR
STARTCHAR FBA9
ENCODING 64425
SWIDTH 336 0
DWIDTH 7 0
BBX 8 12 -1 -4
BITMAP
08
18
F3
F7
F7
0C
08
00
08
08
0C
0C
ENDCHAR
STARTCHAR FBAA
ENCODING 64426
SWIDTH 480 0
DWIDTH 10 0
BBX 9 10 -1 2
BITMAP
0800
0C00
1E00
1F00
1700
3780
3C80
FF80
FF80
E780
ENDCHAR
STARTCHAR FBAB
ENCODING 64427
SWIDTH 432 0
DWIDTH 9 0
BBX 9 11 0 3
BITMAP
0800
0800
0C00
1C00
3400
4C00
7C00
F400
2780
0380
0380
ENDCHAR
STARTCHAR FBAC
ENCODING 64428
SWIDTH 480 0
DWIDTH 10 0
BBX 9 10 -1 2
BITMAP
0800
0C00
1E00
1F00
1700
3780
3C80
FF80
FF80
E780
ENDCHAR
STARTCHAR FBAD
ENCODING 64429
SWIDTH 432 0
DWIDTH 9 0
BBX 10 14 -1 -2
BITMAP
0200
0700
0700
0B00
0B00
1600
FFC0
FFC0
FFC0
1700
1300
1F00
0F00
0E00
ENDCHAR
STARTCHAR FBAE
ENCODING 64430
SWIDTH 816 0
DWIDTH 17 0
BBX 15 11 1 -1
BITMAP
0100
0300
0700
1D00
3800
F000
E000
8000
FFFE
FFFC
7FF8
ENDCHAR
STARTCHAR FBAF
ENCODING 64431
SWIDTH 816 0
DWIDTH 17 0
BBX 16 10 1 -4
BITMAP
003F
03FF
0FFF
3E00
7000
6000
8000
8000
FFFE
FFFC
ENDCHAR
STARTCHAR FBB0
ENCODING 64432
SWIDTH 816 0
DWIDTH 17 0
BBX 15 13 1 -1
BITMAP
1800
1800
0100
0300
0700
1D00
3800
F000
E000
8000
FFFE
FFFC
7FF8
ENDCHAR
STARTCHAR FBB1
ENCODING 64433
SWIDTH 816 0
DWIDTH 17 0
BBX 16 14 1 -4
BITMAP
0060
0060
0000
0000
003F
03FF
0FFF
3E00
7000
6000
8000
8000
FFFE
FFFC
ENDCHAR
STARTCHAR FBD3
ENCODING 64467
SWIDTH 528 0
DWIDTH 11 0
BBX 11 15 0 3
BITMAP
0C00
0200
0840
00E0
02E0
0460
0640
0740
0360
4E20
4020
C020
FFE0
7FE0
3FE0
ENDCHAR
STARTCHAR FBD4
ENCODING 64468
SWIDTH 528 0
DWIDTH 11 0
BBX 11 15 0 3
BITMAP
0C00
0200
0840
00E0
02E0
0460
0640
0740
0360
4E20
4020
C020
FFE0
7FE0
3FE0
ENDCHAR
STARTCHAR FBD5
ENCODING 64469
SWIDTH 384 0
DWIDTH 8 0
BBX 9 14 -1 3
BITMAP
1000
0C00
3100
0700
1F00
3800
3800
3C00
1E00
0600
0300
FF80
FF80
FF80
ENDCHAR
STARTCHAR FBD6
ENCODING 64470
SWIDTH 384 0
DWIDTH 8 0
BBX 9 14 -1 3
BITMAP
1000
0C00
3100
0700
1F00
3800
3800
3C00
1E00
0600
0300
FF80
FF80
FF80
ENDCHAR
STARTCHAR FBD7
ENCODING 64471
SWIDTH 432 0
DWIDTH 9 0
BBX 9 17 0 -1
BITMAP
0100
0300
0100
0200
0000
0000
0380
0380
0780
0480
0780
0780
0380
0180
8380
7F00
3E00
ENDCHAR
STARTCHAR FBD8
ENCODING 64472
SWIDTH 432 0
DWIDTH 9 0
BBX 9 17 0 -1
BITMAP
0100
0300
0100
0200
0000
0000
0380
0380
0780
0480
0780
0780
0380
0180
8380
7F00
3E00
ENDCHAR
STARTCHAR FBD9
ENCODING 64473
SWIDTH 432 0
DWIDTH 9 0
BBX 9 15 0 -1
BITMAP
0580
0300
0000
0000
0380
0380
0780
0480
0780
0780
0380
0180
8380
7F00
3E00
ENDCHAR
STARTCHAR FBDA
ENCODING 64474
SWIDTH 432 0
DWIDTH 9 0
BBX 9 15 0 -1
BITMAP
0580
0300
0000
0000
0380
0380
0780
0480
0780
0780
0380
0180
8380
7F00
3E00
ENDCHAR
STARTCHAR FBDB
ENCODING 64475
SWIDTH 432 0
DWIDTH 9 0
BBX 9 18 0 -1
BITMAP
0200
0200
0200
0200
0200
0200
0000
0380
0380
0780
0480
0780
0780
0380
0180
8380
7F00
3E00
ENDCHAR
STARTCHAR FBDC
ENCODING 64476
SWIDTH 432 0
DWIDTH 9 0
BBX 9 18 0 -1
BITMAP
0200
0200
0200
0200
0200
0200
0000
0380
0380
0780
0480
0780
0780
0380
0180
8380
7F00
3E00
ENDCHAR
STARTCHAR FBDD
ENCODING 64477
SWIDTH 432 0
DWIDTH 9 0
BBX 10 16 0 -1
BITMAP
0600
06C0
02C0
0C00
0000
0380
0380
0780
0480
0780
0780
0380
0180
8380
7F00
3E00
ENDCHAR
STARTCHAR FBDE
ENCODING 64478
SWIDTH 432 0
DWIDTH 9 0
BBX 9 18 0 -1
BITMAP
0400
0600
0500
0180
0F80
0C00
0000
0380
0380
0780
0480
0780
0780
0380
0180
8380
7F00
3E00
ENDCHAR
STARTCHAR FBDF
ENCODING 64479
SWIDTH 432 0
DWIDTH 9 0
BBX 9 18 0 -1
BITMAP
0400
0600
0500
0180
0F80
0C00
0000
0380
0380
0780
0480
0780
0780
0380
0180
8380
7F00
3E00
ENDCHAR
STARTCHAR FBE0
ENCODING 64480
SWIDTH 432 0
DWIDTH 9 0
BBX 9 11 0 -1
BITMAP
0380
0380
0780
0480
0780
0780
0380
1D80
8380
7F00
3E00
ENDCHAR
STARTCHAR FBE1
ENCODING 64481
SWIDTH 432 0
DWIDTH 9 0
BBX 9 11 0 -1
BITMAP
0380
0380
0780
0480
0780
0780
0380
1D80
8380
7F00
3E00
ENDCHAR
STARTCHAR FBE2
ENCODING 64482
SWIDTH 432 0
DWIDTH 9 0
BBX 9 15 0 -1
BITMAP
0300
0300
0000
0000
0380
0380
0780
0480
0780
0780
0380
0180
8380
7F00
3E00
ENDCHAR
STARTCHAR FBE3
ENCODING 64483
SWIDTH 432 0
DWIDTH 9 0
BBX 9 15 0 -1
BITMAP
0300
0300
0000
0000
0380
0380
0780
0480
0780
0780
0380
0180
8380
7F00
3E00
ENDCHAR
STARTCHAR FBE4
ENCODING 64484
SWIDTH 624 0
DWIDTH 13 0
BBX 10 14 2 -4
BITMAP
0080
01C0
03C0
4640
8400
8780
8780
8080
8380
FF00
FC00
0000
1000
0800
ENDCHAR
STARTCHAR FBE5
ENCODING 64485
SWIDTH 576 0
DWIDTH 12 0
BBX 12 10 0 -4
BITMAP
2070
40F0
41F0
83C0
83E0
C060
FFC0
7FC0
0000
0400
ENDCHAR
STARTCHAR FBE6
ENCODING 64486
SWIDTH 288 0
DWIDTH 6 0
BBX 7 13 -1 -4
BITMAP
04
04
06
06
FE
FE
FE
00
30
30
10
0C
18
ENDCHAR
STARTCHAR FBE7
ENCODING 64487
SWIDTH 288 0
DWIDTH 6 0
BBX 7 13 -1 -4
BITMAP
04
04
06
06
FE
FE
FE
00
30
30
10
0C
18
ENDCHAR
STARTCHAR FBFC
ENCODING 64508
SWIDTH 624 0
DWIDTH 13 0
BBX 10 11 2 -1
BITMAP
0080
01C0
03C0
4640
8400
8780
8780
8080
8380
FF00
FC00
ENDCHAR
STARTCHAR FBFD
ENCODING 64509
SWIDTH 576 0
DWIDTH 12 0
BBX 12 10 0 -4
BITMAP
2030
20F0
41F0
41E0
41E0
C060
C1E0
FFC0
7F00
3800
ENDCHAR
STARTCHAR FBFE
ENCODING 64510
SWIDTH 288 0
DWIDTH 6 0
BBX 7 11 -1 -2
BITMAP
04
04
06
06
FE
FE
FE
00
0C
3C
74
ENDCHAR
STARTCHAR FBFF
ENCODING 64511
SWIDTH 288 0
DWIDTH 6 0
BBX 7 11 -1 -2
BITMAP
04
04
06
06
FE
FE
FE
00
0C
3C
74
ENDCHAR
STARTCHAR FC5E
ENCODING 64606
SWIDTH 240 0
DWIDTH 5 0
BBX 5 7 0 14
BITMAP
18
58
58
60
30
B0
40
ENDCHAR
STARTCHAR FC5F
ENCODING 64607
SWIDTH 192 0
DWIDTH 4 0
BBX 3 6 1 14
BITMAP
40
60
80
60
E0
80
ENDCHAR
STARTCHAR FC60
ENCODING 64608
SWIDTH 192 0
DWIDTH 4 0
BBX 3 5 1 14
BITMAP
20
C0
60
E0
80
ENDCHAR
STARTCHAR FC61
ENCODING 64609
SWIDTH 192 0
DWIDTH 4 0
BBX 3 6 1 14
BITMAP
60
60
40
E0
E0
80
ENDCHAR
STARTCHAR FC62
ENCODING 64610
SWIDTH 192 0
DWIDTH 4 0
BBX 3 5 1 14
BITMAP
40
60
80
60
80
ENDCHAR
STARTCHAR FD3E
ENCODING 64830
SWIDTH 336 0
DWIDTH 7 0
BBX 4 20 1 -4
BITMAP
10
10
30
20
60
60
60
E0
C0
C0
C0
C0
E0
60
60
60
20
30
10
10
ENDCHAR
STARTCHAR FD3F
ENCODING 64831
SWIDTH 336 0
DWIDTH 7 0
BBX 4 20 1 -4
BITMAP
80
40
60
60
20
30
30
30
30
30
30
30
30
30
30
30
60
60
40
80
ENDCHAR
STARTCHAR FDF2
ENCODING 65010
SWIDTH 720 0
DWIDTH 15 0
BBX 14 17 0 2
BITMAP
0200
0200
0100
0040
0040
0380
0300
0010
0090
0898
08C8
1C48
344C
6464
7FFC
FFF8
0398
ENDCHAR
STARTCHAR FE80
ENCODING 65152
SWIDTH 480 0
DWIDTH 10 0
BBX 8 10 1 1
BITMAP
18
3C
7C
48
E3
FE
7E
30
60
40
ENDCHAR
STARTCHAR FE81
ENCODING 65153
SWIDTH 240 0
DWIDTH 5 0
BBX 5 15 0 2
BITMAP
F8
00
20
20
60
20
20
30
30
30
30
30
30
20
20
ENDCHAR
STARTCHAR FE82
ENCODING 65154
SWIDTH 240 0
DWIDTH 5 0
BBX 6 14 -1 3
BITMAP
F8
00
20
30
30
30
10
10
10
10
10
1C
1C
1C
ENDCHAR
STARTCHAR FE83
ENCODING 65155
SWIDTH 240 0
DWIDTH 5 0
BBX 3 16 1 2
BITMAP
40
E0
80
40
40
C0
40
40
60
60
60
60
60
60
40
40
ENDCHAR
STARTCHAR FE84
ENCODING 65156
SWIDTH 240 0
DWIDTH 5 0
BBX 5 15 0 3
BITMAP
40
E0
80
40
40
40
40
40
40
40
60
60
78
38
38
ENDCHAR
STARTCHAR FE85
ENCODING 65157
SWIDTH 432 0
DWIDTH 9 0
BBX 9 15 0 -1
BITMAP
0800
1000
1800
0000
0380
0380
0780
0480
0780
0780
0380
0180
8380
7F00
3E00
ENDCHAR
STARTCHAR FE86
ENCODING 65158
SWIDTH 432 0
DWIDTH 9 0
BBX 9 15 0 -1
BITMAP
0800
1000
1800
0000
0380
0380
0780
0480
0780
0780
0380
0180
8380
7F00
3E00
ENDCHAR
STARTCHAR FE87
ENCODING 65159
SWIDTH 240 0
DWIDTH 5 0
BBX 3 17 1 -2
BITMAP
40
40
C0
40
40
60
60
60
60
60
60
40
40
00
40
80
C0
ENDCHAR
STARTCHAR FE88
ENCODING 65160
SWIDTH 240 0
DWIDTH 5 0
BBX 4 17 1 -2
BITMAP
80
80
80
80
80
80
80
C0
C0
F0
70
70
00
00
60
40
60
ENDCHAR
STARTCHAR FE89
ENCODING 65161
SWIDTH 624 0
DWIDTH 13 0
BBX 10 12 2 -1
BITMAP
C000
E080
01C0
03C0
4640
8400
8780
8780
8080
8380
FF00
FC00
ENDCHAR
STARTCHAR FE8A
ENCODING 65162
SWIDTH 576 0
DWIDTH 12 0
BBX 12 13 0 -2
BITMAP
1000
2000
3000
0000
0000
2070
40F0
41F0
C1E0
C020
F1E0
7FC0
3F00
ENDCHAR
STARTCHAR FE8B
ENCODING 65163
SWIDTH 288 0
DWIDTH 6 0
BBX 7 11 -1 3
BITMAP
04
08
0C
00
04
04
06
06
FE
FE
FE
ENDCHAR
STARTCHAR FE8C
ENCODING 65164
SWIDTH 288 0
DWIDTH 6 0
BBX 7 11 -1 3
BITMAP
04
08
0C
00
04
04
06
06
FE
FE
FE
ENDCHAR
STARTCHAR FE8D
ENCODING 65165
SWIDTH 240 0
DWIDTH 5 0
BBX 3 13 1 2
BITMAP
40
40
C0
40
40
60
60
60
60
60
60
40
40
ENDCHAR
STARTCHAR FE8E
ENCODING 65166
SWIDTH 240 0
DWIDTH 5 0
BBX 4 12 1 3
BITMAP
80
80
80
80
80
80
80
C0
C0
F0
70
70
ENDCHAR
STARTCHAR FE8F
ENCODING 65167
SWIDTH 672 0
DWIDTH 14 0
BBX 13 11 1 -1
BITMAP
8010
8010
8010
8018
FFF8
FFF8
7FF8
0000
0200
0700
0300
ENDCHAR
STARTCHAR FE90
ENCODING 65168
SWIDTH 672 0
DWIDTH 14 0
BBX 13 11 1 -1
BITMAP
8010
8010
8010
8018
FFF8
FFF8
7FF8
0000
0200
0700
0300
ENDCHAR
STARTCHAR FE91
ENCODING 65169
SWIDTH 288 0
DWIDTH 6 0
BBX 7 11 -1 -1
BITMAP
04
04
06
06
FE
FE
FE
00
10
38
18
ENDCHAR
STARTCHAR FE92
ENCODING 65170
SWIDTH 288 0
DWIDTH 6 0
BBX 7 11 -1 -1
BITMAP
04
04
06
06
FE
FE
FE
00
10
38
18
ENDCHAR
STARTCHAR FE93
ENCODING 65171
SWIDTH 336 0
DWIDTH 7 0
BBX 5 13 1 3
BITMAP
10
F8
F0
40
00
40
70
78
78
98
98
F8
F0
ENDCHAR
STARTCHAR FE94
ENCODING 65172
SWIDTH 432 0
DWIDTH 9 0
BBX 9 15 0 3
BITMAP
0C00
3C00
6000
0000
0800
0800
0C00
1C00
3400
4C00
7C00
F400
2780
0380
0380
ENDCHAR
STARTCHAR FE95
ENCODING 65173
SWIDTH 672 0
DWIDTH 14 0
BBX 13 10 1 4
BITMAP
0380
0F00
0C00
8010
8010
8010
8018
FFF8
FFF8
7FF8
ENDCHAR
STARTCHAR FE96
ENCODING 65174
SWIDTH 672 0
DWIDTH 14 0
BBX 13 10 1 4
BITMAP
0380
0F00
0C00
8010
8010
8010
8018
FFF8
FFF8
7FF8
ENDCHAR
STARTCHAR FE97
ENCODING 65175
SWIDTH 288 0
DWIDTH 6 0
BBX 7 12 -1 3
BITMAP
08
2C
7C
20
00
04
04
06
06
FE
FE
FE
ENDCHAR
STARTCHAR FE98
ENCODING 65176
SWIDTH 288 0
DWIDTH 6 0
BBX 7 12 -1 3
BITMAP
08
2C
7C
20
00
04
04
06
06
FE
FE
FE
ENDCHAR
STARTCHAR FE99
ENCODING 65177
SWIDTH 672 0
DWIDTH 14 0
BBX 13 13 1 3
BITMAP
0400
0E00
0400
0380
0F00
0C00
8010
8010
8010
8018
FFF8
FFF8
7FF8
ENDCHAR
STARTCHAR FE9A
ENCODING 65178
SWIDTH 672 0
DWIDTH 14 0
BBX 13 13 1 3
BITMAP
0400
0E00
0400
0380
0F00
0C00
8010
8010
8010
8018
FFF8
FFF8
7FF8
ENDCHAR
STARTCHAR FE9B
ENCODING 65179
SWIDTH 288 0
DWIDTH 6 0
BBX 7 14 -1 3
BITMAP
30
30
18
2C
7C
20
00
04
04
06
06
FE
FE
FE
ENDCHAR
STARTCHAR FE9C
ENCODING 65180
SWIDTH 288 0
DWIDTH 6 0
BBX 7 14 -1 3
BITMAP
30
30
18
2C
7C
20
00
04
04
06
06
FE
FE
FE
ENDCHAR
STARTCHAR FE9D
ENCODING 65181
SWIDTH 576 0
DWIDTH 12 0
BBX 11 15 1 -4
BITMAP
7FC0
FF80
FF80
3C00
6000
4000
8400
8E00
8E00
8000
C000
E000
FEE0
7FC0
1F00
ENDCHAR
STARTCHAR FE9E
ENCODING 65182
SWIDTH 576 0
DWIDTH 12 0
BBX 11 15 1 -4
BITMAP
7FC0
FF80
FF80
3E00
6200
43E0
83E0
99E0
9C00
9800
C000
E000
FC60
7F80
3F00
ENDCHAR
STARTCHAR FE9F
ENCODING 65183
SWIDTH 528 0
DWIDTH 11 0
BBX 12 11 -1 -2
BITMAP
1E00
1F00
0780
01C0
FFF0
FFF0
FFF0
0000
0600
0700
0600
ENDCHAR
STARTCHAR FEA0
ENCODING 65184
SWIDTH 528 0
DWIDTH 11 0
BBX 12 11 -1 -2
BITMAP
1E00
1F00
0780
01C0
FFF0
FFF0
FFF0
0000
0600
0700
0600
ENDCHAR
STARTCHAR FEA1
ENCODING 65185
SWIDTH 576 0
DWIDTH 12 0
BBX 11 15 1 -4
BITMAP
7FC0
FF80
FF80
3C00
6000
4000
8000
8000
8000
8000
C000
E000
FEE0
7FC0
1F00
ENDCHAR
STARTCHAR FEA2
ENCODING 65186
SWIDTH 576 0
DWIDTH 12 0
BBX 11 15 1 -4
BITMAP
7FC0
FF80
FF80
3E00
6200
43E0
83E0
81E0
8000
8000
C000
E000
FC60
7F80
3F00
ENDCHAR
STARTCHAR FEA3
ENCODING 65187
SWIDTH 528 0
DWIDTH 11 0
BBX 12 7 -1 3
BITMAP
1E00
1F00
0780
01C0
FFF0
FFF0
FFF0
ENDCHAR
STARTCHAR FEA4
ENCODING 65188
SWIDTH 528 0
DWIDTH 11 0
BBX 12 7 -1 3
BITMAP
1E00
1F00
0780
01C0
FFF0
FFF0
FFF0
ENDCHAR
STARTCHAR FEA5
ENCODING 65189
SWIDTH 576 0
DWIDTH 12 0
BBX 11 19 1 -3
BITMAP
1C00
1C00
0800
0000
7FC0
FF80
FF80
3C00
6000
4000
8000
8000
8000
8000
C000
E000
FEE0
7FC0
1F00
ENDCHAR
STARTCHAR FEA6
ENCODING 65190
SWIDTH 576 0
DWIDTH 12 0
BBX 11 19 1 -3
BITMAP
1C00
1C00
0800
0000
7FC0
FF80
FF80
3E00
6200
43E0
83E0
81E0
8000
8000
C000
E000
FC60
7F80
3F00
ENDCHAR
STARTCHAR FEA7
ENCODING 65191
SWIDTH 528 0
DWIDTH 11 0
BBX 12 12 -1 3
BITMAP
0600
0700
0600
0000
0000
1E00
1F00
0780
01C0
FFF0
FFF0
FFF0
ENDCHAR
STARTCHAR FEA8
ENCODING 65192
SWIDTH 528 0
DWIDTH 11 0
BBX 12 12 -1 3
BITMAP
0600
0700
0600
0000
0000
1E00
1F00
0780
01C0
FFF0
FFF0
FFF0
ENDCHAR
STARTCHAR FEA9
ENCODING 65193
SWIDTH 336 0
DWIDTH 7 0
BBX 6 9 1 4
BITMAP
18
18
1C
0C
04
04
FC
FC
FC
ENDCHAR
STARTCHAR FEAA
ENCODING 65194
SWIDTH 336 0
DWIDTH 7 0
BBX 6 9 1 4
BITMAP
18
18
1C
0C
04
04
FC
FC
FC
ENDCHAR
STARTCHAR FEAB
ENCODING 65195
SWIDTH 336 0
DWIDTH 7 0
BBX 6 14 1 4
BITMAP
70
70
20
00
00
18
18
1C
0C
04
04
FC
FC
FC
ENDCHAR
STARTCHAR FEAC
ENCODING 65196
SWIDTH 336 0
DWIDTH 7 0
BBX 6 14 1 4
BITMAP
70
70
20
00
00
18
18
1C
0C
04
04
FC
FC
FC
ENDCHAR
STARTCHAR FEAD
ENCODING 65197
SWIDTH 432 0
DWIDTH 9 0
BBX 9 10 0 -1
BITMAP
0100
0180
0180
0080
0080
0080
0180
0380
CF00
3E00
ENDCHAR
STARTCHAR FEAE
ENCODING 65198
SWIDTH 432 0
DWIDTH 9 0
BBX 9 10 0 -1
BITMAP
0100
0180
0180
0080
0080
0080
0180
0380
CF00
3E00
ENDCHAR
STARTCHAR FEAF
ENCODING 65199
SWIDTH 432 0
DWIDTH 9 0
BBX 9 15 0 -2
BITMAP
0300
0700
0300
0000
0000
0100
0180
0180
0080
0080
0080
0180
0380
CF00
3E00
ENDCHAR
STARTCHAR FEB0
ENCODING 65200
SWIDTH 432 0
DWIDTH 9 0
BBX 9 15 0 -2
BITMAP
0300
0700
0300
0000
0000
0100
0180
0180
0080
0080
0080
0180
0380
CF00
3E00
ENDCHAR
STARTCHAR FEB1
ENCODING 65201
SWIDTH 912 0
DWIDTH 19 0
BBX 18 10 1 0
BITMAP
004040
40C2C0
40C2C0
807FC0
807FC0
807DC0
804000
E1C000
FFC000
7F8000
ENDCHAR
STARTCHAR FEB2
ENCODING 65202
SWIDTH 912 0
DWIDTH 19 0
BBX 18 10 1 0
BITMAP
004040
40C2C0
40C2C0
807FC0
807FC0
807DC0
804000
E1C000
FFC000
7F8000
ENDCHAR
STARTCHAR FEB3
ENCODING 65203
SWIDTH 624 0
DWIDTH 13 0
BBX 14 6 -1 3
BITMAP
0808
082C
082C
FFFC
FFFC
E7DC
ENDCHAR
STARTCHAR FEB4
ENCODING 65204
SWIDTH 624 0
DWIDTH 13 0
BBX 14 6 -1 3
BITMAP
0808
082C
082C
FFFC
FFFC
E7DC
ENDCHAR
STARTCHAR FEB5
ENCODING 65205
SWIDTH 912 0
DWIDTH 19 0
BBX 18 17 1 -1
BITMAP
000400
000E00
000500
000B80
000F00
000C00
000000
004040
40C2C0
40C2C0
807FC0
807FC0
807DC0
804000
E1C000
FFC000
7F8000
ENDCHAR
STARTCHAR FEB6
ENCODING 65206
SWIDTH 912 0
DWIDTH 19 0
BBX 18 17 1 -1
BITMAP
000400
000E00
000500
000B80
000F00
000C00
000000
004040
40C2C0
40C2C0
807FC0
807FC0
807DC0
804000
E1C000
FFC000
7F8000
ENDCHAR
STARTCHAR FEB7
ENCODING 65207
SWIDTH 624 0
DWIDTH 13 0
BBX 14 13 -1 3
BITMAP
00C0
00C0
0040
00B0
00F0
0080
0000
0808
082C
082C
FFFC
FFFC
E7DC
ENDCHAR
STARTCHAR FEB8
ENCODING 65208
SWIDTH 624 0
DWIDTH 13 0
BBX 14 13 -1 3
BITMAP
00C0
00C0
0040
00B0
00F0
0080
0000
0808
082C
082C
FFFC
FFFC
E7DC
ENDCHAR
STARTCHAR FEB9
ENCODING 65209
SWIDTH 1056 0
DWIDTH 22 0
BBX 21 11 1 0
BITMAP
0000F8
0041F8
40C798
40CE08
807FF8
807FF8
807FF8
804000
E1C000
FFC000
7F8000
ENDCHAR
STARTCHAR FEBA
ENCODING 65210
SWIDTH 1056 0
DWIDTH 22 0
BBX 21 11 1 0
BITMAP
0000F8
0041F8
40C798
40CE08
807FF8
807FF8
807FF8
804000
E1C000
FFC000
7F8000
ENDCHAR
STARTCHAR FEBB
ENCODING 65211
SWIDTH 768 0
DWIDTH 16 0
BBX 17 7 -1 4
BITMAP
000F00
081F80
087180
08E080
FFFF80
FFFF80
E7FF80
ENDCHAR
STARTCHAR FEBC
ENCODING 65212
SWIDTH 768 0
DWIDTH 16 0
BBX 17 7 -1 4
BITMAP
000F00
081F80
087180
08E080
FFFF80
FFFF80
E7FF80
ENDCHAR
STARTCHAR FEBD
ENCODING 65213
SWIDTH 1056 0
DWIDTH 22 0
BBX 21 16 1 -1
BITMAP
000600
000700
000600
000000
000000
0000F8
0041F8
40C798
40CE08
807FF8
807FF8
807FF8
804000
E1C000
FFC000
7F8000
ENDCHAR
STARTCHAR FEBE
ENCODING 65214
SWIDTH 1056 0
DWIDTH 22 0
BBX 21 16 1 -1
BITMAP
000600
000700
000600
000000
000000
0000F8
0041F8
40C798
40CE08
807FF8
807FF8
807FF8
804000
E1C000
FFC000
7F8000
ENDCHAR
STARTCHAR FEBF
ENCODING 65215
SWIDTH 768 0
DWIDTH 16 0
BBX 17 12 -1 3
BITMAP
006000
007000
006000
000000
000000
000F00
081F80
087180
08E080
FFFF80
FFFF80
E7FF80
ENDCHAR
STARTCHAR FEC0
ENCODING 65216
SWIDTH 768 0
DWIDTH 16 0
BBX 17 12 -1 3
BITMAP
006000
007000
006000
000000
000000
000F00
081F80
087180
08E080
FFFF80
FFFF80
E7FF80
ENDCHAR
STARTCHAR FEC1
ENCODING 65217
SWIDTH 528 0
DWIDTH 11 0
BBX 12 14 -1 3
BITMAP
1000
1800
1C00
1C00
1800
0800
0800
09E0
0BF0
0E30
1C30
FFF0
FFF0
FFF0
ENDCHAR
STARTCHAR FEC2
ENCODING 65218
SWIDTH 528 0
DWIDTH 11 0
BBX 12 14 -1 3
BITMAP
1000
1800
1C00
1C00
1800
0800
0800
09E0
0BF0
0E30
1C30
FFF0
FFF0
FFF0
ENDCHAR
STARTCHAR FEC3
ENCODING 65219
SWIDTH 528 0
DWIDTH 11 0
BBX 12 14 -1 3
BITMAP
1000
1800
1C00
1C00
1800
0800
0800
09E0
0BF0
0E30
1C30
FFF0
FFF0
FFF0
ENDCHAR
STARTCHAR FEC4
ENCODING 65220
SWIDTH 528 0
DWIDTH 11 0
BBX 12 14 -1 3
BITMAP
1000
1800
1C00
1C00
1800
0800
0800
09E0
0BF0
0E30
1C30
FFF0
FFF0
FFF0
ENDCHAR
STARTCHAR FEC5
ENCODING 65221
SWIDTH 528 0
DWIDTH 11 0
BBX 12 14 -1 3
BITMAP
1000
1800
1C80
1DC0
19C0
0800
0800
09E0
0BF0
0E30
1C30
FFF0
FFF0
FFF0
ENDCHAR
STARTCHAR FEC6
ENCODING 65222
SWIDTH 528 0
DWIDTH 11 0
BBX 12 14 -1 3
BITMAP
1000
1800
1C80
1DC0
19C0
0800
0800
09E0
0BF0
0E30
1C30
FFF0
FFF0
FFF0
ENDCHAR
STARTCHAR FEC7
ENCODING 65223
SWIDTH 528 0
DWIDTH 11 0
BBX 12 14 -1 3
BITMAP
1000
1800
1C80
1DC0
19C0
0800
0800
09E0
0BF0
0E30
1C30
FFF0
FFF0
FFF0
ENDCHAR
STARTCHAR FEC8
ENCODING 65224
SWIDTH 528 0
DWIDTH 11 0
BBX 12 14 -1 3
BITMAP
1000
1800
1C80
1DC0
19C0
0800
0800
09E0
0BF0
0E30
1C30
FFF0
FFF0
FFF0
ENDCHAR
STARTCHAR FEC9
ENCODING 65225
SWIDTH 528 0
DWIDTH 11 0
BBX 10 16 1 -4
BITMAP
7E00
7F00
C000
C100
FF00
7F00
7800
6000
C000
8000
8000
8000
C000
FC40
FF80
3E00
ENDCHAR
STARTCHAR FECA
ENCODING 65226
SWIDTH 480 0
DWIDTH 10 0
BBX 10 15 1 -4
BITMAP
3C00
7C00
7C00
1C00
3800
7F80
CF80
8780
8000
8000
8000
C000
FFC0
7F80
3E00
ENDCHAR
STARTCHAR FECB
ENCODING 65227
SWIDTH 528 0
DWIDTH 11 0
BBX 11 9 -1 3
BITMAP
0E00
1F80
3880
2000
3020
3FE0
FFC0
FF00
F800
ENDCHAR
STARTCHAR FECC
ENCODING 65228
SWIDTH 384 0
DWIDTH 8 0
BBX 9 7 -1 4
BITMAP
3E00
3E00
7E00
1C00
FF80
FF80
F780
ENDCHAR
STARTCHAR FECD
ENCODING 65229
SWIDTH 528 0
DWIDTH 11 0
BBX 10 21 1 -4
BITMAP
3000
3800
3000
0000
0000
7E00
7F00
C000
C100
FF00
7F00
7800
6000
C000
8000
8000
8000
C000
FC40
FF80
3E00
ENDCHAR
STARTCHAR FECE
ENCODING 65230
SWIDTH 480 0
DWIDTH 10 0
BBX 10 20 1 -4
BITMAP
1000
3C00
3800
0000
0000
3C00
7C00
7C00
1C00
3800
7F80
CF80
8780
8000
8000
8000
C000
FFC0
7F80
3E00
ENDCHAR
STARTCHAR FECF
ENCODING 65231
SWIDTH 528 0
DWIDTH 11 0
BBX 11 13 -1 4
BITMAP
0E00
1C00
0400
0000
0E00
1F80
3880
2000
3020
3FE0
FFC0
FF00
F800
ENDCHAR
STARTCHAR FED0
ENCODING 65232
SWIDTH 384 0
DWIDTH 8 0
BBX 9 13 -1 3
BITMAP
1000
1C00
3800
0800
0000
0000
3E00
3E00
7E00
1C00
FF80
FF80
F780
ENDCHAR
STARTCHAR FED1
ENCODING 65233
SWIDTH 768 0
DWIDTH 16 0
BBX 16 13 0 3
BITMAP
000C
000E
000C
0000
0000
000E
401E
401F
401B
401F
FFFF
7FFF
7FFF
ENDCHAR
STARTCHAR FED2
ENCODING 65234
SWIDTH 768 0
DWIDTH 16 0
BBX 16 13 0 3
BITMAP
000C
000E
000C
0000
0000
000E
401E
401F
401B
401F
FFFF
7FFF
7FFF
ENDCHAR
STARTCHAR FED3
ENCODING 65235
SWIDTH 288 0
DWIDTH 6 0
BBX 7 15 -1 3
BITMAP
10
1C
38
08
00
1C
1C
36
26
3E
3E
02
FE
FE
FE
ENDCHAR
STARTCHAR FED4
ENCODING 65236
SWIDTH 336 0
DWIDTH 7 0
BBX 8 13 -1 3
BITMAP
0C
1C
0C
00
0C
1E
1E
13
1B
1F
FF
FF
FF
ENDCHAR
STARTCHAR FED5
ENCODING 65237
SWIDTH 624 0
DWIDTH 13 0
BBX 13 17 0 -3
BITMAP
0020
00B0
01F0
0080
0020
0070
00F0
00B8
20F8
40F8
40F8
4008
C008
E038
7FF0
7FE0
0F80
ENDCHAR
STARTCHAR FED6
ENCODING 65238
SWIDTH 624 0
DWIDTH 13 0
BBX 13 17 0 -3
BITMAP
0020
00B0
01F0
0080
0020
0070
00F0
00B8
20F8
40F8
40F8
4008
C008
E038
7FF0
7FE0
0F80
ENDCHAR
STARTCHAR FED7
ENCODING 65239
SWIDTH 288 0
DWIDTH 6 0
BBX 7 15 -1 3
BITMAP
08
2C
3C
60
00
1C
1C
36
26
3E
3E
02
FE
FE
FE
ENDCHAR
STARTCHAR FED8
ENCODING 65240
SWIDTH 336 0
DWIDTH 7 0
BBX 8 13 -1 3
BITMAP
0C
3C
74
00
0C
1E
1E
13
1B
1F
FF
FF
FF
ENDCHAR
STARTCHAR FED9
ENCODING 65241
SWIDTH 528 0
DWIDTH 11 0
BBX 11 13 0 3
BITMAP
0040
00E0
02E0
0460
0640
0740
0360
4E20
4020
C020
FFE0
7FE0
3FE0
ENDCHAR
STARTCHAR FEDA
ENCODING 65242
SWIDTH 528 0
DWIDTH 11 0
BBX 11 13 0 3
BITMAP
0040
00E0
02E0
0460
0640
0740
0360
4E20
4020
C020
FFE0
7FE0
3FE0
ENDCHAR
STARTCHAR FEDB
ENCODING 65243
SWIDTH 384 0
DWIDTH 8 0
BBX 9 12 -1 3
BITMAP
0100
0700
1F00
3800
3800
3C00
1E00
0600
0300
FF80
FF80
FF80
ENDCHAR
STARTCHAR FEDC
ENCODING 65244
SWIDTH 384 0
DWIDTH 8 0
BBX 9 12 -1 3
BITMAP
0100
0700
1F00
3800
3800
3C00
1E00
0600
0300
FF80
FF80
FF80
ENDCHAR
ENDFONT
